<mxfile host="Electron" agent="Mozilla/5.0 (X11; Linux x86_64) AppleWebKit/537.36 (KHTML, like Gecko) draw.io/27.0.9 Chrome/134.0.6998.205 Electron/35.4.0 Safari/537.36" version="27.0.9">
  <diagram name="PÃ¡gina-1" id="xu_6Ck7D6BbfUBSaHRRi">
    <mxGraphModel dx="1852" dy="938" grid="1" gridSize="10" guides="1" tooltips="1" connect="1" arrows="1" fold="1" page="1" pageScale="1" pageWidth="827" pageHeight="1169" math="0" shadow="0">
      <root>
        <mxCell id="0" />
        <mxCell id="1" parent="0" />
        <mxCell id="oIqmAePt7HCqJZuFYAqL-2" value="Front-End&amp;nbsp;&lt;br&gt;Files" style="rounded=0;whiteSpace=wrap;html=1;" vertex="1" parent="1">
          <mxGeometry x="120" y="120" width="160" height="80" as="geometry" />
        </mxCell>
        <mxCell id="oIqmAePt7HCqJZuFYAqL-3" value="" style="shape=image;verticalLabelPosition=bottom;labelBackgroundColor=default;verticalAlign=top;aspect=fixed;imageAspect=0;image=data:image/jpeg,/9j/4AAQSkZJRgABAQAAAQABAAD/2wCEAAkGBxATEBUQEhAVDxURFRAVFhAWEBUVFRgYFRIWFhUWFxUYHSggGBolHRUVITEhJSkrLi4uFx8zODMtNygtLisBCgoKDg0OGxAQGy0lICUuLTcvMC01LTIvLS0tLy0tMi03LS0tMi0vLy8tLS0tNy0tLzUtLS0tMi8vLS0uLS0tLf/AABEIAOIA3wMBEQACEQEDEQH/xAAbAAEAAgMBAQAAAAAAAAAAAAAAAwYCBAUBB//EADoQAAIBAgMEBwYFBAIDAAAAAAABAgMRBAUhEjFBUSJhcYGRsdEGEzJSocFCYrLh8CNTcoKSwhUkQ//EABoBAQADAQEBAAAAAAAAAAAAAAAEBQYDAgH/xAA1EQACAgECAwUHAwMFAQAAAAAAAQIDBBEhEjFBBRNRYbEiMnGBkaHRweHwFDNSFSMkQvE0/9oADAMBAAIRAxEAPwD7iAAAAAAAAAAAAAAAAAAAAAAAAAAAAAAAAAAAAAAAAAAAAAAAAAAAAAAAAAAAAAAAAAAAAAAAAAAAAAAAAAAAAAAAAAAAAAAAAAAAAAAAAAAAAAAAAAAAAAAAAAAAAAAAAAAAAAAAAAAAAAAAAAAAAAAAAAAAAAAAAAAAAAAAAAAAAAAAAAAAAAAAAAAAAAAAAAAAAAAAAAAAAAAAAAAAAAAAAAAAAeNgHNzbNo0Y7tqT3R+76iRRju1+RCzM2ONHxb5IrNfPcTJ395s9UUkvUs44lS6FBPtLJk/e0+BlQ9oMRHfNTXKUV5qzPksOqXTQ+19p5EOuvxO3gPaSnPSovdPnvj48O8hW4U47x39S1x+1q57Wey/sduLTV1qnxITWhapprVHoPoAI61aMU5SailvbdkfYxcnojzOcYLik9EcDHe08VpSjtfmlou5b39CfXgt7zehT39sRW1S183y+hyK2d4iX/wBHHqikv3JccWqPQrJ9o5Ev+2nw2M8Ln+Ig9Z+8XKS++8+TxKpdND1V2nkQe71XmWzLMwhWhtx0to48UyquplVLRmixcmGRDij814G2ciSAAAAAAAAAAAAAAAAAAADxsA16lQAo2PrurVlLfd2iurdFfzmX1UFXWkY3Jtd9zl4vb9CzYHK6dOKTgpS4yavr1X3Iqbcmc5bPRGkxsCqqCTSb6tmVfK6E99NRfOPRf0PkMm2PX6nq3s/HsW8dPhscXH5FOHSh/Ujyt0l3ce4sKcyM9pbP7FLldl2Ve1D2l9/3+RBleb1KLsntQ4wb07uTOt2PG34+JHxc6zHei3Xh/ORccDj6dWO1B9q4p8mintqlW9JGnx8iu+PFB/sa+aZrCitdZPdBb36I900Ste3LxOeXmV48fa3fRFRxuNqVpdJt69GC3LsXMt66oVLb6mZvybcmXtfJI6GByCT6VR7K+Vb+98CLbnJbQ38ywxuyJS9q56eS5nYoZfShupx7WrvxZBlfZLnJlxXh0V+7Bevqa+b5XCdNyhFRnFN6K17b00jtjZMoySk9mRM/ArnW5QWkl4dTkezeL2K8VfSp0X3/AAvx8ydl18VbfgVHZl3d3pdJbfgu5SmrAAAAAAAAAAAAAAAAAAABHUYBz8dO1Ob5Rk/ozpUtZpeaOORLhqlLwT9CrZJT2sRTX5r+Cb+xc5L0qkzK4EeLIgvP03Lw6ZRGwIp0wCPcAczNcojUvOFoT+ku3r6yZj5br9mW69Cszezo3e3DaX2f88SvUa1SjUurwktGn5NcUWcowtjvujPwstxrNVs0KdOpWqaXnKW9/d8kHKFMPBCMLcmzbdv+fQteVZRCkr/FPjP7LkiovyJWvwXgaXEwYY615y8fwdNUyOTiOrAAigAUiXQq6fgn+mX7GgXtQ+KMU/8Abt26P0Z9EM+bUAAAAAAAAAAAAAAAAAAAENYA52Yr+jU/wn5HWj+5H4ojZn/zz+DK77Ov/wBmn/t+lltl/wBpmb7Nf/Jj8/Rl5KQ1p40AQVYgHKzTHqlHnJ/DH7vqJGPQ7ZeXUhZuZHHhr1fJFZpU6lapZdKUtW35vki3lKFUPBIzMIW5Nui3bPaNWpRqXXRlF2afHqfNCUYWw8UxCdmNbqtmi75bjYVoKcexx4p8iltqdcuFmrxsiN8OOPz8jbORII6gBrcQCkY3WrP/ADn+pmgq9xfBGKyN7ZfF+p9DjuM+zaLkeg+gAAAAAAAAAAAAAAAAAENYA1K0NqMo84yXij1B6STOdseKEo+KZUMoqbNem/zxXjp9y8vWtcl5GRw5cN8H5r8H0AoTZHkmAaOYYuNODnLcvq+CR7rrdkuFHK+6NMHOXQpWIrTq1Np6uTslwXJdheQhGqGi5IyFts8izifNlky2lSoxt7yDk/iltrw7CqvlZbLXR6dDR4ddGNDTiWr5vVGGcYelWjtRnD3kVp049JfK9fA6Y1k63pJPT0OPaFNWRHihJcS81v5HEyrMJUam0tU9JR5r1RPvpVsdPoU2JlSx7OJcuqL3RqxnFSi7qSumUkouL0ZroTjOKlHkzyoeT0asnx5A+N6LUpOHW3VivnnH6yNBL2YPyRi6/wDcuXm/Vn0Qz5tQAAAAAAAAAAAAAAAAAAARVQDRr4mENZyUe1/Y9wrlP3Vqcrb66lrOSRTK0kptxem03F9V7ovop8KUvAx1jSsbhy12OrX9pq7+FRh3Xf19CLHBrXPVlhPte+XupI0a2a15b6su57PlY7Rx6lyiiJPNyJc5v09DVnUb3tvtbfmdVFLkiPKcpe89SaGCqvdTm/8AVnh3VrnJHaOLdLlB/RmX/ja39qXgef6mr/JHv+hyP8GP/HVv7UvAf1NX+SH9Dkf4MjqYSpFXdOSS47Lt4nqNsJbJo5zx7YLWUWvkYU60o/DKUeyTXke3FPmjnGco+62vgbVPN8Qt1WT7bS8zlLGqfOJIhn5EeU36+pO89quLjJRe0mr2aaurXOX9FWpJrUkvta5wcZJbo18nqQjXhKb2Yxbd7N8Hbd12OuQpSrajzIuHOEL4ym9Ei9UMRCavCSmuaaZSShKL0ktDXV2wsWsGn8CU8nsAAAAAAAAAAAAAAA8bANTH5jTpK85W5RWrfYjrVTOx6RRHyMmuhazfy6srOP8AaGrPSH9OPjLx4dxZVYUI7y3f2KHI7Vts2h7K+5zaOHqVHeMXNvfL1kyRKyFa3ehCrouvesU35/uzLG4KdK21bpJvR33cD5VdG3Xh6HrJxLMdpT6nTyXBUZ09qUdqSbTu3bmtCHl3WQnonsWfZuJRdXxSWrTMs5nCnHYhCMZT3tRV1H9/U84kZ2S4pN6L1PfaM6qId3XFJvwXJfuamRZf72d2ujCzfW+CJOXd3cdFzZB7NxO+s4pe6vv5Fs90UxqR7oAwlSAIpR0aeqejR9T0eqPjSa0ZU8ywbpVNng9Yvq9UXlFythr16mRzMZ49vD06fzyO1l0qdan04Rco6S6Ku+T7yvyOOmfst6PkXWE6cqr24pyXPb7nPzvC0qezsKzldvVtWXaScO2yzXieyIHaePTTw92tG/Q1sHltSrFyhbou1m7N6X0O1uRCuSUiJj4Vt8HKHQjnTq0pXalSlweq8Gt57UoWLbRo5ShbRLdOLOvl/tLOOlVe8XzLSXo/oRbcGL3hsWOP2vOO1q1Xj1/csuExcKkdqElJfVdTXArZ1yg9JIvqb4XR4oPUnPB1AAAAAAAAAABjKQByc6zZUo2Ws5bly62ScbHdr1fIgZ2aseOi3k+X5KpCNWtU41JS3v15Itm4VR8EZuMbcmzbeT/nyRYMBkEI61P6j5fhXdx7yttzZS2hsvuXuN2VXDez2n9v3/mx03StolZciE3qWqSS0RzPaDD7VHaW+Dv3PR/Z9xMwp8NmniVvatPHRxLnH06nKyLFqE5KTtGUW++OvlcmZlTnFNc1+pV9mZKpsak9mvQ1K9SVWpe13NpJfRI7wjGqGnREO2yeRa5dW9v0Rd8uwcaVNQXDVvm3vZS3WOybkzV41CorUF8/iRZpmcKMbvpSfww4v0R9oola9FyPGXlwx46vdvkis4jPsRJ6T2FyjFebuy0jh1RW61KCztPIm9np8DLDZ/Xi+k1UXJpJ9zR5nhVyW2x6q7Vvg/afEvP8osGFxMKsduHeuKfJlXbVKuXDI0OPkQvhxw/8Ic1wXvabS+KOse3l3nTGu7uevR8zjn43f1NLmuX4+ZWssxXu6ilwekl1fsWuRV3kNPoZ3CyHRapdOT+H7GWb4jbqyad1HorsXHxuecWvgrS6nrtC/vb21yWy+RZcqwrhRitza2n2vUq8mzjsbNFg091RGL5838zanFNbMkpJ8Gro4ptPVEmUYyWklqjj4/IIy6VJ7L+RvovsfAnU5zW0/qU+V2RGXtU7Pw6fscSjWq0Kl1eEo70+PU1xRYSjC2PiimhO3Gs22aLplOYxrQ2lpJaSjyfoU19Lqlo+RqMTLjkQ4lz6o3jiSwAAAAAAAeSYBrVZgFGxVWVWq3vc5WS77RXkX9cVXWl4GMuslfc5eL2/QueWZdGlBRWr/FLm/QpbrnbLVmqxcaOPDhXPq/E3lE5EkhqxANWok04vc00+8+ptPVHmUVJOL5MpeJouE3B/hdvRl/XNTipLqYu6p1WOD6Ha9lcFeTrNaQ0j2tavuXmQ863RcC6lr2Rj8Una+nL4ljq1CrNCUnNsQ51pN8G4rsWn87S8xoKFaRkM6123yfhsvkaZ3IgAOr7OV3Gts8Kiaa60rp+fiRM2ClXr4Fl2Va4X8PSRZpaFOagq2e4XYqbSWk9e/j695cYdvHDR80ZftTH7q3iXKXr1/JHk2E97WjHgulLsXrou865Fnd1tkfCo765R6c38EXtxKI2BFOmAQNWANPN8Aq1N6dOKbi/+r6iTjXuuXkyBn4ivr1XvLl+Cv5BinCvDlNqDX+W762LLKr4635FD2fc674+D2fz/AHL0UhrQAAAAAAAR1ADVkAUqpGVKrbjTlp3O6+xfxashr4oxc4yot06xfoXvA4uNWCnF6PhxT4plHZW65cLNdRfG6CnE2DwdiOogDSq6a8gtz43otWUzG19upKfN6dm5fQv6q+7gomMybndbKfj6Hc9lcb8VF9co/wDZffxIWdVymvmW/Y+RzpfxX6nYrMrS9KZmFJxqyXW2ux6ovqJ8VaZjsyt13yi/H13Nc6kYAHV9m6DliE+EE5PwsvMi5kuGprxLDsutzyE/DctFZFMaoq+f4ransLdDf/k9/h6lthVcMOJ9fQzXa2Rx2d2uUfUjyHF+7rxb3S6Mux7n42O2TXx1tEbs+/ur0+j2fzL0UZrjxoAgrRAOdmONVKDfF3UVzfojtRU7J6dOpEzMmNFbb5vkVvJMO514Lk1J9kdfRd5b5E1GtszeDU7L4rwev0L6URrwAAAAAAAYTQBqzQBy86yz3q24fHFbvmXLtJmLk92+GXL0KvtHB79ccPeX3/c4GBxtWhNuOnCUHuduDXMsrKoWx3KGjItxp6x+aZbMtzylVsr+7n8rfk+JVXYs69+aNHjdo1XbPZ+DN+qyMTzh5/iNmk1xn0fX6ErDr4rF5Ff2nd3dDS5vb8/Y42SYFVajUvhUXftei9e4sMq51xTXMo+z8VX2NS5Jf+fn5Gt06NXlKnLy+zXmdfZth5Mj+3j2+cX/AD6lvpVlUgpx3SXhzRR2QcJOLNfTbG2CnHqaGZ5cqiutJLc/sztj5DqfkRc7BWQtVtJfzQ4FXAVYuzpy7UrrxRaxvrlyaM7Zh31vSUX8t/QkwuVVqjsoOK+aS2V9TzPJrhzf0PVOBfa9o6eb2LblmXxoQ2Vq3rKXN+hU33O2WrNLiYkceHCufVkGbYtU4OXHdFdbFFXeTURmZCoqc+vT4lWwGGdWqo83eT6uL/nMuLrFVDX6GYxqZZFyj48/1M83wvu60orRPWPY/wCNdx8x7O8rTfM9Z1Hc3OK5c18GXHKMV7yjCfG1n2rR/wA6yovr4LGjS4d3fUxl16/FG3KRxJRw8zz2nC8Yf1JdXwrtfHuJlOHOe8tkVmV2pVVtD2n9vr+CtVJ1K1TjOUtEl5JcEWcYwqjtsjPznbk2b7tlwyPK1RhrrOXxPl+VdRU5N/ey25GkwcNY8N/efP8AB0yMTwAAAAAAAeMAiqQAIGrAGlj8up1dZLZlwmt/fzR3pyJ1cuXgQ8rBqyN3s/FfzcruNyirT1ttx+aOvit6LSrKrs66Mz2R2fdTvpqvFHmFzatDRT2l8stV6o+2Y1c+a+h8oz76toy1Xg9zzMswdXZvHZ2U9E73b4nyjHVWuj5n3MzZZPDqtNDqeztalGDvOKlJ7m7Oy0W/v8SJmxnKWyeiLLsmymFbTklJsz9osFtRVaOrirStxjwfcMK7hfdy+R97VxuOPfQ6c/h4/I0/Z3HbE/dSfRm9Hyl++7wO2ZTxx4lzXoROy8vu593Lk/s/3LPKiVJpT2NEAmjGwBHVmAUzOcb7ypp8MdI9fNl1i093DfmzJ9oZXf27e6uX5OzkuDVKntz6Mp2bvpZcF9yDlWuyfDHki57Ox1RVxz2b+yNP2krUp7DjOMpRumk76b19fMkYUZx1UlsQe1rKrOFwkm14GtlmczowlBRUru6bei0s9OPA7XYytkm2RcXPljwcUtdfsQYzMq1XSU3Z/hWi8Fv7z3XRXXyRxvzLrtpy28FyJ8DklWpq17uPNrXuj6nO3LhDZbskY/Zl1u8vZXn+C05bltOkuitXvk97/nIq7b52v2jQY2JXjrSC38epvnIkgAAAAAAAAAA8aAMJQAIJUwDB3QBo4rAUp/FBX+ZaP6bztXkWQ5Mi3YVF28o7+K2ZVK8UpyUdUm0uejsXcG3FNmTtio2OMeSbNqtlFeP4Nr/Fp/TecY5dT6kqfZuTH/rr8DWcJx3qUO5o7KUJcmmRXCyvmmvqiI9HI6UM9xK095e3OMX9bEZ4lL6E+PaWSv8At9l+CRe0WI5x/wCCPn9FUe/9VyfFfQP2ixHzR/4If0VXgP8AVcnxX0Netm1eSac9Ho0oxXkj3HFqi9UjlZ2hkTTi5bP4Gjc7kImjRqT3RlPrs39Tw5whzaR2VVtr2Tf1ZOsqrbLk47KSb1avor7jl/VVapJkj/TsjhcnHRLxIsvoxnVjCV7SdtN+7Q6XScIOUeaOOLXGy6MJ8mXHB5ZSh8MEn829+LKWy6c/eZq6cSmn3I/Pr9TejA5EgzSAPQAAAAAAAAAAAAAAeNAEVWIBp1tE3yTfgj7FatI8zlwxbKdgIbVWC5zj53ZfWvhrb8jHY0eO6KfVou0qZQGzI5QANTG4OFSLi0k+Erapnaq6VctSLk4ld0HFrfxKrUpyhPZktYvc9U/VF1GSnHVPmZOcJU2cMluv59CxYLD4arDaVKKfGOujKu6y+qWjkaLGoxMiHHGC814EOZ08PSjf3cXJ/CtfF67j3jyutl7z06nPNrxcaGvAuJ8l+pxsFhZVZqEeO98EuLLC2xVx4mUePRK+xQj/AOFww2BjCKjGK042V31tlJO2U3q2a6rHrqioxXImlTOZ2I1C+nMJ6HxrVaFLovYqr8k19JfsaCXtQfmjFwfd2ryfoz6IkZ82p6AAAAAAAAAAAAAAAAAAARVWAc/Hv+lUf5J/pZ0p/uR+KOGU9KJvyfoVnII3xNPtf6WXGV/akZjs5f8AJh/OjLzslGa4wnTANWcADn5tlqqxutJx3PmuTJWNkd09HyK/PwlkR4o+8vv5FcwmJnSndaNaSi+PUy0trjbHRmdx77MazVfNHk5VK1T5pSdkl5LkkfYxhTDwSPk5WZNuvNsuWUZZGjC2+T1lLr5LqRT33u2WvToafDxI48NOr5v+dDf2TgTDCogDW4gFJx6tVqf5z/Uy/p3hH4IxeStLp/F+p9CpvRdiKF8zZxeqRkfD6AAAAAAAAAAAAAAAAAAQ1gDSxcL05rnGS+jPdT0mn5o45EeKqS8n6FVyOdsRTf5reKa+5dZK1qkZXAlpkQfn6l9KI2B4wCGrEA5OZZjGkucnuj93yRIox5Wvy8SFl5sMdb7y6IrE5Tq1L22pSe5It0o1Q05JGYlKzIt15yfgZ4PFTo1NpKzV04teKfI+WVxtho+R6pusxrOJc1zT9C6ZZmVOtG8XZrfB716rrKe6iVT0ZqMXLryI6x59UbpxJRhUANTiAUjEvaqSt+Kcrd8tDQQXDBa+Birnx2y06t+p9EirJLkUDNolotD0+H0AAAAAAAAAAAAAAAAAAiqoA1lvAKXi6TpVXFaOErxfVe8X5F/XJWVp+JjL63Rc4+D2/QvGXY6FWCnF68Y8U+KZS21OuWjNXjZEL4KUfmvAyxOMpwV5zUe1/bieYVyntFanuy6utazkkV3MvaK/RpK352vJepPpwetn0KbK7X19mn6v9F+Tj4XC1K0uinJ8ZPcutsmWWQqjuVdNFuTP2d31b/Vlny/Lo0lprJ75fZckVF+RK178vA02JhQx47bvqzzM8shWV/hmt0ufVLmeqMmVW3NHjMwIZC15S8fyVmrSq0Z63hJbpJ7+tPii2jKFsdt0ZudduNZvszvZb7TL4ays/wC5Fad8eHcQbcF86/oW+N2uvduXzX4O3DFU5q8JxkuppkGUJR2ktC4rursWsGmczNsdGnB69JpqK49vYjrj0uya8CNnZUaK3v7T5FfyPDe8rwXCL2n2R187LvLTJnwVtmdwKe9viui3fyL4UZrwAAAAAAAAAAAAAAAAAAAYTQBqzQBzc4y1VkpKynHc+DXJkrGye6ej5Fdn4KyFxR2kvv5Fbq4OrB6wknzSfmi1jbXJbNGdnjXVveLX88Ue0sBWm9Kcn1tW+rPkr6482j7DEvsfswf8+J18D7ON61Zf6R+8vQh253SC+bLTH7H63P5L8/j6ljw+GjCOzGKilwSK+UnJ6yZd11xrjwwWiMp0zyeyGUACGvSjOOzOKkuT+3I9QnKD1iznbVC2PDNao4eM9n3vpSv+WW/uZY1Zy5TX0KS/seS3qfyf5OVVwFWL1pyXWlf6olxvrlykisniXwftQf0/Bnh8trTdo05drVl4sTvrit2fa8O+x6Ri/nt6lvyXK1Rjv2pS+KX2XUVORe7X5GkwsNY8PFvmzokcmgAAAAAAAAAAAAAAAAAAAMAinAAhdMAKmAZxpAE0YgGQAAMJRAIpUgDB0wBGmATwgASAAAAAAAAAAAAAAAAAAAAAAAAAHmyALAHoAAAAAAAAPLACwB6AAAAAAAAAAAAAAAAAAAAAAAAAAAAAAAAAAAAAAAAAAAAAAAAAAAAAAAAAAAAAAAAAAAAAAAAAAAAAAAAAAAAAAAAAAAAAAAAAAAAAAAAAAAAAAAAAAAAAAAAAAAAAAAAAAAAAAAAAAAAAAAAAAAAAAAAAAAAAAAAAAAAAAAAAAAAAAAAAAAAAAD//2Q==;" vertex="1" parent="1">
          <mxGeometry x="236.57000000000002" y="157" width="42.43" height="43" as="geometry" />
        </mxCell>
        <mxCell id="oIqmAePt7HCqJZuFYAqL-67" value="" style="edgeStyle=orthogonalEdgeStyle;rounded=0;orthogonalLoop=1;jettySize=auto;html=1;" edge="1" parent="1" source="oIqmAePt7HCqJZuFYAqL-5" target="oIqmAePt7HCqJZuFYAqL-15">
          <mxGeometry relative="1" as="geometry">
            <Array as="points">
              <mxPoint x="361" y="701" />
              <mxPoint x="440" y="701" />
            </Array>
          </mxGeometry>
        </mxCell>
        <mxCell id="oIqmAePt7HCqJZuFYAqL-5" value="Back-Users" style="rounded=0;whiteSpace=wrap;html=1;" vertex="1" parent="1">
          <mxGeometry x="280.57" y="760" width="160" height="80" as="geometry" />
        </mxCell>
        <mxCell id="oIqmAePt7HCqJZuFYAqL-6" value="" style="shape=image;verticalLabelPosition=bottom;labelBackgroundColor=default;verticalAlign=top;aspect=fixed;imageAspect=0;image=data:image/png,iVBORw0KGgoAAAANSUhEUgAAAOEAAADhCAMAAAAJbSJIAAAAclBMVEX///9ssz5qsjtnsTZlsDG726rY6817u1Pw9+uezIJpsjlksDHc7dL8/vt3uU3s9eZ/vVn1+vLk8d2y153g79f0+vHL5L2RxnKMw2uayn2WyHil0IygzYV8u1SHwWTC37Kw1prJ47tytkbQ5sSq0pO626bNRxEoAAAJRUlEQVR4nO2dbXvyLAyGV2DqjX3Rrr5Mp87q/v9ffGqdE2pJoJbi8Rw5P7vJ1UISQohvbwRBEARBEARBEARBEARBEARBEARBEARBEARBEATxvyWJD+/PcSyS0CIAivOYial4hilns488tBAD+WckWPQ8TETbV9SYfES8B3lXjbx8f7m5mq16eX9/GsXnIrQknXzW2wv8RewnoUWpZL0LjCK+f6G3mKz6FxhF06/Quu4cph4EVhP1FFrYjUnap5G5I2fz0NJ+OQsvAquX+BNa2pXCzxusYGUWWtyFZOPDzFzh29DqLix9zdFaYhxa3tvbfCY9KpTr8NHbjx9PcUMcQwvMSm92pobtQkc2Xz5X4YXpR1iBsc9FWMOioHvFZO3PU9zg/0IqPPqeo7XEUTiBi52rmWGSOVsmuQ/nMT4cX6Hk6Xo1Y64zWxxCCcwdPQXfLSvTn4xcd5MsDbXd/3QbKV//DjQ5O0oU5zACR26egqV/GwXXYJ1FRQiByd5NobrZc91w8U0IhQdXM6N4btenE/EACQ3X1AUbq+bCcQlXHmP4hAaeutCfANupCv9pChnuJMX70ALzCB4UE7Jkahpcf4eqQibKcSmQaavYqYFArCFPf4o8PyiJYqNCvjvkWXbCIlwxcELjBI9HrK5mZXJ/ECaFNy+ZfHNkVgzqMeDUBRPnWyS5+PugQaEy+5YROFP5akiF75CZYVzxfMtbksOgUP1snMISl4Ppg1MXjKuBcnZzKgaFQt3fFmNo8g+ZAt8CA9EFVtMUVsi0oDofQ29xuBR4AQ1DF4i/Q91+FCXwvwdLgYNnaeJb//DptmJN67CRaBpJYAHwgc7boCS3+NT348kataWNRBMY7g6TAoc8BZvp2c1ki/vDfWPqbQGJw6TAf8wjYEx/xtnKJqYZ6380h/YdQyQ0IE/RMHbFTo0+jXGpZPqwY2ApstR/CvzLbGYaSbGR5sDNCvUQoeIbsGT827fAGPh2qSU2Y93wAworidreaDEGXiLznAK/28aWx6slp/NGCAYprCRqERlkT/mnX4VH81mafsCwaFbYgAqrV6N6/mQPOUWvCQ0oya2743/N1wArrIJO1YRALpd5TYF/Q9NHfYWPBxqIQn2HG8xjQKkLLeGXPaapMIX6AQy0PWOlvxQ4lCHTbEVLXIIq1HzNBNqfcW8p8BG0aUqVzVtbwhdVqM8+wO1WD8NTQgNcHNpzbRserlDb4YKJIL7xY2zeoaoLqdjwrC39iSuMuFJ3MQfPtYSXhAaY5NbixY+24dsoVF5N0vqJG34SGmCSWyqJsPbZbKEw4spGCj4W8ZHQKMDM+1QJLIvWsdkoVFP3MSTQR0IDOfJTnVn7BtJGoVzdp+kcPvnpv6YPTnKzUgloVq0m10ahdjixhlPgsueEBlKfx5SVP2nf+9go1DJvUMoyupwG9OsxgNRF/UDX948WhodgpfBg/ZU9e4y/vK7pgSqbtlH7yKwUqnHDEil6ZL2+xBPybeq6N9RJ2SlUnxR2TMz7jN2QNaHldQ2zy0ohU2Y7WhQoeqxaRAsLVAdsyCNZKZT7+0fQeg3Z43Fby3avoVBx1SaFwDn+/UOz+9pCFbIeQzeDeVQUWrxDLQpp95naHhFX2OPRfox9mcU6jKZK2GPwmZrXQb9UCzOeVYgtetXKm0JmNc1h+oxUPoPa0j4VorNUzbOdTJ76frJoLGpUvQ7moXqdpWiZpWrWjJsCxn6vvo52pjmhrmf0QpxunZ9jgtUCqzbQvFNmYv0+io+fzDjp1bWKlmiqruVpDKbvPnbLTYHkF8z/RrW32Hf2eyKMRcHaXgY6OoJRQ80EOJ65Mu0z9M7RCEpJIsWd7wmpJhkrnOt7m48V9aozBtuImBHKTDiigXe/u/wC+T62U7YyrmXcN7SsN/ZPer9Lg+0uIuXx5x0Vqr4iwcx3s0zlabA7atroXCuAr2gnLtikkePeD/SxPIY6w7rd99L2e5hB9nAvEbsrqu24u7xE7d7IHEub+CisMcabv9+pmjbU1LcwVY+esKC071xiDdIaQj+3dL87y1fqW0ECGk8FbnBeX19GzhcT9a0QspC9FSnCLkq/f9UsNsHgmuVAAgxvhabIJRL9xu7I6aLhVBszcqPKY7EwWN7d3HMfkdp7TaAegSFT3GPBN1jJ81CudLCWKLaa7UduVHkt2kdyJ42jhKWdz2DiWxOIhE+er+rBrrx52TPeWVhUyfQrTVjM5/nyDOLKm0US2QbrAMbErHFVGyyIGODKLFT3FT2eJSSHFFyNnJ0bETRmg71fYoNqP+shN+3c5ByZNDLON83oK0P8KPN/ERExdCx66A+Qn9NpS2GzFNHm4bOLPZZM8H+ZFIvHZPkYFE8Oq5Lz+/Rjkoto39IAcoEFe77rZ2uwK9wybevykC3P6zRiTF6aKpT7r0NbE09U4EBtQMCiusswyvaZlCRZfDotT6N83r65m6DhevNGjifQpjsy6lTjWqCtCfvM44Ogmz8mzu4Wbwld6royHapBhkXzK7F2XDCLLR7FDtgWy6KBGS8PLsMZ2TTPHLC1mU2vSybW1gPKttCdvD+BQ/bCRE+gL0j5ZTVVJz+pTcpj4BaD0BU65amzLfoes4/Urj/vwG0iLdu0MS7XR+DRz09fxqi1weCtPpE9jjIynn4e8xark2Sj7Uza5wEGvKteAxbu6zA+rcK09zibzJOa+WJSHKsgTjhkcvR06iAgKfCGyCrUnrJ0v15tNpvVfhwJwd2afvVapmdHh7alTFZKuZQdOpoFaWSau4+zM4Ga0XprH/zI8P13any1gH4kWFNo115YnQnRB6vGuWNXV4GeLnJZYCha7xnv17chwOtXfeHvQqUFWYfTbFfC9YWsce3v2YFwvT1rsBT484Tsz1rjvc9uyB67Vzz3Sh4kyQ3jt9914F7XV7AU+FMMlOSG8dl3XgbvOV+Dlkh3J/zvBtT4+/0HL/V5XVj6Wole6vM64eXnnqo5+jo/+NSl2BJn+LazAHA5WEeBQ3bzxPnu9ZfzrgLD5GaMfDhkd22Q8sUEViF42aO5YWIXPOB+JPtnfwiB6ONs+1I/fvhHvCmFzVEnIk+UX0F+KMCK/H1VsudIN4cXchJtTOLRMxSvOT0JgiAIgiAIgiAIgiAIgiAIgiAIgiAIgiAIgiAIoif+A4XTjeZDjBJVAAAAAElFTkSuQmCC;" vertex="1" parent="1">
          <mxGeometry x="400.57" y="800" width="40" height="40" as="geometry" />
        </mxCell>
        <mxCell id="oIqmAePt7HCqJZuFYAqL-69" value="" style="edgeStyle=orthogonalEdgeStyle;rounded=0;orthogonalLoop=1;jettySize=auto;html=1;entryX=0.189;entryY=1.006;entryDx=0;entryDy=0;entryPerimeter=0;" edge="1" parent="1" source="oIqmAePt7HCqJZuFYAqL-7" target="oIqmAePt7HCqJZuFYAqL-24">
          <mxGeometry relative="1" as="geometry">
            <Array as="points">
              <mxPoint x="462" y="390" />
              <mxPoint x="462" y="390" />
            </Array>
          </mxGeometry>
        </mxCell>
        <mxCell id="oIqmAePt7HCqJZuFYAqL-70" value="" style="edgeStyle=orthogonalEdgeStyle;rounded=0;orthogonalLoop=1;jettySize=auto;html=1;" edge="1" parent="1" source="oIqmAePt7HCqJZuFYAqL-7" target="oIqmAePt7HCqJZuFYAqL-15">
          <mxGeometry relative="1" as="geometry" />
        </mxCell>
        <mxCell id="oIqmAePt7HCqJZuFYAqL-7" value="Back-Person&lt;span style=&quot;background-color: transparent; color: light-dark(rgb(0, 0, 0), rgb(255, 255, 255));&quot;&gt;s&lt;/span&gt;" style="rounded=0;whiteSpace=wrap;html=1;" vertex="1" parent="1">
          <mxGeometry x="398.14" y="402.5" width="160" height="80" as="geometry" />
        </mxCell>
        <mxCell id="oIqmAePt7HCqJZuFYAqL-8" value="" style="shape=image;verticalLabelPosition=bottom;labelBackgroundColor=default;verticalAlign=top;aspect=fixed;imageAspect=0;image=data:image/png,iVBORw0KGgoAAAANSUhEUgAAAOEAAADhCAMAAAAJbSJIAAAAclBMVEX///9ssz5qsjtnsTZlsDG726rY6817u1Pw9+uezIJpsjlksDHc7dL8/vt3uU3s9eZ/vVn1+vLk8d2y153g79f0+vHL5L2RxnKMw2uayn2WyHil0IygzYV8u1SHwWTC37Kw1prJ47tytkbQ5sSq0pO626bNRxEoAAAJRUlEQVR4nO2dbXvyLAyGV2DqjX3Rrr5Mp87q/v9ffGqdE2pJoJbi8Rw5P7vJ1UISQohvbwRBEARBEARBEARBEARBEARBEARBEARBEARBEATxvyWJD+/PcSyS0CIAivOYial4hilns488tBAD+WckWPQ8TETbV9SYfES8B3lXjbx8f7m5mq16eX9/GsXnIrQknXzW2wv8RewnoUWpZL0LjCK+f6G3mKz6FxhF06/Quu4cph4EVhP1FFrYjUnap5G5I2fz0NJ+OQsvAquX+BNa2pXCzxusYGUWWtyFZOPDzFzh29DqLix9zdFaYhxa3tvbfCY9KpTr8NHbjx9PcUMcQwvMSm92pobtQkc2Xz5X4YXpR1iBsc9FWMOioHvFZO3PU9zg/0IqPPqeo7XEUTiBi52rmWGSOVsmuQ/nMT4cX6Hk6Xo1Y64zWxxCCcwdPQXfLSvTn4xcd5MsDbXd/3QbKV//DjQ5O0oU5zACR26egqV/GwXXYJ1FRQiByd5NobrZc91w8U0IhQdXM6N4btenE/EACQ3X1AUbq+bCcQlXHmP4hAaeutCfANupCv9pChnuJMX70ALzCB4UE7Jkahpcf4eqQibKcSmQaavYqYFArCFPf4o8PyiJYqNCvjvkWXbCIlwxcELjBI9HrK5mZXJ/ECaFNy+ZfHNkVgzqMeDUBRPnWyS5+PugQaEy+5YROFP5akiF75CZYVzxfMtbksOgUP1snMISl4Ppg1MXjKuBcnZzKgaFQt3fFmNo8g+ZAt8CA9EFVtMUVsi0oDofQ29xuBR4AQ1DF4i/Q91+FCXwvwdLgYNnaeJb//DptmJN67CRaBpJYAHwgc7boCS3+NT348kataWNRBMY7g6TAoc8BZvp2c1ki/vDfWPqbQGJw6TAf8wjYEx/xtnKJqYZ6380h/YdQyQ0IE/RMHbFTo0+jXGpZPqwY2ApstR/CvzLbGYaSbGR5sDNCvUQoeIbsGT827fAGPh2qSU2Y93wAworidreaDEGXiLznAK/28aWx6slp/NGCAYprCRqERlkT/mnX4VH81mafsCwaFbYgAqrV6N6/mQPOUWvCQ0oya2743/N1wArrIJO1YRALpd5TYF/Q9NHfYWPBxqIQn2HG8xjQKkLLeGXPaapMIX6AQy0PWOlvxQ4lCHTbEVLXIIq1HzNBNqfcW8p8BG0aUqVzVtbwhdVqM8+wO1WD8NTQgNcHNpzbRserlDb4YKJIL7xY2zeoaoLqdjwrC39iSuMuFJ3MQfPtYSXhAaY5NbixY+24dsoVF5N0vqJG34SGmCSWyqJsPbZbKEw4spGCj4W8ZHQKMDM+1QJLIvWsdkoVFP3MSTQR0IDOfJTnVn7BtJGoVzdp+kcPvnpv6YPTnKzUgloVq0m10ahdjixhlPgsueEBlKfx5SVP2nf+9go1DJvUMoyupwG9OsxgNRF/UDX948WhodgpfBg/ZU9e4y/vK7pgSqbtlH7yKwUqnHDEil6ZL2+xBPybeq6N9RJ2SlUnxR2TMz7jN2QNaHldQ2zy0ohU2Y7WhQoeqxaRAsLVAdsyCNZKZT7+0fQeg3Z43Fby3avoVBx1SaFwDn+/UOz+9pCFbIeQzeDeVQUWrxDLQpp95naHhFX2OPRfox9mcU6jKZK2GPwmZrXQb9UCzOeVYgtetXKm0JmNc1h+oxUPoPa0j4VorNUzbOdTJ76frJoLGpUvQ7moXqdpWiZpWrWjJsCxn6vvo52pjmhrmf0QpxunZ9jgtUCqzbQvFNmYv0+io+fzDjp1bWKlmiqruVpDKbvPnbLTYHkF8z/RrW32Hf2eyKMRcHaXgY6OoJRQ80EOJ65Mu0z9M7RCEpJIsWd7wmpJhkrnOt7m48V9aozBtuImBHKTDiigXe/u/wC+T62U7YyrmXcN7SsN/ZPer9Lg+0uIuXx5x0Vqr4iwcx3s0zlabA7atroXCuAr2gnLtikkePeD/SxPIY6w7rd99L2e5hB9nAvEbsrqu24u7xE7d7IHEub+CisMcabv9+pmjbU1LcwVY+esKC071xiDdIaQj+3dL87y1fqW0ECGk8FbnBeX19GzhcT9a0QspC9FSnCLkq/f9UsNsHgmuVAAgxvhabIJRL9xu7I6aLhVBszcqPKY7EwWN7d3HMfkdp7TaAegSFT3GPBN1jJ81CudLCWKLaa7UduVHkt2kdyJ42jhKWdz2DiWxOIhE+er+rBrrx52TPeWVhUyfQrTVjM5/nyDOLKm0US2QbrAMbErHFVGyyIGODKLFT3FT2eJSSHFFyNnJ0bETRmg71fYoNqP+shN+3c5ByZNDLON83oK0P8KPN/ERExdCx66A+Qn9NpS2GzFNHm4bOLPZZM8H+ZFIvHZPkYFE8Oq5Lz+/Rjkoto39IAcoEFe77rZ2uwK9wybevykC3P6zRiTF6aKpT7r0NbE09U4EBtQMCiusswyvaZlCRZfDotT6N83r65m6DhevNGjifQpjsy6lTjWqCtCfvM44Ogmz8mzu4Wbwld6royHapBhkXzK7F2XDCLLR7FDtgWy6KBGS8PLsMZ2TTPHLC1mU2vSybW1gPKttCdvD+BQ/bCRE+gL0j5ZTVVJz+pTcpj4BaD0BU65amzLfoes4/Urj/vwG0iLdu0MS7XR+DRz09fxqi1weCtPpE9jjIynn4e8xark2Sj7Uza5wEGvKteAxbu6zA+rcK09zibzJOa+WJSHKsgTjhkcvR06iAgKfCGyCrUnrJ0v15tNpvVfhwJwd2afvVapmdHh7alTFZKuZQdOpoFaWSau4+zM4Ga0XprH/zI8P13any1gH4kWFNo115YnQnRB6vGuWNXV4GeLnJZYCha7xnv17chwOtXfeHvQqUFWYfTbFfC9YWsce3v2YFwvT1rsBT484Tsz1rjvc9uyB67Vzz3Sh4kyQ3jt9914F7XV7AU+FMMlOSG8dl3XgbvOV+Dlkh3J/zvBtT4+/0HL/V5XVj6Wole6vM64eXnnqo5+jo/+NSl2BJn+LazAHA5WEeBQ3bzxPnu9ZfzrgLD5GaMfDhkd22Q8sUEViF42aO5YWIXPOB+JPtnfwiB6ONs+1I/fvhHvCmFzVEnIk+UX0F+KMCK/H1VsudIN4cXchJtTOLRMxSvOT0JgiAIgiAIgiAIgiAIgiAIgiAIgiAIgiAIgiAIoif+A4XTjeZDjBJVAAAAAElFTkSuQmCC;" vertex="1" parent="1">
          <mxGeometry x="518.1399999999999" y="442.5" width="40" height="40" as="geometry" />
        </mxCell>
        <mxCell id="oIqmAePt7HCqJZuFYAqL-9" value="Back-Files" style="rounded=0;whiteSpace=wrap;html=1;" vertex="1" parent="1">
          <mxGeometry x="1080" y="520" width="160" height="80" as="geometry" />
        </mxCell>
        <mxCell id="oIqmAePt7HCqJZuFYAqL-11" value="Back-Logs" style="rounded=0;whiteSpace=wrap;html=1;" vertex="1" parent="1">
          <mxGeometry x="1320" y="520" width="160" height="80" as="geometry" />
        </mxCell>
        <mxCell id="oIqmAePt7HCqJZuFYAqL-13" value="" style="shape=image;verticalLabelPosition=bottom;labelBackgroundColor=default;verticalAlign=top;aspect=fixed;imageAspect=0;image=data:image/jpeg,/9j/4AAQSkZJRgABAQAAAQABAAD/2wCEAAkGBxANDw0OEA0PDQ8PEBAOEA8NDxAPDQ0NFxEWFhYRFRgaHiggGBolGxMVITEhJykvLjEuFx8zOTMuNyk5LjcBCgoKDg0OGxAQGCsmHSUtMistKy0zLy8rLS4rKysrLS0tLSsyNy0tLS0vLS0rLS0tMjcrLS0tLSstLS0tLS0tLf/AABEIAOsA1gMBEQACEQEDEQH/xAAcAAEAAgMBAQEAAAAAAAAAAAAAAQIEBQYHAwj/xABMEAACAQIBBQkJDAgHAQAAAAAAAQIDEQQFBhIhMRNBUVRhcYGRsQcUIjJSoaLB0RczU2JjcnOTlLPS4xUkNIKSsuHwFiM1QoPC8SX/xAAaAQEBAAMBAQAAAAAAAAAAAAAAAQIEBQMG/8QAOhEBAAECAgQLBwMDBQAAAAAAAAECAwQREiExUgUTFDJBUWFxgaGxM2KRwdHh8BU0oiJCUyMkY3Lx/9oADAMBAAIRAxEAPwD3EAAAAAAADR5azpw2Dbg5OrVW2nSs3F/GeyPNt5D3t4euvX0PC5iKKNXS5TG5+4id1SpUqK5b1J9epeY26cHRG2c2pVjK52Rk02IzlxtTxsXVX0dqf8qR6xYtx/a8Zv3J/uYFXKFeXjYitL51Wcu1npFFMdEMNOrrljTm3tbfO2ypmqptbG1zOwH0hj60fFr1o/Nqzj2Mx0aZ6IZadXXLLoZyY2n4uMr/AL890/nuYTZtz/bDOL1yNlUtxk/uhYum0qsaeJjv3W5VH0x1eieVWEonZqetOLrjbrdzkDObDY9WpycKqV3RqWVRLhW9Jcq6bGlcs1W9uxu271NzZtbo8nqAAAAAAAAAAAAAAAAAHM58ZclhKUaVKWjVrX8JbadNbZLgbukungNrDWorqznZDVxV2aKco2y8ybOm5jNwWRsTiI6dLD1KkfKStF8zdk+g86rtFOqZelNquqM4hh4vDVKMnCrTnSmtejOLi7cK4VymVNUVRnEsaqZpnKYfBsyYqtkVVsCrYFWFVYE06soSjOEnCcWpRlF2lGS3094kxnqkictcPXcyM5f0hScalliKNlUtqVSL2VEujWt586OZfs8XOrY6li9xka9sOlNd7gAAAAAAAAAAAAAAADy/ugVtLHTj8HTpw8zn/wBzqYSMrbl4uc7jXZs4COKxdCjPXBtymuGEYuWj02S6T0vV6FEzDzs0adcRL2CEVFKKSSSSSSsklsSOO7DS545MhicHWulp0oSrU5f7oyirtczSs/6Hth65prjteOIoiuiex4+2dZyVWwKtgVYVVgVbIKtgbnM3KDw2Pws09U5qhNcMKjUdfIpOL/dPK/TpW5+L1s1aNyJ8Pi9uOS6wAAAAAAAAAAAAAAAA8nz4f/0MT/xfcwOthvZR+dLk4n2s/nQ12RMovCYijXS0lCXhRW2UGnGSXLZvpsZ3KNOmaWFuvQqip7Bk/H0sTBVKNSNSL8l64vga2p8jORVRVTOUw69NdNUZxLns+M4aVChVw0JqderF03GLvuUJK0pS4HZuy26zYw9maqoqnZDXxN6KaZpjbLyxs6TmqtgVbCqsCGwKtkFWwr75Mf6xhvp6P3kTGvmz3LRzo736BOM7IAAAAAAAAAAAAAAAA8mz5/1DE/8AF9zA62G9lH50uTifaz+dDQNnu8FbkVQCrYFWwqGBVsCrZBVsKq2B98mP9Yw309H7yJjXzZ7lo50d79BnGdkAAAAAAAAAAAAAAAAcjl3Mp4zEVcR30qe6aHgbjp6OjCMdumr+LwG3axWhTFOTUu4XTqmrS8mv9zh8eX2b8w9OW+75/Z58i97y+6Pc3fHl9m/MJy33fP7HIve8vuj3NXx9fZvzBy33fP7HIve8vuj3NHx9fZvzBy33fP7LyL3vL7o9zN8fX2b8wct93z+xyOd7y+7g8bQ3KrWpX0tyqVKela2loycb23thuUznES06oymYY7ZUVbAq2FVbAyMlv9Yw309H7yJjXzZ7mVHOjvfoQ4zsAAAAAAAAAABWpUUE5Skoxim3KTSjFcLe8WIz2JM5bXI5Wz7pU244em67WrdJNwpX5N+Xm5zbt4OqddU5NS5jKY1Uxm53EZ646eypTpclOlFr0rmxGFtx0NacVcnpY7zwyhxp/VUPwGXJrW76pym7veiHnhlDjT+pofgHJrW76nKbu96KvPHKHG39TQ/AOTWt31OU3d70Q88socbf1OH/AAE5Na3fU5Rd3vRV555R42/qcP8AgHJrW76nKLu96KvPTKPG39Th/wAA5Na3fVeUXd70Q89Mo8bf1OH/AADk1rd9TlF3e9EPPXKPHH9Th/wDk9rd9TlF3e9Ghr1pVJTnJ3lOUpydkryk7t2Wraz2iMoyh5TOc5y+TYRVsKo2BVsDIyX+0Yb6ej95Exr5s9zKnnR3vf8AGVHGN07O6PmcfdrtWtKicpzdy1TFVWUsLvqfleaPsONy/Eb/AJR9GzxVHUd9T8rzR9g5fiN/yj6HFUdS0cbNbbS51Y9KOE71POyn87GM2KZ2MyhiFPZqe+mdjDYyi/GrVPU8K7c0vsbTzAAACJNJNt2S1tvUkgPLs7M45Y2bpwbjhoPwVs3Vr/fL1L1nVsWItxnO1yr9+bk5Rsc6zYa6GwKtgUbAq2RVWwKtgVYVDAq2QVbAq2FVbAq2BVsDJyV+0Yb6ej95Exr5s9zKnnR3vfcf4nSj5XhP2HjDvWOc1x8820XAgipjNxaadmi0XKqKoqpnXBNMTGUtvQq6cVLr5GfV4e/F63FcfkufXTozk+h7sQABy/dAyk6OGVGLtPENwfDuS1z67xXNJm1hKNKvOehq4u5o0ZR0vNGdNzFWwKtgVbAq2RVWwKtgVYVVgVbIKtgVbCqtgVbAq2QQBlZK/aMN9PR+8iSvmz3MqedHe99yh4nSj5XhT2HjDvWOc1tz51touRUNkVFyDMyXU1yjwq65/wC+w6/BF7Kuq3PTr/Pzoa+Ip1RLZHfagAA8z7oeK08Yqd9VGlGNuCcryfmceo6eEpyt59bmYurO5l1OWbNpqqtgVbAq2RVWwKtgVbCqsCGyCjYFWwqrYFWwKtgQQANtmng3iMfgqa+GhUfzIPTl5ovrPO7Vo0TL0tU6VcQ9uylLwYrhd+pf1Pk+Fq8rdNPXPp/67uHjXMtc2cFtouYqi5FRcg+mFnozg+VLoer1mxg7mhfoq7fXUxuU50TDeH2DmgADxvOOvumMxc/lpxXNF6C80UdmzGVuI7HGvTncme1rGz0earYFWyKq2BVsCrYVVgQ2BVsgq2FVbAq2BVsCpAAAeqdzHNyWHhLG1ouNStHRpQkvChQum5PgcrLoS4bGhirsVTow38NayjSl02MracnbYtS9p8Xj8Rx13ONkaodm1Ro0se5pPVDZM1VuYqi5MxFyZq6GnK6T4UmfcW69OiKuuM3KmMpyWM0APDcTU0p1JeVOUuttnciMoycOqc5mXxbKirZFVbAo2BVsKhgVbAzMJkfFV0nSwtepF7JRpy0H+9a3nPOq5TTtlnTbqq2RLJeamUOJVfR9pjx9veZcRc3UPNTKHEqvo+0cfb3l4i5uqvNPKHEqvo+0cfb3jiLm6q80socRq+j7Rx9veOIubqP8I5R4jW9D2k4+3vHE3N0/wjlHiNb0PaOPt7xxNzdffC5j5RqtLvXc15VWpTjFc6TcupEnEW46VjD3J6Hb5s9z2lhpRrYmSxNWNpRglbD05cNnrm+V2XJvmrdxU1RlTqhtWsLFOurXLp8bi73jF879SPmcfwhExNu1PfPyj6upas9NTAucRtIuQQRUXJmqCKi5jmN7gnenT+al1aj7LAznhqO6HMvRlXL7m28wDwiorNrgbXUzuQ4cqNgVbAq2BVsKqwMzI+Sq2OqqjRjd7ZSeqFOPlSe8jC5ciiM5Z0W5rnKHqWQsz8LgUpyiq9Za3WrJWi/iR2R7eU5d/FTMZzOUOlaw1NPRnLdzxsVsu+bUjkV8KWadVOc/na3IsVSp3+vJfWjz/VqdyWXET1nf68l9aH6tTuScRPWd/ryX1ofq1O5JxE9Z3+vJfWh+rU7knET1nf68l9aJ+rUbknJ560fpBeS+tD9Xo3JOTz1qyyjwQ62edXDG7R8ZZRh+uWNWxMp7XZcC1I51/G3r2qqdXVGx7UWqadj4XNR6IuRVbkEGKhFVuQRcit7k73qHM+1n2HBv7Wju+bmX/aSyTeeQB4jlmlueJxUPJr1UubTdvMdq3OdET2OLcjKuY7WC2ZMVWwKtgVYVNKnKpKMIRcpzkoRitspt2SXSyTOUZyRGeqHtObuR6eTcMqas5u0q1RbalTk5FsSOLisTERNyrZDsWLOjEUxtWrVnN3ezeW8j5TEYmu/VnVs6I6nRooimNT5muzAAACLkEXIqGyKi5BVsxzVBFRcmaoIIuTNUNmKobIqrZB0WDjanTXxV2H22Cp0cPRHZHo5V2c65732Np5gHkmfuG3LH1nvVYwqrmcdF+lCR1cNVnbhysTTlclzjZ7vBVsCrYVDA6nubYFVsdujV1h6cqi4N0dox80pPoNbFVZUZdbZwtOdefU9MyhPWo8Gt858jwrdmaotx3u3Yp1ZsM5DYAAACCKi5BW5iqLkVFyCCKgioMVRcmYrciouRUXIqacdKUY+U0utmVuiblcUR0zl8UqnRiZdMlY+9iMoyhxklADge6lgtWGxKWxyoTfP4UOyfWb2Dq20+LRxlOyrwefNm80VWwqrAq2Qd73JF/mY5/FodtT2GnjNlPj8m5g9tXh83a4z3yXR2I+L4Qn/cVeHpDt2uZD4Gk9QCLkEXIqLkVFyCGyZqrcxVFyZiCKgiouRUXIIbMVVbIqCKzsj0tKppb0Ffpepes63A1jTv6c7KY851R82tiq8qMutvD6xzQABg5cybHGYeth5atOPgy8iotcZdDSM7dehVFTC5Rp0zS8RxVCdGc6VSLhOnJwlF70l/e07ETExnDkTExOUvgyohsCrZB33cj8fH/Nw/bVNPGbKfH5N3B7avD5u0xnvkujsR8Xwh+4q8PSHbtcyHxNJ6IuRUXIKtkVDZiqLkEEVFyZqgiouYiLkVVsiouQRcioIqCDocnYfc6aT8aXhS5HwH2fBuFnD2IirnTrn6eDlX7mnXq2Mo6DxAAADmM8M0449brTcaeJiraT8StHejO2x8D7d7YsX5t6p2Ne/Yi5rja8synk6vhJaFejOi72TkvAl82WyXQzo010166Zc6qiqjnQw2zJiq2B3/AHIvHx/zcP21TSxmynx+Tdwe2rw+btcb75Lo7EfF8IfuKvD0h27PMhjmi9UNkVFyCLkVFyKrcmYi5jmqLkVFyZiLkzVDZjmqGyZqi5MxBFEr6krvgWtsRE1TlGuSdTa5Oyc01OorW1xjy8LPouDeCqoqi7ejZsj5z9GlfxETGjT8W1PoWiAAAAABWcFJNNKSe1NXTAwZZEwjd3gsM3wuhSb7DPjK+uWHF0dUI/QOD4jhfs9L2Dja96Ti6N2GRhMn0KGk6NClR0raW5U4U9K17Xste19ZJqqq2ysU007IYeO98l0diPluEf3NXh6Q6FnmQx2zReqLkFbmOaoIqGyK21J0dGN9yvZXvo3vY+mtVYLi6dLQzyjqaNUXc5yz81tKh8l6B6aWA/4/4scr3b5mlQ+R9AmlgOu3/EyvdvmaVD5H0BpcH9dv+K5Xu3zRpYfho+gNPg/rt/xMr3b5ieH+R9ARVwfM5Rxf8TK92+b7d7U/g4fwxNnklj/HT8IefGV70ne1P4OH8MRyTD/46fhBxte9J3tT+Dh/DEckw/8Ajp+EHG170rwpqOyKjzJI9aLdFHNiI7mM1TO2VjNAAAAAAAAAAAAanHe+S6OxHy/CP7mrw9Ib1nmQxrmg9kXIIuRUEVBiqLkzFWyKi5FRciouYi1HxofOj2npZ9rT3x6pVzZdOffOMAAAAAAAAAAAAAAAANPj/fJdH8qPleEv3NXh6Q37HMhjXNB7IuTMQRUEVFyKi5BDZirIwWEdZvXaK2v1I3sDgasVVOvKmNs/KHldvRbjtZ8skwtqlJPhdmdirgOzNOVNU5+H0asYurPXENTiKLpycZbV1NcJ87icPXYuTbr2+va3qK4rpzhWj40PnR7TCx7Wnvj1Wvmy6g+/cYAAAAAAAAAAAAAAAAajKUbVHypP1eo+X4Vp0cRM9cRPy+Tfw850MS5zc3ugiouY5iLkVVsiouQRcit3kdrctW3Sd+f/AMsfWcDTTOG1bc5z/O7JzsVnxjOOq1mny41pQ4dF35r6vWfM8PTHGUR05T66vm38HnoywcLHSqU18aPVfWcnC0TXfopjrj1bNycqJnsdMfeOOAAAAAAAAAAAAAAAAMXH4fdI3XjR2cq4DncI4Sb9vOnnRs7ex7WbmhOvY0zPlZ1OircxEXIqGyKhsxVFyCCK++ExcqTutae2L2M3MHjbmFqzp1xO2PzZLyu2ouRrZ8ssK2qm78r1HXq4ep0f6aJz7Z1NaMHOeuWrrVXOTlJ3b/uxwL16u9XNdc65blNMUxlDZ5IwjX+bJb1ork8o73A2CmP9euP+v1+jTxV3P+iPFtT6FpAAAAAAAAAAAAAAAAABi4vBRqa14MuFbHznOxnB1vEf1Rqq6+vve9q/NGroaqvhJw2xuuGOtHzuIwN+zzqdXXGuPt4t2i7RVsljXNLN6ouRUEVBAAAfWjh51PFi3y73We9jC3r/ALOmZ7ej47GFdymjnS2mEyWo2lNqT8leKufhPoMHwNTbnTvTnPV0ff0aV3FTOqnU2R3GoAAAAAAAAAAAAAAAAAAAAA+NXC05+NBPl2PrRrXcHYu8+iO/p+Ma3pTdrp2Sxp5JpvY5R6U15zQr4Ew9XNmY/O17Ri6425Pi8jcFTrjf1mtVwDHRc8vuz5Z7osjfK+j/AFEcA9dzy+5yz3X0hkiC2yk+pI96OA7Ec6qqfh9GM4uvoiGTSwNKOyC55eF2m7a4Ow1vm0R46/V41X7lW2WQbryAAAAAAAAAAAAAAAAAAAAAAAAAAAAAAAAAAAAAAAAAAAAAAAAAAAABcCNICNMCNMBugDdAG6ATpgNICbgSAAAAAAAAAAAAAAAAAAKNgVbAo2BVsCNICNIBpANICykBKYF0wLJgXTAkAAAAAAAAAAAAAAABDiBRwAq4AVcAI0AI0AGgA0AJUALKAFlAC6iBYAAAAAAAAAAAAAAAAAAAACwEWAWAWAWAWAkAAAAAAAAAAAAAH//Z;" vertex="1" parent="1">
          <mxGeometry x="1206" y="562.6600000000001" width="34" height="37.34" as="geometry" />
        </mxCell>
        <mxCell id="oIqmAePt7HCqJZuFYAqL-14" value="" style="shape=image;verticalLabelPosition=bottom;labelBackgroundColor=default;verticalAlign=top;aspect=fixed;imageAspect=0;image=data:image/jpeg,/9j/4AAQSkZJRgABAQAAAQABAAD/2wCEAAkGBxANDw0OEA0PDQ8PEBAOEA8NDxAPDQ0NFxEWFhYRFRgaHiggGBolGxMVITEhJykvLjEuFx8zOTMuNyk5LjcBCgoKDg0OGxAQGCsmHSUtMistKy0zLy8rLS4rKysrLS0tLSsyNy0tLS0vLS0rLS0tMjcrLS0tLSstLS0tLS0tLf/AABEIAOsA1gMBEQACEQEDEQH/xAAcAAEAAgMBAQEAAAAAAAAAAAAAAQIEBQYHAwj/xABMEAACAQIBBQkJDAgHAQAAAAAAAQIDEQQFBhIhMRNBUVRhcYGRsQcUIjJSoaLB0RczU2JjcnOTlLPS4xUkNIKSsuHwFiM1QoPC8SX/xAAaAQEBAAMBAQAAAAAAAAAAAAAAAQIEBQMG/8QAOhEBAAECAgQLBwMDBQAAAAAAAAECAwQREiExUgUTFDJBUWFxgaGxM2KRwdHh8BU0oiJCUyMkY3Lx/9oADAMBAAIRAxEAPwD3EAAAAAAADR5azpw2Dbg5OrVW2nSs3F/GeyPNt5D3t4euvX0PC5iKKNXS5TG5+4id1SpUqK5b1J9epeY26cHRG2c2pVjK52Rk02IzlxtTxsXVX0dqf8qR6xYtx/a8Zv3J/uYFXKFeXjYitL51Wcu1npFFMdEMNOrrljTm3tbfO2ypmqptbG1zOwH0hj60fFr1o/Nqzj2Mx0aZ6IZadXXLLoZyY2n4uMr/AL890/nuYTZtz/bDOL1yNlUtxk/uhYum0qsaeJjv3W5VH0x1eieVWEonZqetOLrjbrdzkDObDY9WpycKqV3RqWVRLhW9Jcq6bGlcs1W9uxu271NzZtbo8nqAAAAAAAAAAAAAAAAAHM58ZclhKUaVKWjVrX8JbadNbZLgbukungNrDWorqznZDVxV2aKco2y8ybOm5jNwWRsTiI6dLD1KkfKStF8zdk+g86rtFOqZelNquqM4hh4vDVKMnCrTnSmtejOLi7cK4VymVNUVRnEsaqZpnKYfBsyYqtkVVsCrYFWFVYE06soSjOEnCcWpRlF2lGS3094kxnqkictcPXcyM5f0hScalliKNlUtqVSL2VEujWt586OZfs8XOrY6li9xka9sOlNd7gAAAAAAAAAAAAAAADy/ugVtLHTj8HTpw8zn/wBzqYSMrbl4uc7jXZs4COKxdCjPXBtymuGEYuWj02S6T0vV6FEzDzs0adcRL2CEVFKKSSSSSSsklsSOO7DS545MhicHWulp0oSrU5f7oyirtczSs/6Hth65prjteOIoiuiex4+2dZyVWwKtgVYVVgVbIKtgbnM3KDw2Pws09U5qhNcMKjUdfIpOL/dPK/TpW5+L1s1aNyJ8Pi9uOS6wAAAAAAAAAAAAAAAA8nz4f/0MT/xfcwOthvZR+dLk4n2s/nQ12RMovCYijXS0lCXhRW2UGnGSXLZvpsZ3KNOmaWFuvQqip7Bk/H0sTBVKNSNSL8l64vga2p8jORVRVTOUw69NdNUZxLns+M4aVChVw0JqderF03GLvuUJK0pS4HZuy26zYw9maqoqnZDXxN6KaZpjbLyxs6TmqtgVbCqsCGwKtkFWwr75Mf6xhvp6P3kTGvmz3LRzo736BOM7IAAAAAAAAAAAAAAAA8mz5/1DE/8AF9zA62G9lH50uTifaz+dDQNnu8FbkVQCrYFWwqGBVsCrZBVsKq2B98mP9Yw309H7yJjXzZ7lo50d79BnGdkAAAAAAAAAAAAAAAAcjl3Mp4zEVcR30qe6aHgbjp6OjCMdumr+LwG3axWhTFOTUu4XTqmrS8mv9zh8eX2b8w9OW+75/Z58i97y+6Pc3fHl9m/MJy33fP7HIve8vuj3NXx9fZvzBy33fP7HIve8vuj3NHx9fZvzBy33fP7LyL3vL7o9zN8fX2b8wct93z+xyOd7y+7g8bQ3KrWpX0tyqVKela2loycb23thuUznES06oymYY7ZUVbAq2FVbAyMlv9Yw309H7yJjXzZ7mVHOjvfoQ4zsAAAAAAAAAABWpUUE5Skoxim3KTSjFcLe8WIz2JM5bXI5Wz7pU244em67WrdJNwpX5N+Xm5zbt4OqddU5NS5jKY1Uxm53EZ646eypTpclOlFr0rmxGFtx0NacVcnpY7zwyhxp/VUPwGXJrW76pym7veiHnhlDjT+pofgHJrW76nKbu96KvPHKHG39TQ/AOTWt31OU3d70Q88socbf1OH/AAE5Na3fU5Rd3vRV555R42/qcP8AgHJrW76nKLu96KvPTKPG39Th/wAA5Na3fVeUXd70Q89Mo8bf1OH/AADk1rd9TlF3e9EPPXKPHH9Th/wDk9rd9TlF3e9Ghr1pVJTnJ3lOUpydkryk7t2Wraz2iMoyh5TOc5y+TYRVsKo2BVsDIyX+0Yb6ej95Exr5s9zKnnR3vf8AGVHGN07O6PmcfdrtWtKicpzdy1TFVWUsLvqfleaPsONy/Eb/AJR9GzxVHUd9T8rzR9g5fiN/yj6HFUdS0cbNbbS51Y9KOE71POyn87GM2KZ2MyhiFPZqe+mdjDYyi/GrVPU8K7c0vsbTzAAACJNJNt2S1tvUkgPLs7M45Y2bpwbjhoPwVs3Vr/fL1L1nVsWItxnO1yr9+bk5Rsc6zYa6GwKtgUbAq2RVWwKtgVYVDAq2QVbAq2FVbAq2BVsDJyV+0Yb6ej95Exr5s9zKnnR3vfcf4nSj5XhP2HjDvWOc1x8820XAgipjNxaadmi0XKqKoqpnXBNMTGUtvQq6cVLr5GfV4e/F63FcfkufXTozk+h7sQABy/dAyk6OGVGLtPENwfDuS1z67xXNJm1hKNKvOehq4u5o0ZR0vNGdNzFWwKtgVbAq2RVWwKtgVYVVgVbIKtgVbCqtgVbAq2QQBlZK/aMN9PR+8iSvmz3MqedHe99yh4nSj5XhT2HjDvWOc1tz51touRUNkVFyDMyXU1yjwq65/wC+w6/BF7Kuq3PTr/Pzoa+Ip1RLZHfagAA8z7oeK08Yqd9VGlGNuCcryfmceo6eEpyt59bmYurO5l1OWbNpqqtgVbAq2RVWwKtgVbCqsCGyCjYFWwqrYFWwKtgQQANtmng3iMfgqa+GhUfzIPTl5ovrPO7Vo0TL0tU6VcQ9uylLwYrhd+pf1Pk+Fq8rdNPXPp/67uHjXMtc2cFtouYqi5FRcg+mFnozg+VLoer1mxg7mhfoq7fXUxuU50TDeH2DmgADxvOOvumMxc/lpxXNF6C80UdmzGVuI7HGvTncme1rGz0earYFWyKq2BVsCrYVVgQ2BVsgq2FVbAq2BVsCpAAAeqdzHNyWHhLG1ouNStHRpQkvChQum5PgcrLoS4bGhirsVTow38NayjSl02MracnbYtS9p8Xj8Rx13ONkaodm1Ro0se5pPVDZM1VuYqi5MxFyZq6GnK6T4UmfcW69OiKuuM3KmMpyWM0APDcTU0p1JeVOUuttnciMoycOqc5mXxbKirZFVbAo2BVsKhgVbAzMJkfFV0nSwtepF7JRpy0H+9a3nPOq5TTtlnTbqq2RLJeamUOJVfR9pjx9veZcRc3UPNTKHEqvo+0cfb3l4i5uqvNPKHEqvo+0cfb3jiLm6q80socRq+j7Rx9veOIubqP8I5R4jW9D2k4+3vHE3N0/wjlHiNb0PaOPt7xxNzdffC5j5RqtLvXc15VWpTjFc6TcupEnEW46VjD3J6Hb5s9z2lhpRrYmSxNWNpRglbD05cNnrm+V2XJvmrdxU1RlTqhtWsLFOurXLp8bi73jF879SPmcfwhExNu1PfPyj6upas9NTAucRtIuQQRUXJmqCKi5jmN7gnenT+al1aj7LAznhqO6HMvRlXL7m28wDwiorNrgbXUzuQ4cqNgVbAq2BVsKqwMzI+Sq2OqqjRjd7ZSeqFOPlSe8jC5ciiM5Z0W5rnKHqWQsz8LgUpyiq9Za3WrJWi/iR2R7eU5d/FTMZzOUOlaw1NPRnLdzxsVsu+bUjkV8KWadVOc/na3IsVSp3+vJfWjz/VqdyWXET1nf68l9aH6tTuScRPWd/ryX1ofq1O5JxE9Z3+vJfWh+rU7knET1nf68l9aJ+rUbknJ560fpBeS+tD9Xo3JOTz1qyyjwQ62edXDG7R8ZZRh+uWNWxMp7XZcC1I51/G3r2qqdXVGx7UWqadj4XNR6IuRVbkEGKhFVuQRcit7k73qHM+1n2HBv7Wju+bmX/aSyTeeQB4jlmlueJxUPJr1UubTdvMdq3OdET2OLcjKuY7WC2ZMVWwKtgVYVNKnKpKMIRcpzkoRitspt2SXSyTOUZyRGeqHtObuR6eTcMqas5u0q1RbalTk5FsSOLisTERNyrZDsWLOjEUxtWrVnN3ezeW8j5TEYmu/VnVs6I6nRooimNT5muzAAACLkEXIqGyKi5BVsxzVBFRcmaoIIuTNUNmKobIqrZB0WDjanTXxV2H22Cp0cPRHZHo5V2c65732Np5gHkmfuG3LH1nvVYwqrmcdF+lCR1cNVnbhysTTlclzjZ7vBVsCrYVDA6nubYFVsdujV1h6cqi4N0dox80pPoNbFVZUZdbZwtOdefU9MyhPWo8Gt858jwrdmaotx3u3Yp1ZsM5DYAAACCKi5BW5iqLkVFyCCKgioMVRcmYrciouRUXIqacdKUY+U0utmVuiblcUR0zl8UqnRiZdMlY+9iMoyhxklADge6lgtWGxKWxyoTfP4UOyfWb2Dq20+LRxlOyrwefNm80VWwqrAq2Qd73JF/mY5/FodtT2GnjNlPj8m5g9tXh83a4z3yXR2I+L4Qn/cVeHpDt2uZD4Gk9QCLkEXIqLkVFyCGyZqrcxVFyZiCKgiouRUXIIbMVVbIqCKzsj0tKppb0Ffpepes63A1jTv6c7KY851R82tiq8qMutvD6xzQABg5cybHGYeth5atOPgy8iotcZdDSM7dehVFTC5Rp0zS8RxVCdGc6VSLhOnJwlF70l/e07ETExnDkTExOUvgyohsCrZB33cj8fH/Nw/bVNPGbKfH5N3B7avD5u0xnvkujsR8Xwh+4q8PSHbtcyHxNJ6IuRUXIKtkVDZiqLkEEVFyZqgiouYiLkVVsiouQRcioIqCDocnYfc6aT8aXhS5HwH2fBuFnD2IirnTrn6eDlX7mnXq2Mo6DxAAADmM8M0449brTcaeJiraT8StHejO2x8D7d7YsX5t6p2Ne/Yi5rja8synk6vhJaFejOi72TkvAl82WyXQzo010166Zc6qiqjnQw2zJiq2B3/AHIvHx/zcP21TSxmynx+Tdwe2rw+btcb75Lo7EfF8IfuKvD0h27PMhjmi9UNkVFyCLkVFyKrcmYi5jmqLkVFyZiLkzVDZjmqGyZqi5MxBFEr6krvgWtsRE1TlGuSdTa5Oyc01OorW1xjy8LPouDeCqoqi7ejZsj5z9GlfxETGjT8W1PoWiAAAAABWcFJNNKSe1NXTAwZZEwjd3gsM3wuhSb7DPjK+uWHF0dUI/QOD4jhfs9L2Dja96Ti6N2GRhMn0KGk6NClR0raW5U4U9K17Xste19ZJqqq2ysU007IYeO98l0diPluEf3NXh6Q6FnmQx2zReqLkFbmOaoIqGyK21J0dGN9yvZXvo3vY+mtVYLi6dLQzyjqaNUXc5yz81tKh8l6B6aWA/4/4scr3b5mlQ+R9AmlgOu3/EyvdvmaVD5H0BpcH9dv+K5Xu3zRpYfho+gNPg/rt/xMr3b5ieH+R9ARVwfM5Rxf8TK92+b7d7U/g4fwxNnklj/HT8IefGV70ne1P4OH8MRyTD/46fhBxte9J3tT+Dh/DEckw/8Ajp+EHG170rwpqOyKjzJI9aLdFHNiI7mM1TO2VjNAAAAAAAAAAAAanHe+S6OxHy/CP7mrw9Ib1nmQxrmg9kXIIuRUEVBiqLkzFWyKi5FRciouYi1HxofOj2npZ9rT3x6pVzZdOffOMAAAAAAAAAAAAAAAANPj/fJdH8qPleEv3NXh6Q37HMhjXNB7IuTMQRUEVFyKi5BDZirIwWEdZvXaK2v1I3sDgasVVOvKmNs/KHldvRbjtZ8skwtqlJPhdmdirgOzNOVNU5+H0asYurPXENTiKLpycZbV1NcJ87icPXYuTbr2+va3qK4rpzhWj40PnR7TCx7Wnvj1Wvmy6g+/cYAAAAAAAAAAAAAAAAajKUbVHypP1eo+X4Vp0cRM9cRPy+Tfw850MS5zc3ugiouY5iLkVVsiouQRcit3kdrctW3Sd+f/AMsfWcDTTOG1bc5z/O7JzsVnxjOOq1mny41pQ4dF35r6vWfM8PTHGUR05T66vm38HnoywcLHSqU18aPVfWcnC0TXfopjrj1bNycqJnsdMfeOOAAAAAAAAAAAAAAAAMXH4fdI3XjR2cq4DncI4Sb9vOnnRs7ex7WbmhOvY0zPlZ1OircxEXIqGyKhsxVFyCCK++ExcqTutae2L2M3MHjbmFqzp1xO2PzZLyu2ouRrZ8ssK2qm78r1HXq4ep0f6aJz7Z1NaMHOeuWrrVXOTlJ3b/uxwL16u9XNdc65blNMUxlDZ5IwjX+bJb1ork8o73A2CmP9euP+v1+jTxV3P+iPFtT6FpAAAAAAAAAAAAAAAAABi4vBRqa14MuFbHznOxnB1vEf1Rqq6+vve9q/NGroaqvhJw2xuuGOtHzuIwN+zzqdXXGuPt4t2i7RVsljXNLN6ouRUEVBAAAfWjh51PFi3y73We9jC3r/ALOmZ7ej47GFdymjnS2mEyWo2lNqT8leKufhPoMHwNTbnTvTnPV0ff0aV3FTOqnU2R3GoAAAAAAAAAAAAAAAAAAAAA+NXC05+NBPl2PrRrXcHYu8+iO/p+Ma3pTdrp2Sxp5JpvY5R6U15zQr4Ew9XNmY/O17Ri6425Pi8jcFTrjf1mtVwDHRc8vuz5Z7osjfK+j/AFEcA9dzy+5yz3X0hkiC2yk+pI96OA7Ec6qqfh9GM4uvoiGTSwNKOyC55eF2m7a4Ow1vm0R46/V41X7lW2WQbryAAAAAAAAAAAAAAAAAAAAAAAAAAAAAAAAAAAAAAAAAAAAAAAAAAAABcCNICNMCNMBugDdAG6ATpgNICbgSAAAAAAAAAAAAAAAAAAKNgVbAo2BVsCNICNIBpANICykBKYF0wLJgXTAkAAAAAAAAAAAAAAABDiBRwAq4AVcAI0AI0AGgA0AJUALKAFlAC6iBYAAAAAAAAAAAAAAAAAAAACwEWAWAWAWAWAkAAAAAAAAAAAAAH//Z;" vertex="1" parent="1">
          <mxGeometry x="1446" y="562.66" width="34" height="37.34" as="geometry" />
        </mxCell>
        <mxCell id="oIqmAePt7HCqJZuFYAqL-18" value="Logs Dashboard" style="rounded=0;whiteSpace=wrap;html=1;" vertex="1" parent="1">
          <mxGeometry x="920" y="120" width="160" height="80" as="geometry" />
        </mxCell>
        <mxCell id="oIqmAePt7HCqJZuFYAqL-19" value="" style="shape=image;verticalLabelPosition=bottom;labelBackgroundColor=default;verticalAlign=top;aspect=fixed;imageAspect=0;image=data:image/jpeg,/9j/4AAQSkZJRgABAQAAAQABAAD/2wCEAAkGBxANDw0OEA0PDQ8PEBAOEA8NDxAPDQ0NFxEWFhYRFRgaHiggGBolGxMVITEhJykvLjEuFx8zOTMuNyk5LjcBCgoKDg0OGxAQGCsmHSUtMistKy0zLy8rLS4rKysrLS0tLSsyNy0tLS0vLS0rLS0tMjcrLS0tLSstLS0tLS0tLf/AABEIAOsA1gMBEQACEQEDEQH/xAAcAAEAAgMBAQEAAAAAAAAAAAAAAQIEBQYHAwj/xABMEAACAQIBBQkJDAgHAQAAAAAAAQIDEQQFBhIhMRNBUVRhcYGRsQcUIjJSoaLB0RczU2JjcnOTlLPS4xUkNIKSsuHwFiM1QoPC8SX/xAAaAQEBAAMBAQAAAAAAAAAAAAAAAQIEBQMG/8QAOhEBAAECAgQLBwMDBQAAAAAAAAECAwQREiExUgUTFDJBUWFxgaGxM2KRwdHh8BU0oiJCUyMkY3Lx/9oADAMBAAIRAxEAPwD3EAAAAAAADR5azpw2Dbg5OrVW2nSs3F/GeyPNt5D3t4euvX0PC5iKKNXS5TG5+4id1SpUqK5b1J9epeY26cHRG2c2pVjK52Rk02IzlxtTxsXVX0dqf8qR6xYtx/a8Zv3J/uYFXKFeXjYitL51Wcu1npFFMdEMNOrrljTm3tbfO2ypmqptbG1zOwH0hj60fFr1o/Nqzj2Mx0aZ6IZadXXLLoZyY2n4uMr/AL890/nuYTZtz/bDOL1yNlUtxk/uhYum0qsaeJjv3W5VH0x1eieVWEonZqetOLrjbrdzkDObDY9WpycKqV3RqWVRLhW9Jcq6bGlcs1W9uxu271NzZtbo8nqAAAAAAAAAAAAAAAAAHM58ZclhKUaVKWjVrX8JbadNbZLgbukungNrDWorqznZDVxV2aKco2y8ybOm5jNwWRsTiI6dLD1KkfKStF8zdk+g86rtFOqZelNquqM4hh4vDVKMnCrTnSmtejOLi7cK4VymVNUVRnEsaqZpnKYfBsyYqtkVVsCrYFWFVYE06soSjOEnCcWpRlF2lGS3094kxnqkictcPXcyM5f0hScalliKNlUtqVSL2VEujWt586OZfs8XOrY6li9xka9sOlNd7gAAAAAAAAAAAAAAADy/ugVtLHTj8HTpw8zn/wBzqYSMrbl4uc7jXZs4COKxdCjPXBtymuGEYuWj02S6T0vV6FEzDzs0adcRL2CEVFKKSSSSSSsklsSOO7DS545MhicHWulp0oSrU5f7oyirtczSs/6Hth65prjteOIoiuiex4+2dZyVWwKtgVYVVgVbIKtgbnM3KDw2Pws09U5qhNcMKjUdfIpOL/dPK/TpW5+L1s1aNyJ8Pi9uOS6wAAAAAAAAAAAAAAAA8nz4f/0MT/xfcwOthvZR+dLk4n2s/nQ12RMovCYijXS0lCXhRW2UGnGSXLZvpsZ3KNOmaWFuvQqip7Bk/H0sTBVKNSNSL8l64vga2p8jORVRVTOUw69NdNUZxLns+M4aVChVw0JqderF03GLvuUJK0pS4HZuy26zYw9maqoqnZDXxN6KaZpjbLyxs6TmqtgVbCqsCGwKtkFWwr75Mf6xhvp6P3kTGvmz3LRzo736BOM7IAAAAAAAAAAAAAAAA8mz5/1DE/8AF9zA62G9lH50uTifaz+dDQNnu8FbkVQCrYFWwqGBVsCrZBVsKq2B98mP9Yw309H7yJjXzZ7lo50d79BnGdkAAAAAAAAAAAAAAAAcjl3Mp4zEVcR30qe6aHgbjp6OjCMdumr+LwG3axWhTFOTUu4XTqmrS8mv9zh8eX2b8w9OW+75/Z58i97y+6Pc3fHl9m/MJy33fP7HIve8vuj3NXx9fZvzBy33fP7HIve8vuj3NHx9fZvzBy33fP7LyL3vL7o9zN8fX2b8wct93z+xyOd7y+7g8bQ3KrWpX0tyqVKela2loycb23thuUznES06oymYY7ZUVbAq2FVbAyMlv9Yw309H7yJjXzZ7mVHOjvfoQ4zsAAAAAAAAAABWpUUE5Skoxim3KTSjFcLe8WIz2JM5bXI5Wz7pU244em67WrdJNwpX5N+Xm5zbt4OqddU5NS5jKY1Uxm53EZ646eypTpclOlFr0rmxGFtx0NacVcnpY7zwyhxp/VUPwGXJrW76pym7veiHnhlDjT+pofgHJrW76nKbu96KvPHKHG39TQ/AOTWt31OU3d70Q88socbf1OH/AAE5Na3fU5Rd3vRV555R42/qcP8AgHJrW76nKLu96KvPTKPG39Th/wAA5Na3fVeUXd70Q89Mo8bf1OH/AADk1rd9TlF3e9EPPXKPHH9Th/wDk9rd9TlF3e9Ghr1pVJTnJ3lOUpydkryk7t2Wraz2iMoyh5TOc5y+TYRVsKo2BVsDIyX+0Yb6ej95Exr5s9zKnnR3vf8AGVHGN07O6PmcfdrtWtKicpzdy1TFVWUsLvqfleaPsONy/Eb/AJR9GzxVHUd9T8rzR9g5fiN/yj6HFUdS0cbNbbS51Y9KOE71POyn87GM2KZ2MyhiFPZqe+mdjDYyi/GrVPU8K7c0vsbTzAAACJNJNt2S1tvUkgPLs7M45Y2bpwbjhoPwVs3Vr/fL1L1nVsWItxnO1yr9+bk5Rsc6zYa6GwKtgUbAq2RVWwKtgVYVDAq2QVbAq2FVbAq2BVsDJyV+0Yb6ej95Exr5s9zKnnR3vfcf4nSj5XhP2HjDvWOc1x8820XAgipjNxaadmi0XKqKoqpnXBNMTGUtvQq6cVLr5GfV4e/F63FcfkufXTozk+h7sQABy/dAyk6OGVGLtPENwfDuS1z67xXNJm1hKNKvOehq4u5o0ZR0vNGdNzFWwKtgVbAq2RVWwKtgVYVVgVbIKtgVbCqtgVbAq2QQBlZK/aMN9PR+8iSvmz3MqedHe99yh4nSj5XhT2HjDvWOc1tz51touRUNkVFyDMyXU1yjwq65/wC+w6/BF7Kuq3PTr/Pzoa+Ip1RLZHfagAA8z7oeK08Yqd9VGlGNuCcryfmceo6eEpyt59bmYurO5l1OWbNpqqtgVbAq2RVWwKtgVbCqsCGyCjYFWwqrYFWwKtgQQANtmng3iMfgqa+GhUfzIPTl5ovrPO7Vo0TL0tU6VcQ9uylLwYrhd+pf1Pk+Fq8rdNPXPp/67uHjXMtc2cFtouYqi5FRcg+mFnozg+VLoer1mxg7mhfoq7fXUxuU50TDeH2DmgADxvOOvumMxc/lpxXNF6C80UdmzGVuI7HGvTncme1rGz0earYFWyKq2BVsCrYVVgQ2BVsgq2FVbAq2BVsCpAAAeqdzHNyWHhLG1ouNStHRpQkvChQum5PgcrLoS4bGhirsVTow38NayjSl02MracnbYtS9p8Xj8Rx13ONkaodm1Ro0se5pPVDZM1VuYqi5MxFyZq6GnK6T4UmfcW69OiKuuM3KmMpyWM0APDcTU0p1JeVOUuttnciMoycOqc5mXxbKirZFVbAo2BVsKhgVbAzMJkfFV0nSwtepF7JRpy0H+9a3nPOq5TTtlnTbqq2RLJeamUOJVfR9pjx9veZcRc3UPNTKHEqvo+0cfb3l4i5uqvNPKHEqvo+0cfb3jiLm6q80socRq+j7Rx9veOIubqP8I5R4jW9D2k4+3vHE3N0/wjlHiNb0PaOPt7xxNzdffC5j5RqtLvXc15VWpTjFc6TcupEnEW46VjD3J6Hb5s9z2lhpRrYmSxNWNpRglbD05cNnrm+V2XJvmrdxU1RlTqhtWsLFOurXLp8bi73jF879SPmcfwhExNu1PfPyj6upas9NTAucRtIuQQRUXJmqCKi5jmN7gnenT+al1aj7LAznhqO6HMvRlXL7m28wDwiorNrgbXUzuQ4cqNgVbAq2BVsKqwMzI+Sq2OqqjRjd7ZSeqFOPlSe8jC5ciiM5Z0W5rnKHqWQsz8LgUpyiq9Za3WrJWi/iR2R7eU5d/FTMZzOUOlaw1NPRnLdzxsVsu+bUjkV8KWadVOc/na3IsVSp3+vJfWjz/VqdyWXET1nf68l9aH6tTuScRPWd/ryX1ofq1O5JxE9Z3+vJfWh+rU7knET1nf68l9aJ+rUbknJ560fpBeS+tD9Xo3JOTz1qyyjwQ62edXDG7R8ZZRh+uWNWxMp7XZcC1I51/G3r2qqdXVGx7UWqadj4XNR6IuRVbkEGKhFVuQRcit7k73qHM+1n2HBv7Wju+bmX/aSyTeeQB4jlmlueJxUPJr1UubTdvMdq3OdET2OLcjKuY7WC2ZMVWwKtgVYVNKnKpKMIRcpzkoRitspt2SXSyTOUZyRGeqHtObuR6eTcMqas5u0q1RbalTk5FsSOLisTERNyrZDsWLOjEUxtWrVnN3ezeW8j5TEYmu/VnVs6I6nRooimNT5muzAAACLkEXIqGyKi5BVsxzVBFRcmaoIIuTNUNmKobIqrZB0WDjanTXxV2H22Cp0cPRHZHo5V2c65732Np5gHkmfuG3LH1nvVYwqrmcdF+lCR1cNVnbhysTTlclzjZ7vBVsCrYVDA6nubYFVsdujV1h6cqi4N0dox80pPoNbFVZUZdbZwtOdefU9MyhPWo8Gt858jwrdmaotx3u3Yp1ZsM5DYAAACCKi5BW5iqLkVFyCCKgioMVRcmYrciouRUXIqacdKUY+U0utmVuiblcUR0zl8UqnRiZdMlY+9iMoyhxklADge6lgtWGxKWxyoTfP4UOyfWb2Dq20+LRxlOyrwefNm80VWwqrAq2Qd73JF/mY5/FodtT2GnjNlPj8m5g9tXh83a4z3yXR2I+L4Qn/cVeHpDt2uZD4Gk9QCLkEXIqLkVFyCGyZqrcxVFyZiCKgiouRUXIIbMVVbIqCKzsj0tKppb0Ffpepes63A1jTv6c7KY851R82tiq8qMutvD6xzQABg5cybHGYeth5atOPgy8iotcZdDSM7dehVFTC5Rp0zS8RxVCdGc6VSLhOnJwlF70l/e07ETExnDkTExOUvgyohsCrZB33cj8fH/Nw/bVNPGbKfH5N3B7avD5u0xnvkujsR8Xwh+4q8PSHbtcyHxNJ6IuRUXIKtkVDZiqLkEEVFyZqgiouYiLkVVsiouQRcioIqCDocnYfc6aT8aXhS5HwH2fBuFnD2IirnTrn6eDlX7mnXq2Mo6DxAAADmM8M0449brTcaeJiraT8StHejO2x8D7d7YsX5t6p2Ne/Yi5rja8synk6vhJaFejOi72TkvAl82WyXQzo010166Zc6qiqjnQw2zJiq2B3/AHIvHx/zcP21TSxmynx+Tdwe2rw+btcb75Lo7EfF8IfuKvD0h27PMhjmi9UNkVFyCLkVFyKrcmYi5jmqLkVFyZiLkzVDZjmqGyZqi5MxBFEr6krvgWtsRE1TlGuSdTa5Oyc01OorW1xjy8LPouDeCqoqi7ejZsj5z9GlfxETGjT8W1PoWiAAAAABWcFJNNKSe1NXTAwZZEwjd3gsM3wuhSb7DPjK+uWHF0dUI/QOD4jhfs9L2Dja96Ti6N2GRhMn0KGk6NClR0raW5U4U9K17Xste19ZJqqq2ysU007IYeO98l0diPluEf3NXh6Q6FnmQx2zReqLkFbmOaoIqGyK21J0dGN9yvZXvo3vY+mtVYLi6dLQzyjqaNUXc5yz81tKh8l6B6aWA/4/4scr3b5mlQ+R9AmlgOu3/EyvdvmaVD5H0BpcH9dv+K5Xu3zRpYfho+gNPg/rt/xMr3b5ieH+R9ARVwfM5Rxf8TK92+b7d7U/g4fwxNnklj/HT8IefGV70ne1P4OH8MRyTD/46fhBxte9J3tT+Dh/DEckw/8Ajp+EHG170rwpqOyKjzJI9aLdFHNiI7mM1TO2VjNAAAAAAAAAAAAanHe+S6OxHy/CP7mrw9Ib1nmQxrmg9kXIIuRUEVBiqLkzFWyKi5FRciouYi1HxofOj2npZ9rT3x6pVzZdOffOMAAAAAAAAAAAAAAAANPj/fJdH8qPleEv3NXh6Q37HMhjXNB7IuTMQRUEVFyKi5BDZirIwWEdZvXaK2v1I3sDgasVVOvKmNs/KHldvRbjtZ8skwtqlJPhdmdirgOzNOVNU5+H0asYurPXENTiKLpycZbV1NcJ87icPXYuTbr2+va3qK4rpzhWj40PnR7TCx7Wnvj1Wvmy6g+/cYAAAAAAAAAAAAAAAAajKUbVHypP1eo+X4Vp0cRM9cRPy+Tfw850MS5zc3ugiouY5iLkVVsiouQRcit3kdrctW3Sd+f/AMsfWcDTTOG1bc5z/O7JzsVnxjOOq1mny41pQ4dF35r6vWfM8PTHGUR05T66vm38HnoywcLHSqU18aPVfWcnC0TXfopjrj1bNycqJnsdMfeOOAAAAAAAAAAAAAAAAMXH4fdI3XjR2cq4DncI4Sb9vOnnRs7ex7WbmhOvY0zPlZ1OircxEXIqGyKhsxVFyCCK++ExcqTutae2L2M3MHjbmFqzp1xO2PzZLyu2ouRrZ8ssK2qm78r1HXq4ep0f6aJz7Z1NaMHOeuWrrVXOTlJ3b/uxwL16u9XNdc65blNMUxlDZ5IwjX+bJb1ork8o73A2CmP9euP+v1+jTxV3P+iPFtT6FpAAAAAAAAAAAAAAAAABi4vBRqa14MuFbHznOxnB1vEf1Rqq6+vve9q/NGroaqvhJw2xuuGOtHzuIwN+zzqdXXGuPt4t2i7RVsljXNLN6ouRUEVBAAAfWjh51PFi3y73We9jC3r/ALOmZ7ej47GFdymjnS2mEyWo2lNqT8leKufhPoMHwNTbnTvTnPV0ff0aV3FTOqnU2R3GoAAAAAAAAAAAAAAAAAAAAA+NXC05+NBPl2PrRrXcHYu8+iO/p+Ma3pTdrp2Sxp5JpvY5R6U15zQr4Ew9XNmY/O17Ri6425Pi8jcFTrjf1mtVwDHRc8vuz5Z7osjfK+j/AFEcA9dzy+5yz3X0hkiC2yk+pI96OA7Ec6qqfh9GM4uvoiGTSwNKOyC55eF2m7a4Ow1vm0R46/V41X7lW2WQbryAAAAAAAAAAAAAAAAAAAAAAAAAAAAAAAAAAAAAAAAAAAAAAAAAAAABcCNICNMCNMBugDdAG6ATpgNICbgSAAAAAAAAAAAAAAAAAAKNgVbAo2BVsCNICNIBpANICykBKYF0wLJgXTAkAAAAAAAAAAAAAAABDiBRwAq4AVcAI0AI0AGgA0AJUALKAFlAC6iBYAAAAAAAAAAAAAAAAAAAACwEWAWAWAWAWAkAAAAAAAAAAAAAH//Z;" vertex="1" parent="1">
          <mxGeometry x="1046" y="162.65999999999997" width="34" height="37.34" as="geometry" />
        </mxCell>
        <mxCell id="oIqmAePt7HCqJZuFYAqL-21" value="" style="rounded=0;whiteSpace=wrap;html=1;" vertex="1" parent="1">
          <mxGeometry x="120" y="400" width="160" height="80" as="geometry" />
        </mxCell>
        <mxCell id="oIqmAePt7HCqJZuFYAqL-23" value="" style="shape=image;verticalLabelPosition=bottom;labelBackgroundColor=default;verticalAlign=top;aspect=fixed;imageAspect=0;image=data:image/jpeg,/9j/4AAQSkZJRgABAQAAAQABAAD/2wCEAAkGBxESEhATEhIWFRAVEhUVFRMYFhUTFxgYFRUYGBYVFRUYHSggGB0mGxcXIjEhJSkrLi4uFyAzODMtNygtLisBCgoKDg0OGBAQGy8jICUrLy03NzUtLzcrKy8rNS0vMjMrNystLS0rLzcvLS03MC0tLSstNzcrMjcrLS0tNy0uLf/AABEIAOEA4QMBIgACEQEDEQH/xAAcAAEAAgMBAQEAAAAAAAAAAAAABQYCBAcDAQj/xABHEAACAQICBgQKBwYFBAMAAAAAAQIDEQQhBQYSMUFRYXGBkRMWFyIyU1SSwdEHI0JyobHSFFKCk6PwYnOisuEzNEPCFSRj/8QAGgEBAQADAQEAAAAAAAAAAAAAAAUBBAYDAv/EACsRAQACAQIEBAYDAQAAAAAAAAABAgMEEQUSIUETMbHRMkJRcaHwFIHxIv/aAAwDAQACEQMRAD8A7iAAAAAAAAAAAAAAAAAAAAAAAAAAAAAAAAAAAAAAAAAAAAAAAAAAAAAAAAAAAAAAAAAAAAAAAAAAAAAAAAAAABjUmopyk0opNtvJJLNtsDIHP5/SvhLu1Cu1d2dqauuDs5XRj5WML7PX/p/rA6EDnvlYwvs9f+n+seVjC+z1/wCn+sDoQOe+VjC+z1/6f6x5WML7PX/p/rA6EDnvlYwvs9f+n+svOjcdTr0qdam706kVKL6+DXBrc1zQGyAAAAAAAAAAAAAAAAAAAAAAAAAABz36WtYfB0lhKb+sqraqW4U7+j/E13RfMu+ltIU8PRqVqjtCnFyfN8orpbsl0s/O+ltI1MTWq16np1JbTXBLdGK6Ekl2AagBsRwjaWduix90x2v8MPLLnx4o3vOzXBsYjByhGMnnFtr+/wAe41zF6WpO1mceWmSvNSd4AbWjsC60rJqKW+TzWe5EpLVednapFvgrNX6Ln3XBktG8R0eWTWYcduS1tpQJ0f6I9YdicsHUfmzbnRvwla84dqW0ulPmc4kmm08msmuTXAzoVpQlGcG4zjJSjJb1KLumupo8my/TYIfVTTkcbhqdZWUvRqRX2Zx9JdW5roaJgAAAAAAAAAAAAAAAAAAAAAAAGppPGKlTcvtborpf937AKb9I1CritihTqRjSg9qpe72p/ZWXBK/a+go/iTV9bDukXeTbu3m3m2fJSSTbdkldvklxA57pHV14fYc6kZXeUUnfLjnw3d554ejtyS4ceo2NL451qkp/Z3RXKK3fPtNnA0NmOe95v4ItaXDyV2nz7uQ4lq/FyTMeUdI93vLBqqvBW9LJdHJ9m/sNWWpdVf8Alh3SLHojD2W297yXVz7TecrmlrskXybR26LHBdPfFp+a3zddv36+yrUNHeAWw83vcud/7t2Enh6l10rebeksPtRuvSjmuriiJo1Nl34cShpbxkxRt5x0ROI4rYNVabdYt1/ft6NXSOrjrVHOE4xuryTTzfNW7DX8TqvrYd0ixwlazRvRldXJ2rxctuaPKV/hep8THyW86+jT1Ho1sBUqOU4zo1I+dBXT2l6MlfLmn19CLk9a4erl3orE5HkaaotfjZD1Uu9Dxsh6qXeiqGMmBa3rfD1Uu9Dxvh6qXeipMxAt/jfD1Uu9Dxvh6qXeioGLYFweuNP1Uu9Hzxyp+ql3op5iBcvHKn6qXfE+eOdP1Uu9FLAF08c6fqp96M8JrjSnOMHCUVJpbTasr7r9FyiykYMDsQIPVLSvh6OzJ/W07Rlza+zLt3daZOBgAAAqOm8b4Wpl6Eco9PN/3yLBpqc40ajhvtn0L7TXYUvaA9Cv616Q2YqlF+dLOXRHgu1/gukndo5/pCU5VZ7a+scmmunckujdY2tJji1957JvFM848XLHzdDAUNqV3uWfyROYShtyS4b31GGDwNoKz68uPEl9G0VGL4u+fwKmfL4WKZjzc5o9N/J1Fa2+Hz+/++jbtZGJkzEgu1CG0hQ2ZZei818UTJpaXqRjSk5cN3O/BI2tJlnHkj6T0TuKaWM+nn616w1cJUurcvyNyhXSey+OaK7R0j5ytF3vzN2U23fjfL4FbLirlrMOX0+qvprVt39YTTYMIt2V9/E+3Ofl3MTvG7IwbMZzMdsMszE+bZ5SqAejZ8PPwh98IBmYSHhDzlMDJs8pTBhMDMHmfVICR0HpF4etGp9ndNc4vf2rf2HUac1JJp3i0mnzT3M4/c6DqPVqSw/nehGbVN848V1J3X4cAwsIAA+NFK0vgvA1HH7Lzj1cuzcXYjtOYDwtN29OOcfjHt+QFLbIfS+AW0qyWaVpfCXw7uRLnyUU009zPXDk8O8Wa+r08ajFbHPf8SgsLUs7cH+ZIUaln0cSNxNFwk49z6OBtYeptLpW8u3rXJXftLjMF74cnLPS1Z9Eq2YOZrRllbkfVIgZKTS01l22DNGbHF47vZzZVdPY3bnsp+bDLrfF/AmNL47wdN29OWUfi+z5FXw9Lakl39RuaLDvPPP9JPF9VtHhR95bujaH2nxyXxZMYGld7T3Ld1mtTp3tFdSJeEFFJLgbeszeHj5I85TOE6X+Rn8W3w19e3uyNfH4uNKEpy3Lhxb4JHtKRTtZ9IeEn4NPzYPPplx7t3eRXXt7xop+rl3xJnCYiNSEZx9GSv8ANPpTyOfG5htJThTqU16M+PGN8pW60GE9V1mpptKEpJNpSVrPpXQbWjdJQrbVk04707bnxKWbGAxcqU1OPDJrmnvT/vgBZ9I6YhRkotOTtd2tly3m8qsdnbutjZ2r8LWvfuKLXrOcpSl6UndmwtIT8C6P2b3vxtv2eq+YEzLWSHCEvwPkNYad1eEkr5vLLpK4ALzWrRjFyb81K9+joNLA6UhWbSTi0r2ds10W/vMrtXHzlSjSfoxe/i0tyfQvlyPHDV3CUZR3p9/NAWfSGko0nFNNt52Vslzf98DXoadhKUYuLV3a7tZX5kDisQ6k5Se98OS4I8QOhaNwUq9WFKO+Tzf7sV6UuxfA6xhqEacIwgrRjFRS6EVT6NdFSp4aFaqvrasU1zVP7N+mWUn2ci4AAAAAAHPNfq6wc4VPBylSqt5ppKM1m4u/NXa6pcip+OFP1U++J13WLREMXh6tCeW0vNl+7JZxkup96uuJ+ecZhZ0qk6dRbNSEnGS5NOz610gWSesVOtKMdiUW3ZNtWz4PtN2jU2XfhxKQTNHTlopSi3JLN3WfSUtHqq1rNLz07Of4rw7JkyRlwxvPf36rViMRGnGU5PzYq7+S6yF8aoerl3oidJ6XdWEYJbMU7vO9+XYs/wC0Rhr6rLW9/wDnsocN098OKefpM9vom8Zj/DS29y3JcjfwFHZjd73n2cEVzB11CV2rx4olHp1cIO/Wbmm1OKtI5p2mEjiHDtTfLaccbxPXfePdvy03TozacXKVluaVr8M+O4+y1sh6uXeiqzk2227tu7fSz4k3kldvclm30JE7NlnLebSvaTT10+KuOO35lftXJ1MfOpSoxdNxg5OrLOMb5RyW9t3suh8jY8k1f2qn7kvmXbUXV9YLCxhJfXT8+q/8TWUb8orLvfEsR5NlyfyS1vaqfuS+Y8ktb2qn7kvmdYAHJ/JLW9qp+5L5jyS1vaqfuS+Z1gAcn8ktb2qn7kvmPJLW9qp+5L5nWAByfyS1vaqfuS+Y8ktb2qn7kvmdYAHJ/JLW9qp+5L5jyS1vaqfuS+Z1gAcn8ktb2qn7kvmbGjfoplGrTlWrwnSjJOcFBpySz2bt5J7n0XOoAAkAAAAAAAAcw+l3V70cbTXKFe3dTqP8Iv8Ah5HTzxxmGhVhOnUW1CcXGUXxTVmgPzODpE/olqXezio7N3a9N3twvaW8+eSWt7VD+XL9QHOAdH8ktb2qH8uX6h5Ja3tUP5cv1Ac4B0fyS1vaofy5fqHklre1Q/ly/UBzgvX0VaveHrvE1F9VQa2b7pVd691Wl1uJueSWt7VD+XL9R0jQOiYYShSoU/RhHOW5yk85SfS3dgSAAAAAAAAAAAAAAAAAAAAAAAAABCabk9tfdX5sCbBprEqnSg3+5Gy5uxE04Trzd31vglyQFiBFaXpqFFKO5SXxInD4OpVTcLWTtvsBawVaWhK/R7xv6XwDdGEvt04JO3FJZ92/vAmgQWrmNunSk81nHq4r495o6yY/bn4OOcYu2XGX/G7vAtZ8lJLe7LpyK9Vr/sdCMVZ153b4pPi30LJdJDUMJiMS3LOWecpOyXQvkgLzCae5p9TuZFFxWicRQ8+1kt84Pd18bEzPEVZ4GrKqrS2fNe5yWVpNcALCCn6jvz633Y/my4ADCpVjH0pJdbSKprZrFKEnRovZa9Oa3r/DF8OlkVg9VcTWjtycY7Wa229p34tWf45gdCTvu3H05pXhisBNZ7N91ntU587rj22ZetBaVjiaSqJWlfZnHlJb11cV1gSIKvr9pPwVBU0/Pqu38Mc5d7su1lM1W0o6GJpyb8yT2J5/Zlx7HZ9gHWwDk30i1WsZU/y4cf8ACB1kEDprT9PB4aE5edUlBKnT4yeys3yiuL+LRQNB6PxGksRKdSb2L3q1OXKEOF7buSz5XDroPLC4eFOEYQjswirRS4Jfn1nqAAAAgdPStUX3F+bJ4r2sK+sX3F+cgNKtiJStfgkl0JFk0aoeDjsbnvfG/G/SaUdGRlQhsrz9lSvzbV7PoNLReN8FLZllFuzv9l8/n/wBJaf/AOl/EviQeD0pOkmoqLTd87/Bk1rG/qf4l8SO0FpClTjNVHZuV15reVuhAfaWn6rlFWhm0tz4vrLIRn/zWG/e/wBEvkSFGqpRUou8Wrp7smBUNLUZYer5mSfnQfLo7PkeurGB25urL0YPLpl/xv7Ubmt+6l1y/JG3qx/28fvS/wBzAr+tU28RLojFLuv+bZbtHUlClTjHcoL8VdvtZXdccDK8a0V5ttmfRnk/xt3GOhNZYQhGnWutlWjNK+S3JpZ5AWtojtYv+2rfc+KIzSettOMWqKcpvc2morpaeb6j0xGkf2jA1Z7Li9lprhdNXcXxQEdqK/rK33I/my5HP9VNJ0qE6rqy2VKKSylLc3yRZfGvB+sfuVP0gUzREVVxdPbz2qrk78XnKz7UdOObaw4OeFxG3HKLn4SnLhe+1s9j4crFm0frlhpxTqSdOfGLjJrri0nl+IGxrlRjLCVb747Movk1JLLsbXaQP0c1Ht4iPBxg+1Nr4/gaut+tMK0fBUb+DunKTVtq2aST3K+efLv9MKpYLAVasls18RaFOLyaTTs3ydnKXcBE6xYuWMxjjTzW0qVPlk7bXU22+o2tetCRw/gJ019W4KnL70Fk30yV/dZEaF1exGLjOVLZ2YtRbk3HO17Kye5W70SD1Dxv/wCfvv8ASBdtTtKftGGg271IfVz64pWfbGz7WUD6Rl/92p9yn/tNn6P9KeBxXgpZRrLZs8rTj6P/ALR62jV+kaVsbU/y6f8AtAg8fpCpXqbdWTbso5fZit0Yrh8+s7Pq9RoRw9L9n/6LinF8Xfe5f4r7+krGmdS6csFT/Z42r04bSfGpdJyjJ8W+HLdkmQP0d6yeAqfs9V2o1Jea39io8rO+5S3dDtzYHVgAAAAA0cbo2NSSk5STtbK3Nviuk3gBhRp7MYxW5JLuVjRx2h4VZbTcovja1n05reSIA0aujVKlGk5SaTVnlfLctxp+LdP9+f8Ap+RNACF8W6f78/8AT8iVw1FQhGCbaikrvfkeoA0NK6LjXUVKUo7Lfo249aPXRuBjQpqnFtpNu7tfN34G0APkkmmnmnvRBYzVWhN3i5QfKLTj3NZdhPACv4bVKhFpzcp24NpLttn+JL4vBRqUpUvRg47Pm2Vl0LcjZAFYepVD1lT/AEfpMHqPQf8A5avfD9JagB4YzCU6sHCpFSg+D/Ncn0ordfUTDt3jUqRXK8ZJdV1fvuWsAQGi9UcNRkp2dSazTm00n0RSS77ntp/V6GLcNupOKgnaMdm13a7d088kTIA0dDaMhhqUaVO7Sbbbtdtu7bsuzsRvAAVXG6i0KlaVZVasJue2lFwtGV73jeL45mWn9SaOLqyqzq1YycVFqLhbzVa+cWWgAYUobMYxW5JLuViq6b1Aw2JqzqudSm55yjBwUXLjKzi83x/5ZbQBr4DDunThTc5VHGKjtzs5StucmkrvpNgAAAAAAAAAAAAAAAAAAAAAAAAAAAAAAAAAAAAAAAAAAAAAAAAAAAAAAAAAAAAAAAAAAAAAAAAAAAAAAAAAAAAAAAAAAAAAAAAAAAAAAAAAAAAAAAAAAAAAAAAAAAAP/9k=;" vertex="1" parent="1">
          <mxGeometry x="160.07" y="402.5" width="77.5" height="77.5" as="geometry" />
        </mxCell>
        <mxCell id="oIqmAePt7HCqJZuFYAqL-24" value="Apigateway" style="rounded=0;whiteSpace=wrap;html=1;" vertex="1" parent="1">
          <mxGeometry x="317.57" y="270" width="762.43" height="60" as="geometry" />
        </mxCell>
        <mxCell id="oIqmAePt7HCqJZuFYAqL-27" value="" style="shape=image;verticalLabelPosition=bottom;labelBackgroundColor=default;verticalAlign=top;aspect=fixed;imageAspect=0;image=data:image/png,iVBORw0KGgoAAAANSUhEUgAAAOEAAADhCAMAAAAJbSJIAAAAolBMVEUAHisA7WQA8GUAHSsA8mYAACcAHCsAGioA9GYAGCoAACYADikAGSoAFyoADCkAFSoAESkA5GIABigAkEkAzlsA32AAt1QAqFAA1F0AJS0AMTAArFEAUjgA6mQANTEAok4Ax1kAaz4AnE0AXDoAOzIAQDMAKi4AiEcAdUEAzFsAv1cAgEQAYTsATDYAVzkAckAAACEAlksA/2oAf0YATjcARTQMLnchAAAHqklEQVR4nO2dWXuyPBCGIQQIoCzuG261q3b73vb//7WPgFRUYFDbiwlX7oMecZCnk0xmJpOoKBKJRCKRSCQSiUQikUgkEolEIpFIJBKJRCKRXIfma3UP4W/R3K7bbIl6979Hve5B/CXuTiXqnVP3MP6O1mREVDKatOoeyF+h6QOqqiod6E1divojFxhJbOpS9F8TgZHEV7/uwfwF1jxahAnRUrTqHs7vo7kDpqawgWPUPaBfx/6k6gHatese0G/TWanHrDp1D+l38TYBORJIgo1X96B+E9Po0RMb0p5h1j2s38Pwp0w9hQ0bFIPr3XOBkcRuYzZ+/YnkCIx4b4hE/y3IV0iCWSNiG9PsF5hQJf1WA7yN4S5P3WjGob644sc2+jrPy/x4m7XwmVTnvURf7G0Ej228+8JFmC7FTbvuQd6CoZcswv1SXAo9T/O3+pOlKHLG789AfdyK4u6K5sOofBHul2JvLOiuqOlDeI7G8/RT0HTYv6ukLyIUc54abqU5Gs/TkSdiaKN/QhvFAfopoD9tb6paMLbiXLh9X/MH1U3IQ3DhzhXdXTU/msJ2gp1IVdwKM9N0NBbL2VQJ146hYlVtWnMgpcgxYn8j0rGivrjEzSREyXDdw66ONb90jsYo4oSnnenlJoxW4lqYdN+aX7oIE8IHUYzYGV5jQp5jCGJE6z64SqCqBnMx3Onle+GPEcVwp+bkwnDmgCCBjfN03Srk0H8CRKeafrUJIyMuBZim3tvV+jgz/Gff+pVbRQIdojeipl+7VSSE6Cvg/oWZ7ylshbzsprkXFS/OoVPk/Qvm5LZJGsU1E9zBqb+6bZLin6b6VXlTFjpF7U0NuAAF/QeiyA3zNPXuwHimC1rxDfOm7z6Cy/Af9AF7dOuWUYL+Ai7DFfQBeUG8EDUDLiKCx8Kkb+DdEb23EBq/eg9+ESJeiO4W3ivG4Bd0izdJ1NewQh1WuMC7EO0lnPza4BeY0+AqmdMH/EmItnHBGIMmJP2PCmc2D1jrUd4MVjj6gMs45AvrkbcPV9nI88czrPAda3rhdmGFy48XUCHtYq3ud+BTQzr4gIsAdIFWIZwc0ulHhY+GSBVWqdHQhV3F0EhrNZoDZxZ0XUmhg1ShDzsR9ml/gikkwdo+pPlw0Ma6Npwkkxe0NuzBCh+rKHxGa0N4M2dbewsrXGJV6FTYzJ8Kr3llFOKdpbBCdaVDV0wwK6xyZrHTd2ClA+1+qLhwuBK+uXAth06x1hMr9NEEM3cGpsloozalA5dpgnsf7rbB2/7lwKW2/sab90GFaDsy4FML0n9oT8AyBkFbMG2B7fmkr7QUuFCD9pBUA2uhpG8ZPqwQb7eCDVWZyKhjuJBC0kNbTYR7acjIhv8NmHtqwONDbh4bykAo4gNED4rIeMFeh7LI8A6rK+XH+MAao4NIIRC9RjsK1pJ3BGQf3mgBLVayxOto4IXID86guxi4z/G9XbkNea96BypFoY1oOFA/Deu6ilveBk5GmJehArkRPgOBmcydEWa88uZL9uQozlP5J4j3Cg6wX7AnX/HfyxTi3isUXqsprWTwxsPy9kU6xZr9pniz0udodh4wkdk31vPfH+yyaRorLMuTeWiOnfKD4GivK72ugDnqTintgw5e20r7q+wDES7olbUJB6+WYn0XK8ScGh7wZoUpVHybuVXysFL4it7PcIrjGjKam4o5L4zs6KCDtkKTxfsqMiIZTQzFKL69R5DHMymaU2RE0htHCsdFZQxxHsdo3xfs6eTZjBQqRQrJtxgm5HXTAndKlp5WfNyP/KbFEdY8fyWSZeRJtE5RqUOk1+gLmoWTNvyCYo5Y7wwZSq6/LFMoyC3nH9xVnopkpeWvUrbCH5FmiXaMHH+a9KjnFtvY1BZkp0hpnz7gHcuID3fzim0kmAv30r6bU47hpbb8oqpoczTGPu9UZNtY4XlXFHvBn/ieY1hnOQQvtfF28FOFovnRFGd1Phd5i7p3VooKRXvKLEU/LWjwMg1vaDhRKO5PQZjWyVJk8ZGE93askL1YQs5RTuukK4HFKbz1faSQ9DsC1GaK8O7DrER2zzc96yi5inZCISoXRdhP2SyDxY/OtTZZhaHoD3rrjxkjhnM+H8151oRbkTKKPLTsq/PBhLsUc3KwK1uLFo6eYxwk7s+VMudTbK0L60YPGD/Z0j50Mcdp8kiHTRAYSWzva2+kp8Q2TEtRdOA3QmDkPK0kWSRLI1aoJUk+G1gCb4THmH78djnp+bEvTe5lsIXbGIF8LS5Y7FgiUaYbux620BskUOGyCOEd3G7b5XU4QtYN+P2VIwx9ywM4uvB50xcJt83wolk0fRdE2mjy5w5vG/ANOP5+HyQjRdCMFyItI2J++OI20hsneG+M3EpaKE2Kik3E2e7XIdo7MbfirfYpBfJH564n7dIIBXik9Dpam71CoV7QvwRNSXqFArNx8cye9PXWoJEBTUxyIQjzvaZbSZ7ko5gf1buR5DKJGO1519GJLyI0N6RJz0ZZY0MaZd+mz9A+dHU7ycuRmF9+vBXrO6CUBt/CtV1UxngYDgaDIfI7Izeh+Y7jNKXQnY/GqXsQEolEIpFIJBKJRCKRSCQSiUQikUgkEolE0lT+B4h2dnif2MTUAAAAAElFTkSuQmCC;" vertex="1" parent="1">
          <mxGeometry x="1060" y="588" width="45" height="45" as="geometry" />
        </mxCell>
        <mxCell id="oIqmAePt7HCqJZuFYAqL-29" value="" style="shape=image;verticalLabelPosition=bottom;labelBackgroundColor=default;verticalAlign=top;aspect=fixed;imageAspect=0;image=data:image/png,iVBORw0KGgoAAAANSUhEUgAAAOEAAADhCAMAAAAJbSJIAAAAolBMVEUAHisA7WQA8GUAHSsA8mYAACcAHCsAGioA9GYAGCoAACYADikAGSoAFyoADCkAFSoAESkA5GIABigAkEkAzlsA32AAt1QAqFAA1F0AJS0AMTAArFEAUjgA6mQANTEAok4Ax1kAaz4AnE0AXDoAOzIAQDMAKi4AiEcAdUEAzFsAv1cAgEQAYTsATDYAVzkAckAAACEAlksA/2oAf0YATjcARTQMLnchAAAHqklEQVR4nO2dWXuyPBCGIQQIoCzuG261q3b73vb//7WPgFRUYFDbiwlX7oMecZCnk0xmJpOoKBKJRCKRSCQSiUQikUgkEolEIpFIJBKJRCKRXIfma3UP4W/R3K7bbIl6979Hve5B/CXuTiXqnVP3MP6O1mREVDKatOoeyF+h6QOqqiod6E1divojFxhJbOpS9F8TgZHEV7/uwfwF1jxahAnRUrTqHs7vo7kDpqawgWPUPaBfx/6k6gHatese0G/TWanHrDp1D+l38TYBORJIgo1X96B+E9Po0RMb0p5h1j2s38Pwp0w9hQ0bFIPr3XOBkcRuYzZ+/YnkCIx4b4hE/y3IV0iCWSNiG9PsF5hQJf1WA7yN4S5P3WjGob644sc2+jrPy/x4m7XwmVTnvURf7G0Ej228+8JFmC7FTbvuQd6CoZcswv1SXAo9T/O3+pOlKHLG789AfdyK4u6K5sOofBHul2JvLOiuqOlDeI7G8/RT0HTYv6ukLyIUc54abqU5Gs/TkSdiaKN/QhvFAfopoD9tb6paMLbiXLh9X/MH1U3IQ3DhzhXdXTU/msJ2gp1IVdwKM9N0NBbL2VQJ146hYlVtWnMgpcgxYn8j0rGivrjEzSREyXDdw66ONb90jsYo4oSnnenlJoxW4lqYdN+aX7oIE8IHUYzYGV5jQp5jCGJE6z64SqCqBnMx3Onle+GPEcVwp+bkwnDmgCCBjfN03Srk0H8CRKeafrUJIyMuBZim3tvV+jgz/Gff+pVbRQIdojeipl+7VSSE6Cvg/oWZ7ylshbzsprkXFS/OoVPk/Qvm5LZJGsU1E9zBqb+6bZLin6b6VXlTFjpF7U0NuAAF/QeiyA3zNPXuwHimC1rxDfOm7z6Cy/Af9AF7dOuWUYL+Ai7DFfQBeUG8EDUDLiKCx8Kkb+DdEb23EBq/eg9+ESJeiO4W3ivG4Bd0izdJ1NewQh1WuMC7EO0lnPza4BeY0+AqmdMH/EmItnHBGIMmJP2PCmc2D1jrUd4MVjj6gMs45AvrkbcPV9nI88czrPAda3rhdmGFy48XUCHtYq3ud+BTQzr4gIsAdIFWIZwc0ulHhY+GSBVWqdHQhV3F0EhrNZoDZxZ0XUmhg1ShDzsR9ml/gikkwdo+pPlw0Ma6Npwkkxe0NuzBCh+rKHxGa0N4M2dbewsrXGJV6FTYzJ8Kr3llFOKdpbBCdaVDV0wwK6xyZrHTd2ClA+1+qLhwuBK+uXAth06x1hMr9NEEM3cGpsloozalA5dpgnsf7rbB2/7lwKW2/sab90GFaDsy4FML0n9oT8AyBkFbMG2B7fmkr7QUuFCD9pBUA2uhpG8ZPqwQb7eCDVWZyKhjuJBC0kNbTYR7acjIhv8NmHtqwONDbh4bykAo4gNED4rIeMFeh7LI8A6rK+XH+MAao4NIIRC9RjsK1pJ3BGQf3mgBLVayxOto4IXID86guxi4z/G9XbkNea96BypFoY1oOFA/Deu6ilveBk5GmJehArkRPgOBmcydEWa88uZL9uQozlP5J4j3Cg6wX7AnX/HfyxTi3isUXqsprWTwxsPy9kU6xZr9pniz0udodh4wkdk31vPfH+yyaRorLMuTeWiOnfKD4GivK72ugDnqTintgw5e20r7q+wDES7olbUJB6+WYn0XK8ScGh7wZoUpVHybuVXysFL4it7PcIrjGjKam4o5L4zs6KCDtkKTxfsqMiIZTQzFKL69R5DHMymaU2RE0htHCsdFZQxxHsdo3xfs6eTZjBQqRQrJtxgm5HXTAndKlp5WfNyP/KbFEdY8fyWSZeRJtE5RqUOk1+gLmoWTNvyCYo5Y7wwZSq6/LFMoyC3nH9xVnopkpeWvUrbCH5FmiXaMHH+a9KjnFtvY1BZkp0hpnz7gHcuID3fzim0kmAv30r6bU47hpbb8oqpoczTGPu9UZNtY4XlXFHvBn/ieY1hnOQQvtfF28FOFovnRFGd1Phd5i7p3VooKRXvKLEU/LWjwMg1vaDhRKO5PQZjWyVJk8ZGE93askL1YQs5RTuukK4HFKbz1faSQ9DsC1GaK8O7DrER2zzc96yi5inZCISoXRdhP2SyDxY/OtTZZhaHoD3rrjxkjhnM+H8151oRbkTKKPLTsq/PBhLsUc3KwK1uLFo6eYxwk7s+VMudTbK0L60YPGD/Z0j50Mcdp8kiHTRAYSWzva2+kp8Q2TEtRdOA3QmDkPK0kWSRLI1aoJUk+G1gCb4THmH78djnp+bEvTe5lsIXbGIF8LS5Y7FgiUaYbux620BskUOGyCOEd3G7b5XU4QtYN+P2VIwx9ywM4uvB50xcJt83wolk0fRdE2mjy5w5vG/ANOP5+HyQjRdCMFyItI2J++OI20hsneG+M3EpaKE2Kik3E2e7XIdo7MbfirfYpBfJH564n7dIIBXik9Dpam71CoV7QvwRNSXqFArNx8cye9PXWoJEBTUxyIQjzvaZbSZ7ko5gf1buR5DKJGO1519GJLyI0N6RJz0ZZY0MaZd+mz9A+dHU7ycuRmF9+vBXrO6CUBt/CtV1UxngYDgaDIfI7Izeh+Y7jNKXQnY/GqXsQEolEIpFIJBKJRCKRSCQSiUQikUgkEolE0lT+B4h2dnif2MTUAAAAAElFTkSuQmCC;" vertex="1" parent="1">
          <mxGeometry x="1300" y="588" width="45" height="45" as="geometry" />
        </mxCell>
        <mxCell id="oIqmAePt7HCqJZuFYAqL-31" value="" style="shape=image;verticalLabelPosition=bottom;labelBackgroundColor=default;verticalAlign=top;aspect=fixed;imageAspect=0;image=data:image/png,iVBORw0KGgoAAAANSUhEUgAAAN0AAADkCAMAAAArb9FNAAAAwFBMVEX///8zZ5EAAAAuZI8hXosqYo4kX4wdXIorY44XWon39/fx8fH7+/vt7e3m5ubb29vh4eGamppsbGzV1dXDw8OioqLx9PfH096wsLAjIyORkZFMTEx8fHzt8fXk6u9zc3NBQUHJycmHh4dXV1eSkpLU3eYXFxc6OjozMzO5ublkZGRbW1uasMSQqL5VfqG2xdRliagoKCh5l7Kpu8xbgaN1lLA+b5e/zNkPDw+itccATIFJdZqwv86FoLlXf6KUqr+B2pDlAAAaYElEQVR4nNVdeUPiPBMHe1EsyH3IjbKKyCEoyKOs3/9bvZTM5GjTNin6yv7+WhdaMpl7MkkymYvD9c2odT+udB5f/ry/X129/2k/3A3G5Wm1+NsjOw/X1Vb34SoGL916Nf/bo5QjX7yptcrl+yPK9XqrdlMqciMttbrtOMIYhuWq991jK1Rb9fHTUVza7T/tl5fH4ax7X5/eFJSmslArz15kI20PB+VpqTAd/FGjDFGZfhsLr2v3nch5fX94Kk+LMb+VH3Uf9YauSODoG0ir3g4Vfuq9M54WZI/XKj9BGUH7/vos0kpjRV044aXSEs1aYawpcDDqTrfcqlVLxWLBR7FUGh214k42lEEpNW3TToqRdWuo8iV9tr1XyqNSpJTnS9PbkEl9SkdfK9W8+7hrHYW0IKHtcdYd35aPZvN23J0FlfHhdqTi0LzqfYDCilQlYjF9Dw5tNq7Xqmgj89el6mha7j5JLeHVVacr/v3SbVXDSlIa1cHiMI6roNASbcGtHm0l8enO7Shaf4uj+iDWBR/Nd6z2V+tVvdH5KJR5NXzXsZ9lcWwqrqVar8gN0KymP3Q1jO74UaryvsBxYtjS8JrFViWoq2N9nTih0Z80l5+bvY/Ncjfp92Tfunni2KcmACNu3vVF5qbMGdpb/YCi0d/t14ttznEc0waYjuNa28V60wzReDNjv1ZWeH2LfruTQh18FFpEZAYSvnn5xgn5CEFqHP5zbcvISmBYtmN+HHYN8YkRs2uzROm8p5yehj7L95vLzfP8cJjPn/fLXbMfNcbMdWv4Epgbb7I8rBZbw3Zc17Sz28Vqvd9Nwi/oHeycjDgk0TFf9yILmZV4SXApt1RLRaFq7Oar7VFYjtJi+SDi4mYXb8+7fvwrfUyeX03HtCyDcsUwfF645uKwDD7fWztS5tFHbfd1yU8LZ+FjxY1yriWM7evDdSwrSlxcRzJEDv151rWjxmtYprs9NAOTsXDiyDs+5dhznoGUKVcxFprqHBfdNPZbV64I4hDN1X4ie2fz1ZXOi/C446xFApdm0kOWu+boY6YwrFCBr7SZVPYO0dMe/Dnbcd6WAas2+XDVHrdc65l/1ntzkx85MAtz/SAVO4Zr1E0q097cSZpCETnT+eB0vvGmSNsJtvvGy3cy+44TumHff4rn3kOQc82srUXbCc4rnZylFWP9pKN1Vhx9vYWZ+IS5YA/Q0FYWlqFhpV7qoDPxdICv9IXrRNkKI+fw2nRIMC5Z374w9lGbGE6KSgGb2nhNnjnJj30g5xuLFIzP+tK2Z4PaKSi9u6LCRj1fKGqHAKqOYrHV0zgcGwpKP6splQzOBzO+k2zyMKwtlU70DMMAcVPy33eUuFSDc9Gu95OcSBwMZ07H1ftIJs+wqTtB3RuI1P0RlM77SEWc+YXEqbqRqBd9UHZ4CwUhcpf4dbScguGsi3L5mkosjQ94vJE9jziffXS8mVcFBXapbUG/x0eSpM7wCH99Jdsq6U/ghKfjfOBlh3TkodceM+JaQpA2SWHKjzCf4W3rdNYy+DrmW/7qCGc1ZDcfBUuzTSVXxhYeX6abnBCsDxpoKekemhawLDSZrQqs26STSwfe3v8WzvnIUVOfV5lwB76dh4ASqRuQEIz84aUbXW6FWvINSgcwssx9JpNnbPMC86oCsWAwn9NR54ALXqbjfMSAKXkThcjJehNEEaqcNV4NvXTGHN+cT/V0JBh5KrPmwgwTD/BA/qjwYUrKuUehn3+b1hEYWzQt82Tu4RR3OXZ55N+Q9f1NxTsLtK6XJvSORQ5DBBXDaeV5YaxyYkoEs5/OnKNMHFIFObHAiVOZOfAKJc6QlHkp3aeSLIzBet/k6gTQmLqZ+HbMnrhwhdTL7oH9qQTThDho/v2sO8LdAXnrpNfnQPFIBXfG1I54h146m2ITefd+gnVZZrIySVNvLMj37qg/v+HVbpeKOmtNXvr57TaFgCYfibK5JUWdMaEpgxH0yzlWAYOwj3MTnyjYmDC8JYzPIP7jllJH6Oyeo3a5zDn2VgU4f40E6mxSc4ICi4cFFRKGNdI5u8NP2pQTjCzUERNCfIdQV6faRv4xOmP2TZjYVONWBJXNeOl3BeoKaDJLZxgVl8xryqRX9UcgXmjGDjFIXYk3mal8OQYTXz8nmFnObr7GMc8JUEfisD9nmEws5v+YxSRwPjPJIiJalTxEnFAvWqUZIPjaH4nCeBhgWFYx6XGOeIR7tJnE3XXOmH6TPLv8IVdOYX8pMI8ETdSbEyZC7Xab4kdR7RKDwLNhNpI0DytXFaTuloXT6RJrjMvTVdK0fgmSheh4DONM4sPbyERSHkvlzKGgkjL+1gK4nuiJRDkibU9DkbpeGuEye2e4Sj3YUA+OdFwYNV2hug24QCxd3QC83TcXVKSAgLYRJZrgnKDafosKSKjrp6AOhSGVM9GFCXnsKkLIHPI5JHX186kDafF+3qgcYcDaQpQawDoNNG/UzqfOJKsTjZ/zdpZ16ms64T8y/KgiAPgMCMRuROrS6B2YTMHFGjnSaOU45jlrsD4sx1jNl81+r9Fo9PqTZj/O5WEsOqaxc5e3mSksA0R2NFLxG4c+3p53zf4RzeVhodzOIxmts51LGuUyUcsBaANIHew9E/B3aRY4PP7nLHd72In9Rv39NqXUmttlVBOhPA+yIFa7otHlGI2nT53+CDD28eMww8weZL1i3l7eQpfwZmcveRdgIqUOTGbhisZfJBKDsop+nIlW7PUokR+7qKnu6TevGJa0qS6WOtFk+ksHJIqekYf0cwSsj27dVdxoMitN8gxD2gmNkEsm5EiQ3fkV2paQ32lLkEUi23w8bUf81dNph2+Ia0yan5sjls1JL4Y6A4xKhZpMYGPq3NyOUI7epLlc8p3BnhZ1tLh+JOSQPfoWk7R/u/+RWZS6c1swKqcKLUQtpA1no60e9meYssl+Zfq+zvd5r3SYyWscDHSZOrPMulbO8vuVgWzCU2mqDLW5Ao2hacRZimZ4LMxlRsTkYDichzNc2mOoIfa4TO2tXMN2F4fn/XxFhuY2otkAn9VolEn5SPod9OuZzo4nrbHZYr9qzg+ejrHKMZAC8uR2TgY0xJm/tmHtISPvnz6yBPcqPiVGKjenPx55d65LHC2Bn54+WCZyzVzt+vnGZLk2bAOWLtQtMgqEv5jMrMs6xyiQGQhM7qBbkVRYBkxKU7gEh9pKb26xCbVol17+yzThD2WthoT4GPay95CM3IjJt0CMPBapZNA7gEt4043FsESc2Qltxi5n0D9NiwiXagqCDDrOBhZKfGH0n0b+yPItUDvw5bDaCkpI/tAuRgN1XqC/m1dHL2t+Ro9JAowQ/ESArh+Q5RF0QBL7gHMCq1vQHF06y2iC3gVrjLQu7guYhQZeUTJQHE/fNv/689eHBn74OZn1wxBaUDuU05RGEwxAPzgrNmtA9D2Bh6KmAmBQg3zbcO2PrAvzAhIvYwJYgLygdriEfg9SpAnw5uG813kjFHl+hAlxleIqUeidTKDd6GlyBUWjHX7EaD7BRGsaTZhnSa3Qsp4n/cmX7X8CaqhYUYycMZpvSRwCKuuAhdAn1Hmzort+CkUjqaO0HQd8O+qEmlkRJZMHdQjhUaKPhP2pNMAVeo12mnk0WAAvPjOMGVX0OzNh6mIcgkP8AYTNT0gcRp3p1paxmSOJK+Rbat2R0e/EYnR4kOgYIbfjtjq1OT3UbWBEcU8IcqxAbSkWxl/yzrADAfGTLBXiEumQT3lOIDtjKyA8euRhGSqBOnD6ioE0BKbh0MKUe9cstcpFQtyQEXeWWUGNSmh0wUlX02pY/Q7PBfi0sLvD6KEuhGEnjASzohetYLKSQB2txyu9FBxIuPXGiXLmGKF1+OyHQDArmsvfitQpqicAjWbopZGZudnnKWlneJAUD7qk9ap+aAESWnLRpKm5BPx2yMRCO0qo2w4fgF0j3D6SDBaRoOqnlwThe2O7SHyQrykurtsRihdFHSYhnUCgwpNM/tCrHClKZjZHzKDiGiYmUEGPFyWZ4HDAYl4JxKGDL8knLBaKNhO5oTh12JweNOCOvN6HGVZdJpiYNYCD16JO0d+h2is3tXjSmY7wCMjqR5lgorxCbSVRhXioGkOw5ar+JqKfFXPl4Fs8XgTfA8RBtg79tVpbZVTjTDfKD0e8FiZtI/IarEfAa6EDuQ278hOEvTJa1QeI2hPddGSUEQGbhPyBLEgeRWOJCmxK6KAOKEiT6oNWZ3pcfsfD0Qo0WbomuhCaAfH/iU4JWPQQJA53i8Iqnk5RE2LzxKxblzoMHMWAGW2YYBpwi+wslPwgujzZOm2kUVWjCOrUpR7LwAIhSLPAUXCluOFVctrQNK3iYQnu26lDcyU+YcH8c+qINgXy1kqYOAw/ieLldaiDUSf5MfQI6oUNKC2LegL/yYdiaFPe+VwggEde8TR2Jah6aVvTm7OkRngkLAKoipDGvWRkGPCKp+PxyGQmVugtxe9xMGBo/JbXsCKg3webUs/IAIpH6hEaK23RBcYAVL/HUQKB/yc3GnDnrMkPB4ABtPxMPbA45HgET3kMrKEj4Xta+Z04cH4XR8idY+4zjrYpPh75UFN5EKqBGH5Pa30Qg2OOeejO6fig5RwWQyJP3OrySqmc48FcJjZUg9PXW9uVMI+2xxjC72OGKolTCGp8jpfovgKjTgxVIIjWrAVjFML2UWM6iYUOqEDDSk/0cVueYHNUe0lhQSNxVRVMpmYdn64CUoEO6DkKai0i92EgOR7sOle1bYrUoVHRXYNB5lH/FrBO2JHUich9GOjeGeF1itQl6Cmqh+7mRap5aJOROlLaQlsVPnQkhCofyajuTEBrkcAT3LOg3aiF52mhBxZ5h6wDT96NJk7YpK3sE3CBK/5byAL9ViYsKuCGV0HvMIGHikM4beVBqppQx1XcfqxWVsEwPsVWIZRp0GyLL8Eh6+CkplkccRiMafkEacIVAuZq2rRlqbWF4zHQSJ7+DTMbPOdNjmvBJ6gaACI5n3FmBZUljWBSeohq85EYpj7QjtnJxIOUH4bkD8VoHqQj1k2jXU/aLC4HErH3ZRM2k/hFMTSYyLqkI6PLvF1VDCuwuhPr/gl/8+la22mvpv8TQKpvQqGZDLUuMghDwCxA2UUt4M1F1MQ5YMvrJmXjPrai+fEYVB6OcTBuxlNlHS6gg+1RXNCATusYVsNKaurthzQe2xo4l0cjBgVP9HXDROK4wx8yyo1BuJU+0kHKyz86oJmQyfTAhLpEVZl1+FWItPVEM3IyULD0++URNB6zoWjUdw3I9THCVGAdnsQIrSyKIS8mIREbpTG6OOeICzS6z2BgNjayc6TOOnqYUwI3RNBoQv51HMc5Jx6h5uVBDBYWNqXCmtZdRgVsW54PxTKBA6Hgs1SxbPJh5GZOJbhNfpR9F6UdD7jmexxiIIimokNHi59ZSGQTQ410p0EhsPeA4OCCofKgQhtVKwoCRJMkearNHbBWn8kbYWbjLJ+5cZRnXsPGbfV4TK3qBV3c9qeM8slpNJrom8EH0NydezoJ34n8hSeBYg0zsE4egzavpap1cRe3y0yCG0GxXH72MQkm3W/UM5FSPKNW/Y4JcOikJq28TmnSkyADBzGD0ObPPwPCxp84oLCjN5AX16WAPLesN+X06MpMfsVbTsx9vuHYSbozoY8bMMAbCOsi+evrwnXMFRfkGdh8obygQA/bO8ZLOWYesQ7+HVvtzbk4UDzYGxy5d10rP8F23rt6VP2I23iY0TB1NiOvMTdxExdI7PeczCg6PVhxvLrL34ym5UEncDtTV66M/O41nayFI+90Y4R/dwpaum86I87kN4veXSVA7uHveEOUV3fCriA5/c36w/kP/uubzoCg0XSGVp/jIK2zTAVLpBwe8rwLoOE6zplHmxM49De8eMIIpMpHPgK7orpewt2LEEJ/2dw9r9xzjygx3MUGzeFTJEltpoDS2HpMPgNbpJaW5T4SbxrqfcVd9JMMh98WPZJcqDgctEZ54UOZbEKAA6G0UgzFzs6txdwA1VM5cD0K5kZ8WbHVvXs4Muq9/dB5GrdqRX56YbuMNESDfBdiU4XCppHDQMLP7oetyNWKdWrjaTZl7/PyeU8qNCSgbMs+AnsEiw4KTYd0eygWqGb1G7m/SVfSZB0CqgCvLf0MFBMGmJjEUjeLHpaowawSvtUs5RE6Oc4gK8XMrRjqoAMXBrdL0DyaIeSDtzlSFZxQP6yzp577CZT8xufKfVOgrx5DHXoT+DOeeQ6m5pngPZm4it3fui696EercxdA958/u/4Gdvsr6oSLCRq3WQx16BTAo8fOt7nGh4L3p6LFOl1SklM7/1IOPG7hCwZiu697SsgJjcluv97+hwcXQKbzmJECFSh5vlmIErwBFX0pqJphg3FLYVfc0CmP/jV69uLtMJ8f1qtF1vGjIZdd1TKM8QgZ6jBA86JrkewU9XGAOHqbFx6vjpVB7S3ttK4W7KIxcqe7+Eg9wHKphtCxRJXKsGQBQzxEuGEji/JRDxD3gD6Pu6REPsZkKCyBGu4r27+PmV/0il5X4G1U4xi9umkq0vaHVgM+GduhTK6veIasX1gYhrvgnD29jiu6yonMg4BF7hWooxsJpFXYBYJ8HAfU6R9nGL84f1TBFR/IDIJWLYZ5uD1WFmTQO3iKlLL2U52fsR5fI4MN4WdQFxqDZTvW3w1/SFCRhtfDGOJoEzXwwQtfe2LicQB5UsF+GU8DZdMGH5k4YFX0T4BF6j6zR8toWblcjlzraW1X+6Z4QSq7z/VP/N3noJt/wLCECkisUPRw0rTwpXNC+Y8ubOiXISzqUvu7/df6bfW2nj9vmuH7e4ucy026JBguHsMOnsAlRqwM4GeSsua6DX+xKT2KPIXNtOaSt0swZrS1E2+tx9IFro3txYMIUSTGctO72wqFTYtOdIqToTaS9wfh8VdfdxTulMb0HueBI88yUJVbsoBnMreEG2lz3AE++qtB4tlJUhRvOdrUFhbQsFDW7PAaT/MDWeGnq0I27vU/37KBq0bNBaci+rcpOZNMLIp1sQ6heNk5WiDaPNdbuUejZdJb/IgvoN9vNJ9fs44ZCLUM7rK3VNTxxwgF4BWn4xeBtOAdyjHA+7VZGtp/flt/Uk7kXzjWbl4tSWHPcD/Eqdc/rB4OVSkPy7Xi9enmai9/XbiZ1rud0I3xLxqXxefxIfk6i3eSCKxeTFaOHRi5YbkfQaXRpw5acCAIab88vrSDeXL8OKOA7SDSq9G9oWh1Mv3NKmv6Dtcy/OPpHHs75/gGHkj7Bgxc/ZlFUMRwr3tbPI39B6GPim3ZR/3m5mu9Wq3eDnvxKvliyvNpaKjyEEET5ZsubRnORT4GQm4W9ERd3Cxgmvb0Hdq/G0vaQNFQBsFy7gEX3VQFI5wo7nnfd6akDpx5PkgQxeM4JWkieVd3LT+azN/Ug1JyF992QOQ7JXWwS+vmSoJ2pTxKIZA8urL3hkQjHEUD8qi7aakjlokEhk9Ps7tOZ/ZU6Zano8if1EKwrMCBE9ChJE3I5GuM9WmpI8aJ6HlidJwCoyBRiJq41tSelaelAixsXpemt0IVMCV1kPWOuXd8M7zBlQRP/kyGP3l/eXh4ePkT+v+U1EG16TSNf36EuqNShxaqcS2rFSIjAumow0L0SQwi6q/fgNKYj38GLDMoJEcRHHW6kRj20Z2C5eGPUXfETWs86wxn43rAs1eV6CPf1c0RcAMjkZefpC4axXJYzxDDFlkdij5QNw7QC02K//G7YX6UwNYglJBcvVf8lVjvRHo+FXXg7ojZVu3E/Bl41en9oHI3fHjoPFXGrRG6pxdGnW7lAfqViO0Kx/KXgNPSXrp72mz+aPnYLXa/hlNIk+60dOHyKfVG0/8nTs6KRNqx273CwCUS/gLJS8MpFCBuRLPSju6OGKzILde/ihN1xP9rrpJA77FwNtGlYcao01y/g1ItLDPF74/8LZxCYJJB61LHZ3dX35PRfTcGTKz0TtLDI/ogxVRYH/gFdDnqNPtxyAvY3cIXiPu0vMOOABKmS9vafh8nwSKFQb2tatgh9vDLQXQsWswV6x0dC6eEkzD8QgMx0vFBjo7Vu+IddjSAQ5DV+y8ANS5I1KIOHEL1kp05yc4gfdFq8hPyH9VdhP9vlLjUU68BlSSF7Dr2S8SpKgJdfzpHyKBDoJfvXiROCzhwWIHO1mxc3SKNrU/RP/C78C06HKqks3sZT0AnrIs5t+h3MWSCpVOuNYUM4YyFrJ/FEysb6ZQehIKY8u7d/zu6zKDrpK854QLX3yQgFvVUSQKazO4Fl/t81FgYrRFoYncfabhRWZ7/HZRYoKkRikGV3btwtSO7+iBYUT9mEnqoqpec3J3gJ2hD8k/lrfWodiQOu8xKLUGXxYm6p3NCpfYy62EEU+YSlGsPIJhk6e6nFpW/BUXO6oU7yKXAzuvpxQsm2dQHYbCiaOJ2ByKYl1nKRHRZLCa5HU2CHLQDkFXXX1pTVkWVE02lNAFbaseXXHSg4FK8ngLzcKdK/uKd3Qljzqx/JS5zOWv+sQuOwgBVrvqQfI8JJOWQ2l086+CIBWBefEXacJ/xoeE/oXUZWOkYwh/LGPJM1gZ/+y8YzBOKggZ9RpBnOFm2M2Z68dkBA2mkwx6WphX2C4bt/F2yqiVUHC6zFyAIMtgh/tlYu/zuDMNy7L97ft8ILLhe6MpPCCSmYis5/fnWdGwfjmss5jtxRx0UoNsXWoEOARY7+KWcfvNzv99/NvuNwHevsW8waZ/g5QAacW+Tv0l7sS87ehaAmwqSevWm7X+QOLax6E9Mpn3NtkG2/x2xPIFK3JOcK4UW1wd/scsikWB7N+5qgW0g16N74RSTiw+dJRhz4++UpzfFQqFQvKnVB8FNkP+YVAJitqZwdF9yCSwWo6itj0zh/lnajvBiN0491v9NmWQoSrfeHHEn2yv17yHfCh6EdDUrV/+VmFIBXrU+rgwfHx86lXF99ANJ3P8AzQY0ygb/GcgAAAAASUVORK5CYII=;" vertex="1" parent="1">
          <mxGeometry x="270.00000000000006" y="821" width="29.08" height="30" as="geometry" />
        </mxCell>
        <mxCell id="oIqmAePt7HCqJZuFYAqL-68" style="edgeStyle=orthogonalEdgeStyle;rounded=0;orthogonalLoop=1;jettySize=auto;html=1;entryX=0.75;entryY=1;entryDx=0;entryDy=0;" edge="1" parent="1" source="oIqmAePt7HCqJZuFYAqL-32" target="oIqmAePt7HCqJZuFYAqL-15">
          <mxGeometry relative="1" as="geometry" />
        </mxCell>
        <mxCell id="oIqmAePt7HCqJZuFYAqL-32" value="Back-Notifications" style="rounded=0;whiteSpace=wrap;html=1;" vertex="1" parent="1">
          <mxGeometry x="518.14" y="760" width="160" height="80" as="geometry" />
        </mxCell>
        <mxCell id="oIqmAePt7HCqJZuFYAqL-33" value="" style="shape=image;verticalLabelPosition=bottom;labelBackgroundColor=default;verticalAlign=top;aspect=fixed;imageAspect=0;image=data:image/png,iVBORw0KGgoAAAANSUhEUgAAAOEAAADhCAMAAAAJbSJIAAAAclBMVEX///9ssz5qsjtnsTZlsDG726rY6817u1Pw9+uezIJpsjlksDHc7dL8/vt3uU3s9eZ/vVn1+vLk8d2y153g79f0+vHL5L2RxnKMw2uayn2WyHil0IygzYV8u1SHwWTC37Kw1prJ47tytkbQ5sSq0pO626bNRxEoAAAJRUlEQVR4nO2dbXvyLAyGV2DqjX3Rrr5Mp87q/v9ffGqdE2pJoJbi8Rw5P7vJ1UISQohvbwRBEARBEARBEARBEARBEARBEARBEARBEARBEATxvyWJD+/PcSyS0CIAivOYial4hilns488tBAD+WckWPQ8TETbV9SYfES8B3lXjbx8f7m5mq16eX9/GsXnIrQknXzW2wv8RewnoUWpZL0LjCK+f6G3mKz6FxhF06/Quu4cph4EVhP1FFrYjUnap5G5I2fz0NJ+OQsvAquX+BNa2pXCzxusYGUWWtyFZOPDzFzh29DqLix9zdFaYhxa3tvbfCY9KpTr8NHbjx9PcUMcQwvMSm92pobtQkc2Xz5X4YXpR1iBsc9FWMOioHvFZO3PU9zg/0IqPPqeo7XEUTiBi52rmWGSOVsmuQ/nMT4cX6Hk6Xo1Y64zWxxCCcwdPQXfLSvTn4xcd5MsDbXd/3QbKV//DjQ5O0oU5zACR26egqV/GwXXYJ1FRQiByd5NobrZc91w8U0IhQdXM6N4btenE/EACQ3X1AUbq+bCcQlXHmP4hAaeutCfANupCv9pChnuJMX70ALzCB4UE7Jkahpcf4eqQibKcSmQaavYqYFArCFPf4o8PyiJYqNCvjvkWXbCIlwxcELjBI9HrK5mZXJ/ECaFNy+ZfHNkVgzqMeDUBRPnWyS5+PugQaEy+5YROFP5akiF75CZYVzxfMtbksOgUP1snMISl4Ppg1MXjKuBcnZzKgaFQt3fFmNo8g+ZAt8CA9EFVtMUVsi0oDofQ29xuBR4AQ1DF4i/Q91+FCXwvwdLgYNnaeJb//DptmJN67CRaBpJYAHwgc7boCS3+NT348kataWNRBMY7g6TAoc8BZvp2c1ki/vDfWPqbQGJw6TAf8wjYEx/xtnKJqYZ6380h/YdQyQ0IE/RMHbFTo0+jXGpZPqwY2ApstR/CvzLbGYaSbGR5sDNCvUQoeIbsGT827fAGPh2qSU2Y93wAworidreaDEGXiLznAK/28aWx6slp/NGCAYprCRqERlkT/mnX4VH81mafsCwaFbYgAqrV6N6/mQPOUWvCQ0oya2743/N1wArrIJO1YRALpd5TYF/Q9NHfYWPBxqIQn2HG8xjQKkLLeGXPaapMIX6AQy0PWOlvxQ4lCHTbEVLXIIq1HzNBNqfcW8p8BG0aUqVzVtbwhdVqM8+wO1WD8NTQgNcHNpzbRserlDb4YKJIL7xY2zeoaoLqdjwrC39iSuMuFJ3MQfPtYSXhAaY5NbixY+24dsoVF5N0vqJG34SGmCSWyqJsPbZbKEw4spGCj4W8ZHQKMDM+1QJLIvWsdkoVFP3MSTQR0IDOfJTnVn7BtJGoVzdp+kcPvnpv6YPTnKzUgloVq0m10ahdjixhlPgsueEBlKfx5SVP2nf+9go1DJvUMoyupwG9OsxgNRF/UDX948WhodgpfBg/ZU9e4y/vK7pgSqbtlH7yKwUqnHDEil6ZL2+xBPybeq6N9RJ2SlUnxR2TMz7jN2QNaHldQ2zy0ohU2Y7WhQoeqxaRAsLVAdsyCNZKZT7+0fQeg3Z43Fby3avoVBx1SaFwDn+/UOz+9pCFbIeQzeDeVQUWrxDLQpp95naHhFX2OPRfox9mcU6jKZK2GPwmZrXQb9UCzOeVYgtetXKm0JmNc1h+oxUPoPa0j4VorNUzbOdTJ76frJoLGpUvQ7moXqdpWiZpWrWjJsCxn6vvo52pjmhrmf0QpxunZ9jgtUCqzbQvFNmYv0+io+fzDjp1bWKlmiqruVpDKbvPnbLTYHkF8z/RrW32Hf2eyKMRcHaXgY6OoJRQ80EOJ65Mu0z9M7RCEpJIsWd7wmpJhkrnOt7m48V9aozBtuImBHKTDiigXe/u/wC+T62U7YyrmXcN7SsN/ZPer9Lg+0uIuXx5x0Vqr4iwcx3s0zlabA7atroXCuAr2gnLtikkePeD/SxPIY6w7rd99L2e5hB9nAvEbsrqu24u7xE7d7IHEub+CisMcabv9+pmjbU1LcwVY+esKC071xiDdIaQj+3dL87y1fqW0ECGk8FbnBeX19GzhcT9a0QspC9FSnCLkq/f9UsNsHgmuVAAgxvhabIJRL9xu7I6aLhVBszcqPKY7EwWN7d3HMfkdp7TaAegSFT3GPBN1jJ81CudLCWKLaa7UduVHkt2kdyJ42jhKWdz2DiWxOIhE+er+rBrrx52TPeWVhUyfQrTVjM5/nyDOLKm0US2QbrAMbErHFVGyyIGODKLFT3FT2eJSSHFFyNnJ0bETRmg71fYoNqP+shN+3c5ByZNDLON83oK0P8KPN/ERExdCx66A+Qn9NpS2GzFNHm4bOLPZZM8H+ZFIvHZPkYFE8Oq5Lz+/Rjkoto39IAcoEFe77rZ2uwK9wybevykC3P6zRiTF6aKpT7r0NbE09U4EBtQMCiusswyvaZlCRZfDotT6N83r65m6DhevNGjifQpjsy6lTjWqCtCfvM44Ogmz8mzu4Wbwld6royHapBhkXzK7F2XDCLLR7FDtgWy6KBGS8PLsMZ2TTPHLC1mU2vSybW1gPKttCdvD+BQ/bCRE+gL0j5ZTVVJz+pTcpj4BaD0BU65amzLfoes4/Urj/vwG0iLdu0MS7XR+DRz09fxqi1weCtPpE9jjIynn4e8xark2Sj7Uza5wEGvKteAxbu6zA+rcK09zibzJOa+WJSHKsgTjhkcvR06iAgKfCGyCrUnrJ0v15tNpvVfhwJwd2afvVapmdHh7alTFZKuZQdOpoFaWSau4+zM4Ga0XprH/zI8P13any1gH4kWFNo115YnQnRB6vGuWNXV4GeLnJZYCha7xnv17chwOtXfeHvQqUFWYfTbFfC9YWsce3v2YFwvT1rsBT484Tsz1rjvc9uyB67Vzz3Sh4kyQ3jt9914F7XV7AU+FMMlOSG8dl3XgbvOV+Dlkh3J/zvBtT4+/0HL/V5XVj6Wole6vM64eXnnqo5+jo/+NSl2BJn+LazAHA5WEeBQ3bzxPnu9ZfzrgLD5GaMfDhkd22Q8sUEViF42aO5YWIXPOB+JPtnfwiB6ONs+1I/fvhHvCmFzVEnIk+UX0F+KMCK/H1VsudIN4cXchJtTOLRMxSvOT0JgiAIgiAIgiAIgiAIgiAIgiAIgiAIgiAIgiAIoif+A4XTjeZDjBJVAAAAAElFTkSuQmCC;" vertex="1" parent="1">
          <mxGeometry x="638.14" y="800" width="40" height="40" as="geometry" />
        </mxCell>
        <mxCell id="oIqmAePt7HCqJZuFYAqL-34" value="" style="shape=image;verticalLabelPosition=bottom;labelBackgroundColor=default;verticalAlign=top;aspect=fixed;imageAspect=0;image=data:image/jpeg,/9j/4AAQSkZJRgABAQAAAQABAAD/2wCEAAkGBxISEhUTExMVFRUVGBcXFxcXFxgYHhcWGhYWFxcXGBgYHSggGBolHhYVITEhJSorLi4uGB8zODMtNygtLisBCgoKDg0OGxAQGy8lICUtLS0tLy0tLS0tLS0tLS0tLS0tLS0tLS0tLS0tLS0tLS0tLS0tLS0tLS0tLS0tLS0tLf/AABEIAOEA4QMBEQACEQEDEQH/xAAcAAACAwEBAQEAAAAAAAAAAAAABwEFBgQDCAL/xABMEAACAQIBCAYGBwYDBwMFAAABAgMAEQQFBhIhMUFRYQcTInGBkTJCUmKhsRQjcpKywdEzQ1NjgvBzosIXRFSDk9LhJKPjJTRks+L/xAAbAQACAwEBAQAAAAAAAAAAAAAABQMEBgIBB//EADcRAAICAQIDBgUDAwQCAwAAAAABAgMEBRESITETIjJBUXFhgZGhsRRC0RUzUiPB4fA0YiRD8f/aAAwDAQACEQMRAD8AeNABQAUAFABQAUAFABQAUAFABQB+SaEeN7HHiMrYeP05ol73UfnUkabJdIs4dsI9WjkOdOBH+9Q/9Rf1qT9Fkf4P6HH6mn/JAM6sD/xUP/UX9a9/RZH+D+gfqqf8kdMGWsM/oTxN3Ov61HKi2PWLR0rq5dJI7VYHYb91RNbdSRPc/dB6FABQAUAFABQAUAFABQAUAFABQAUAFABQAUAFABQAUAFAHLjcfFCunLIqLxYgfPbXUK52PaK3OZTjBbyexjMq9JkCXECNKfaPYX49o+QpvRo1s+c3wr7lCzUYLwLcyeUc/wDHS30XWIcI1F/vNc/KmlWj0Q68/cpTzrZfAz2Lx8st+tlkkvt03ZvgTV+GPTDwxX0K0rZS6v7nMANgtUraRwt/I9RA/sN90/pXPaw82vqe8EvRgYH9hvun9KO1g/NfUOCXozyYW1H410pJ9Dxp+Z7YbFSR/s5HT7DMv4SK4nTVPxRX0OozlHo/uX+T8+cdF+96wcJAG+OpvjVG3Sceflt7FmGbdHz3NXkvpPjawxETJ70Z0h4qbEeF6V36JZHnXLf7MuV6iv3r6G0yZleDELpQyq432Osd6nWPGk9tFlT2mti/XbCxbxe53CoyQmgAoAKACgAoAKACgAoAKACgAoAKACgCDQB4YvFpEheR1RV2sxAA8TXUIub4YrdnMpKK3bF5nF0lHWmEHLrXH4EPzbyp7i6M33rn8kLL9Q/bX9Rf4/HSTNpyyM7cWN/LcByFPqqK6Y8MFsLJzlN7ye5Z5HzVxmJsY4SFPrv2F7xfW3gDVbI1Ginq936IlrxbLOiNjk3ovUWM87H3YxYd2k1yfIUot1yT/tx+per02K8b+hpcDmTgIrWgViN8hZ/gxt8KX2ahkz6y+nItww6Y9EXMGAhT0IkX7KqPkKqysnLq2/mTqEV0R0AVwdbILUBseM2DjfU6Iw95QfnXSnKPRtHjhF9UVGOzPwMt9LDoCd6XQ/5CKs15+RX0m/z+SGWJVLrEzmUejCFrmGZ0PBwHHnqPzphTrVkeU47/AGf8FSzToPwvYx+V8y8bh7kx9Yg9aLtea+kPKm1Gq0W9Xs/iUrcOyH/BRYeZo20kZkYb1JUjxGur04QsWzW6Kybi94s3GbvSRLHZMUOsX+IoAcd42N8D30kytFT508n6PoMaNQa5T5jJyZlOLEIJIXV1O8bjwI2g8jWftqnVLhmtmNYWRmt4s7BUZ2TQAUAFABQAUAFABQAUAFABQBBoAo85854cEl3Ok59CMbW5n2V5mrWLh2ZMto8l5sr35EKlz6+gn8v5wT4x9KVuyD2UGpV7hvPM6/lWtxcGrHj3Vz9fUR35E7H3voe2bua+IxhvGujHfXI2pfD2jyHwrjK1CrHWz5v0OqMWdvToM/N/MjC4azFetkHrvY2PursX4nnWaydSuu3XReiG9OJXX15s04FUC2FqACvAC9egV2UMvYaDVLPGh4Fhf7o11NXjW2eCLZFO+EPEyhxPSPgV9EyP9lCB5tar0NIyZeSXzKzz6l/+Fc/SlDuw8p72UfImp46Hb5yRG9Sj6Hn/ALU0/wCGf74/Suv6FP8AyX0PP6lH0PeHpQw5PahlXmNE/mKjlol3k0zpalDo0y1wmf2Ak1GUp9tGX42tVWzTMmH7d/Yljm0y8z9ZSyHgMoKWUozfxYWXSHfa4PiK8qysnFe3NL0Z7Omm9f7oXOcuZeIwl3H1sQ9dRrUe+u7v2VocTVK7+7LlIV34c6ufVFPknKs2GfrIXKnfvDDgw3irmRi13x2miCq2Vb7rG5mlnjFjBoG0c4GtL6m4lDvHLaPjWTzdPsxnv1j6jvHyo2LZ9fQ1ANUC2TQAUAFABQAUAFABQAUAQTQBl8887kwa6K2adh2V3KPaflwG+r+DgSyZf+vqU8rJVS2XUTuMxUkzmSRi7sdZOsk7gPyArXV1QqgoxWyQjlOU5bvqb3M/o/0tGbFiw2rD+cnD7PnwpFn6u23Cl/P+BljYX7rBlxRBQFUAAagALADgBSBtt7sapJdD9Wrw9JoAgmgDK5y58YfC3RfrZR6inUp99tdu7WaYYum23958o+pUvzIV8lzYt8s544zEXDSGND6kd1FuZ9I+daLH0vHp57bv4imzMsn57FCiEmygljuAuT4DWTV6XBBc+RWW7fIt8LmtjZBdcNLbmAv4yKqz1DGjyc0TrFul0iyzj6PcefUjHfIPyvVZ61j/AB+hKsC1+h6Ho4x38n/qH/trn+tY/wAfp/ye/wBPt+BzYjMLKCi/VBvsup+ZFdx1jGk+b2+RzLAuS6blRjciYmH9pBKoG8qSPvDVVuvMos8MkQzosh4k0cUUhUhlJUjYVJBHiKmlCE13luiNNrozTZIz8xkNgzCZPZk225ONfnelt+kUT8PdfwLcM22PXmfvKEWDxvbw9sNiDthcgJIf5b7A3LVfgNtcVTycR7Wd6Pquq9z2fZXLeHJ/EzLK8b2OkjoeYZWHyNNd4Wx5bNMqd6EhqZi56fSLQTkCa3ZbYJbfJ+W/WRwrLajpzobnDw/gcYmYrFwy6m4BpSMCaACgAoAKACgAoAgmgDP545yJgotLbK9xGnE+0fdH/irmFiSybOHyXVlbJyFVH4iUxWIeV2d2Lu5uSdZJP92ArZQhCqG0VskZ+UnOW75saGYmZYhAnxCgzHWiHZEOJ9/5VmNR1J3Ps6/D+RziYiguKfX8G7ApOMCa9AKAPyzgazqFC5nm4rM9M+2kLQ4VisexpQbF+IQ7l57T3bdHp+lKP+pcvkKMrNcu7W+XqYrJ+AlncRxIXc7h8ydgHM06turojxSey/70KEYSm9khi5B6NUFmxT6Z/hoSFHe20+FvGs9k6zKXdqWy9fMaU6eus/obXCYLD4ZDoJHEg2kAL4sd/eaUTsstlzbbL8YQguS2RWzZ7ZPU2OJU/ZV2HmqkVYjp2S1uoMheXSusiyybljD4gXhlR7bQDrHeNoqvbRZU9pxaJoWwn4WdwqIkJtQAWoAqcqZtYTEX62FCT6wGi33lsasU5d1PgkyGzHrs8SMTlvoyYXbCy39yTUfBwPmPGnGPrjXK1fNC+3TvOD+Rgsfk+WBtCWNkbgw28wdhHMU9qvrujvB7i2dcoPZo85Z2a2kS2iLAnWQNwvtsNw3V1CuMOcUctn4ViCCCQRrBGogjYQdxrqSUltLp6Am0+Q4cwc6hik6uU/XoNf8AMX2xz4jx31kNRwXjz3j4X9h7iZKsjs+prwaWl0mgAoAKACgAoA5Mp45II3lkNlQXJ+QHEk2AHOu665WSUI9WcWTUIuT6IRGXsrvi52mffqVdyIPRUf3rJNbbExo49Sgvn8WZ2612T4mbno2zV1DFzLrOuFTuH8Qjid3nvFI9V1ByfYw6Lrt+Bhg4qS7SSGQKQjUmvQCgCL15uAsekrOkknCQtqH7ZhvP8MHhx8uNaHSMHf8A1p/L+RTnZP8A9cfmY/N7IkuMmEUY5u52IvE8+A3+ZDfLy4Y0OKX09SjTS7Z8KHVkHIMOEjCRL9pj6Tnix/LYKx+Rk2Xy4pv+B9VTGpbRO7FTrGjO50VQFmPAAXJqGMXJqK8ySUuFbsSGdOcsuNkJJKxA9iO+oDcWG9vlurZYOBCiPNd7zZn8jJlbL4ehWYbJ80gLRxSuBtKIzDzAtVqWRVB7Skt/iyJQk1yTPOCZ43DIzI6nURcEH+91eyhC2LTW6PE5RfLk0OTMTOX6ZEQ9hNHYPb1gfRcDdexFuIrI6jh/prOXhfQe4mR20efVGppeWwvQBF6APx1q3tpC/C4o4Wc8S9TlypkuHEIY5kDqeO0c1O1TzFSVXWVS4oPZnNlcbFtJCszszFlw15Ibyw7SNroOYHpLzHjxrS4OrRt7tnJ/ZijIw3DvR5ox1OeovPfAYx4ZEljOi6G4P5HiCNR5GorqY2wcJdDuE3GXFHqPbNvLKYuBZl1X1MvsuNqn8uRFYnJx5UWOEvkaKi1Ww4kWtQEwUAFABQBFACr6U8vdZIMKh7Edmktve1wvcAQe88q0mjYu0XdLr5CfUL+J9mvmUmY+b/0zEWYfVR2aTn7KeNj4A1c1PM7CvZeJ9CviUdrPn0XUcGUsqQYVA0sixrsAJ1m25VGs+ArKVU2XS2gt2O52QrXN7GcbpJwINh1pHEJq8ib/AAq9/R8n0+5W/qFJfZHzgw2K/YyqxG1djDvVrG3Oqd2LbT/cjsWa74WeFlreoCUos8ctfRMM8g9M9iMe+b2PhrPhVrCxu3uUfLq/Yr5N3Z1tiOijeRwouzu1hvLMx+ZJraycaobvkkZ9Jye3mx55qZBXBwLGLFz2pG9p7a/AbB/5rFZmVLIt4308jQY9Kqhw/UuxVUsGU6TZyuAktq02RT3FgSPG1vGmOlQUsmO/uU8+TVL2FPkDBCfEwxN6LuAe7aR5CtTmWuuiU11SE1EFOxQY/IIFRQqKFVRYACwAFYWUnJ7y5mjjFRWy5C56WsmRr1WIUAO7FHtq0uyWDHiRYi/MVoNEvk5Ot9OvsK9RhFJTRT9GGIK45VGx0dT4DSH4fjVzWoJ0bvqmiHAk1al6jlrJjwz2dmdEeCQX7crehGN/vMdy1cw8KeTPZckurK2RkxqXPr5CmyvnRi8ST1krBdyISijlYaz4k1qcfTqaVyju/ViWzKts6spwdd76+O/zq24Ra2aRBxc99y9yLnbi8MRoyF03xyEsD3E618DVHI0yi5dNn6os1Zdtb333XxG1m1nDDjY9NNTLYOh2oT8wddjWWysSzHnwy+THNF8bY8jIZ85j6mxGFWx1mSIDbxZBx4r5c2unao4/6dr3Xk/5KeXh/vrFvWkQoZqujzL30bEhGP1UxCt7r3sjeZseR5Up1bE7Wrij1j+C7hX9nZs+j/I5wayY+JoAKACgCtzgymMNh5Jj6i6hxY6lHiSKmx6XdYoLzIrrFXByYgppGdizEszkknixNz8TW4jGNUNl0SM3JuT59WN/J8SZJycWYXcDSYe3K1gFvw9EdwvWSslLOytl5/geQ2x6N3/1inyplGXESGWVtJj5Abgo3AcK1dGPXTDhihLZZOyW8uZ2w5sY1k6xcNIV23sASOIU9o+VQS1DGUuBzJFjWtbqJWwzPE4ZSyOh1EaipH97KsyjC6Gz5pkUXKD5cmOvMrOD6ZhwzWEiHQkA1a7XDDkR8bjdWOz8X9Nbwrp5D/Fu7WG76+Zh+lfKWniUgB7MS3P231/BQvnTrRKeGt2Pz5fQXajbvNQ9D89FeSesxDTsOzCLL/iNcX8FDfeFGtZHDWq15/gNPq4pub8htiswOiaAKXPHJhxOEliX0iNJObKdIDxtbxq1hXdjfGb6FfJq7StxEXBM0bq6kq6MCDvDA8PyraShG2DT6Mz6k4y3Qz8n9JsBQddHIsltegAwJ4gkgjuNZq3Rboy7jTQ3r1GDj3upjM8M5mx0inR0I0voLe517WY8TYat1ONP09Y0eb3b6/wL8rJdz+BfdE2Sy0z4gjsopRTxdrE+Q/FVHW70oqn5/Is6dVvJ2fIZ2InCKzsbKoLE8gLms5GPE9l1Y2lLZbsQGWcpviZnmfax1D2V9VfAVusbHjRUoR8vuZu22VkuJ+fQ3GZOYqSIs+KBIcaSRbBo7mfebjXbz5JNQ1SSm66uXqxji4Sa45/Q27ZuYMrofRodHhoL+lJv1d/FxcT3GHYV7bcIv8+cyFw6HEYe/Vj00JvoD2lO3R4g7KfadqkrJdlb1fRizLwlBcUOnmZnNbLBwmJSW/ZvoyDjGdviNo7qZZ+Mr6Wtufl7lTHtdU1LyH0NYrE9GaLqhX9I+agj0sXCvZJvKo9Un94ORO3z41odK1Bvamfy/gU5uNt34/MX5rQtJoWDwzGyx9KwiMxu6fVv9pQNfiCD41idQx+wucV06o0GJb2lab6miqmWgoAKAFr0u5S/ZYYHjK/h2UH4j4Cn+iUbyla/ZCrUrekF8zPdHeSvpGMUkdiH6xu8egPvWP8ASav6vkdnRsusuX8lXCq47N30XM1fS7IRBAo2GQk+CG3zNK9Einc2/Qu6k3wL3Mh0fYNJcdGHFwoZwDvZRdf18KbavZKGO+Hz5fIo4UFO1JjtrHGgFP0sYNExMbrYNKhLgcVIAY94Nv6a0+h2SlXKL8nyEuowSmmvNHr0QykTzruMak94aw/Ea512K4YyfXc60195r4GUzkxXW4ud+Mj+SnRHwApng18GPFfBFLIlxWSkNPozwXV4FG3yMznuvor8FFZnVbOPJa9NkOcGG1Xua2lxcCgCDQBiM7swlxDGaBljlOtlN9Fzx1a1POxvTbC1SdC4J81+BfkYSsfFDk/yYabMjKCm30ctzV0IPmwp0tWxn5i6WFcv2ltkTo4xEjA4giJN6ghnPLV2R33PdVbI1qtJqpbv7FirT5t9/kNHJ2BjgjWKNQqLqAH96zzrN2WSsk5Se7Y2hCMFwxXIq8+WIwGJt/DI8DYH4E1PgrfIh7kWU/8ARl7CRwcYaSNW2M6A9xYA1tLm1XJr0M/DxJex9FqLCw2CsD1NQiaAOfHxK8bq2tWVgb8CCDXVbammjiaTi9z5zGzwrfx5xMxLkfQmb7lsLATtMUZPfoLWCuW1kkvVmmqe8EdsqBlKkAgixB2EHUQa4T2e6O2t1sI7PPIBweIKgHqn7UZ5b071PwtWx07MWRXz8S6mfyqOynt5eRbdFeU+rxTQk9mZdX20uR5gt5CqutU8VSsXl+GTafbw2cL8/wAjerLjsKAINeAInPTH9fjZ3vcKxjXuTs/ME+NbXTauyxo/X6mdyrOO2X/ehvuifJ+hhWmI1zObH3U7I/zadItZu4r+H0Qy0+vaty9Sy6QMjHE4Rggu8Z6xRxsDpKOZBNudqradkKm9N9HyZLmVdpW9uq5ibwOMeGRZYzouhup/UbxtFbC2qN0HCXRiKE3CSaGFF0ojQ7WHPWW3ONEnxFwPOs/LQpcXKfL7jNaktuceZhsuZXkxcxmlOs6gBsVRsUf3xp3i4scevgiL7bpWy3kMXosyQ0UD4hxYzW0Qf4a3sfEk+AFZ/WMhW2quPRfkZ4FXBByfV/gVbtck8ST8a08FtBIUPq/cfOaMYXBYYfyYz4lAT8Saw+W98ifu/wAmixltVH2RYYrFpEpaR1RRtLEAfGoIQlJ7RW5LKait2ZPKXSRhIzaMSTHio0V82tfwBpnVo98/Fy9ynPPqXTmZ+fpRmPoYeNftMzfICr8dCj+6f2Kz1KXlE5P9pWNv6MNuGi3/AHVN/RKfV/Yj/qFnojrw/SjMPTw8bfZZl+YNQz0KO3dl9jtajJdYl/k3pHwkhtIHhPFhpL5re3iBVG3R8iHNd72LMM+qXi5GtwuLjlUPG6up2FSCPMUrnCUHtJbMuxkpLdHllbBCeGWI7JEZe64IBrqqx1zjNeTObIccXH1Pn2aJkYqwKspII4MNRHnW8jJWQTXmjNNOL29B0Zl5zpi4lDMBOgAddhJGrTXiDt5Vj8/ClRN7Luvox9jZEbI7b8zS3pfuWzH9IGc6QQvAjXmkUrYH0FOoseBtewpppuDK6xTa7q+5RzMmMIcK6sU+TsE00iQoO07BRyvtPcBc+FanItVNbk/JCautzko+p9C4aEIqqNigKO4CwrCSlxNs0sVskj1NeHRmOkPJomwUht2oh1qneNHW3mukKv6bd2WRH0fL6lTNr46n8BO5OxhhljlG2N1fwBuR5XFa3Ir7Wtw9VsI658ElL4n0MjggEG4Osd1YNo0yZN69Pdjxxs4jjdzsRWY+AJr2EeKSRzJ7R3PnVnJuzG5NyTxJ1k+db2MVGGy8jLttvdj/AM2sH1OFgjt6Ma3+0RdviTWHyp9pdKXq2aWiPDWl8CyIquSmJzn6P48QxlhYRSNrYWujHjYeieY8qbYeqzpjwTW6+5QvwYze65MyLdHWOva0R59Z/wCL03WtY+3n9Ci8C7pyNFm/0aqjB8U4ktrEa30b+8TrYctXjS7K1mVicalsvj1LVOnqPOb3GAqAC1rDZblSTfnuMtuWx86YiPRdlO1WYHvBIrfVS4oJ/BGYmtpNG/Gf6wYPDxQrpzLEisWB0UKqF/qOrYKQ/wBJlbfKU+Ud37sZLOUK4xjzexhspZTmxDac0jO3M6h9lRqXwp3Rj1UR2gthdZbKx95nXkrNzFYnXFCxX2z2V+81r+F6jvzqKXtOX05kkMa2fRGmwvRhiGA6yaNOQDPb5UtnrsE+7FlqOmzfVo7f9ln/AOVr/wAP/wDqov69L/D7kn9N/wDY4sV0YYhR9XNE/Ihkv86lhrsH4otEctNmujRmMq5u4rDa5YWC+0O0v3lvbxtTKjOou5Qlz+hVnj2Q6pnNkzKc2HbThkZDyOo/aU6m8alvx6r1tNJkddsq33WM/NTP+OciLEWilOoNsRz4+ieR86zObpU6e/DnH7ocY+dGfdnyZz5/ZmtMTicOLyfvE9u2xl97lv79smmakqf9Kzw+T9DjLw3PecOv5Fhdkb1kdTzVlPzBrSrgsj6oUrePwLFs48YV0fpM1vtm/ntqusDG334ESfqLdtt2V8MTyMFUM7sdQF2JPzNTynXVHd8kiNRlN7Lmxs5hZn/RR10wBmYWC7RGp2jmx3nds43y2pah+ofBDwr7jnExOzXFLqbWlJfCvQPOeEMrKdjAg9xFjXsXs90eSW6aPnXEwFHZDtRmU/0kj8q3tUuOtS9UZea4Xt6DzzNxXW4LDsTc9Wqk817J+VYrNr4L5x+JosaXFVF/AuarkvMpc9ptDA4k8Yyv3rKPnVjCW+RD3Icp7Uy9hH4OLTkRB6zovmwH51tL5cNcn8DPwW8l7o+i1FhasEadAa8Z6RegGcrZSgBsZY78NNf1qRVWej+hx2kPVHTG4IuCCOIN64a26nSe/Q/V683PREZ54LqcbOtrAvpjuftfMkeFbXTbO0xo/T6GdyocNsl8yvybk+XESCOJCzHcNw4k7hzqxffCmHFN7IirrlY+FDVzZzBggAea00vMdhT7qnb3n4Vl8vVLbnwx5RHNGDCvnLmzYqopXvuXktibUAFqAC1AEMoo32B8zG5z5gwT3eC0Mu3V6DH3lGw8x5GmmHqttL4Zc4lG/BjNbw5MVWUsBJBI0UqFXG0HeNxB3g8a1FN1d0OKDE04ShLhkje5gZ5G64XENe+qKQ8dyMd/I+FItT03hXbVL3X+4yw8v/65/Jm4ypkHDYn9tCrn2tjfeFj8aTU5NtX9uTRfsprs8a3KgdHuAvfq27use3zq1/VMr/L7EP6Gn0LvJmRcPhhaGJU4kDWe9jrPnVS3Issffk2TwphDwo7qhXoSdD8JiEJsGUngCDXTjJeR5xL1PS9eHRNeAIbPKHQx2JX+YT94Bv8AVW206fFjR9jOZS2ukMnosm0sCB7Eki+Z0v8AVWd1dbZT+KQ1wH/or3NfSvYvmZ6Rj/8AT5v6PxrTDTF/8mJTzf7LFLm4t8Xh/wDGj/GDWpzf/Hn7MS0f3V7n0BWHNKU2dGcUeCi037TNqRAbFj+Q4mrOJizyZ8MenmyC++NMd2J3LecmJxRPWyHR3RrcKPDf41rMbAppXJbv1fUR25Nk3zZT6uVXdl5lfdHdkzKk2HbShkZDwB1HvXYagvxarltNEsLbIdGNjMrPFcYOqkAScC9hscDay32HiKyufp7xnxLnEc4uUre6+pRdLeSv2WJUfyn8yUPxYeIq9omRs3U/df7lfUat9pr2Zm8wssjC4pSxtHKOrflcjRbwPwJpjquM76G11XMqYVvZ2e47RWPY/wCTJFB6TQAUAFABQBFqAKTOrNyPGxaLanF+re2tTwPFTvFWsPLnjz3j080V8ihWx2fUSGOwbwyNFINF0NiOfEHhvBrZ1WQurUo9GZ+UXXLhfkNzo7ziOKh6uQ3miABJ2umxX79x5699ZTU8PsLeKPhY7wsh2Q2fVGuvS0ulFnbnJHgo9IjSka4jS9rkbSTuUbzVvCw5ZM9o9PNlfIvVMd/MT+Wc4MTiiTLIxG5FJVB3KNvjetZj4VNK7sfm+oktyLLHu3yKocttWXGL5NECe3NGozcz2xOGYB2M0W9WN2A4ox1g8jq7ttLMzSq7E3FbP4dC5RmTr2UuaHDk7HRzxrLG2kji4P5HgQbi1ZW2uVcnGS2Y7hNTjuhN9Iq2yhNz0D/7a1rdI/8AGj8xHm/3mbTojb/0sg4Sn8CUn1tf669i/p39t+5uKUF/czfSOt8nzctD/wDYtXtMe2TEq5v9lijzea2Kw5/nRfF1FanNX/x5+zEtD2sXufQBrDmlERndlc4rFSSX7KkpGOCKSPibnxraadjqihLzfNmcybHZNs0mYOZazr9IxAuhP1cesaVjrZuV9g30u1PUpQk6q+vmy3iYamuOf0GTFkyFVCrFGFG4IoHlas+7Zt7tv6jVVxS2SRkM8cxIpI2lwyCOVRfQXUsg2kW2K22xG3fyaYGp2VyUbHuvwUcnCjJOUeQrsHinikWRDZ0IZTzB38txHOtNbXG6HC+jQphJwkmh6aEePwYv6E8YPNSRfVzB+VYpOWNdy6xZoNldVz6NCPypk98PK8MgsyGx4EbmHIjXW0oujdWpx8xBZCVc2n5DO6Os6RMgw0rfWoLKT+8QfNgNvEa+NZnVMF0z7SHhf2G2Fk8ceCXU3INKS+TQehQAUAFABQAUAL/pTyDpxjFIO1Hqk5xk6j/SfgTwp1o2W4T7KXR9PcW59HEuNdV1MFmvlY4XExy37IOi44o2pvLb3gU8zsdX0OPn5C3Ht7OxS/7sPpTcXGw7KxPR7GjXNCNz2ymcRjJWvdUYxoOCoSD5tpHxrZaZQqqI+r5mey7HO1v5Gj6Pczo50+k4hdJSSI0Ow21F24i+oDkaX6pqU4S7Kt7erLeHiRmuOa+RvMTm7hHTQbDxaO6yKLfZIAK+FJI5V0XxKT39xjKitrZxQo89c3foU4VSTHIC0ZO0W2qTvIuNfAitVpuZ+pr73VdRJl4/Yy5dGaXojykdKXDk6rdYvI3Cvb/KfOl2uUpcNq9mXNOs6wM90iNfKE3LQH/trTDSP/Gj8ypnf3mbTokX/wBLIeMp/AlJ9ae969hhp39t+5uKT7l4pc84dPA4lf5bHxXtD5VZw5cN8X8UQ5K3pl7CNwsui6Ns0WVvJgfyrbXR4oSj6/wZ+D2kj6GxL/VsR7BI8jasFFd7b4mlb3jufOYOrnX0BJdDLt9WfQmb6KuGgC+iIo7d2iKwV7btk313Zp6klBJeh33qIkBqAPnzLyqMTOF9ESyW++a3WI26IN9dkZq5JWPYbvRyxOT4b++B3abWrJ6mksmWw6wt+xjueOfeaoxkenGAJ4x2d2mu3QJ+R3eNSadnPGls/C/+7nmXjdqt11Qn1LxP6yOjdzKwPwIrWPgth6piLnB+mw0c0M/Um0YsSQkuwPsWTv3K3wO7hWYzdKnU+OrmvwOMbOU+7PkzdBhSgYo/V6AC9ABQAUARpCgNzA57Z7xIj4eDRldgVdtqKCLEe83dqHwpzp+mTm1ZPkvuxdl5kYrgjzFZWp6iboPDMLKBmwMLH0kBjP8AQSoPiAp8axOo1KrIkl7/AFNBiT46kxN5ZiKYiZTtEsn4z+Vq1+JJTpg16IR2raySfqN/o6xqSYGIKdcd0YcCCT8QQfGsnqdcoZMt/PmO8KalStvLkaYmqBbFj0u41S8EIsWUM7cg1goPfYnwrQaFU+9Py6CnUpptRK/oohJxjNuWJr/1Mtvkasa5JdlFfEi06L7Tf4FHnfNp43ENt+sI+7ZR8qvafHhx4L4FbJe9smMvouh0cAp9t5G/zaP+ms3q8t8l/DYb4C2p+Zr70t2Lm6PHFwh0ZDsZSvmLV7B8MtzyS3i0fOskRUlW2qSp7wbH5Vv4SU4J+vMzElsx9Zr4sTYOB9t41B7wNFviDWHyodnfJfE0VMuOpP4CVzjyYcNiZYSDZWJXmh1qeerV3g1sMK9XVKXy+giyK+Cxo3nR3nbH1a4WZgjJqjZtQZdy3OxhsHEWpFqmBOM3bBbp9fgxjhZUeHgkMMUjGW/IzOeGdceEjZVZWnIsiA30b+s/ADbzphhYM8ia5d1dSrk5UKo7eYmFVnYAXZ3NhxZmOrxJNbDdVQ38kIUnJ/Ef2Qcn/R8PFD7CAHmdrHzvWFyLe1slP1NJVDggolgRUPUlMrnfmZHjBppaOcDU25+AcfntHPZTLB1GeM9nzj6fwU8nEjbzXJijypkubDOY5kKNuvsYcVOxh3VqqMmu6PFBiWyudb2ki0yHnfi8LZVfTjHqSdoD7J2r3A25VWydMpu57bP1RLVlzr8916G1yf0nQMPronjPFbOPyPwpPdolsfA9/sX4ajB+JbFzFnzk9tf0gD7SOvzWqctMyY/sLCzKX+4Jc+snr/vAP2VdvkteR0zKf7AebSvMpso9J0C6oYnkO4tZB+Z+FXKtEul42kV7NRgvCtzFZczwxeKurPoIfUj7II947W87cqc4+mU089t36so25dtvLfZFXkvJkuIcRwoXblsUcWOxR31ZvyK6I7zexBXXKx7RR05x5FfByiJ2DHQV7jZrvcDuINcYeWsmHGl57Hd9Lpkos3vRDPeCdPZkDfeQD/TSHXI7XRa81/uMtNfckviV3Sfm6yv9LjF1awlA9VhqDnkRYHmOdWNHzVw9jPqun8EWfRtLtF0MfkTLU+EfThe1/SU61YbtIfntpvk4leRHaxfyUarp1Pus02I6TMUy2WOJG9qzHxAJsPG9LYaHUnzk2i3LUZtckY6ed5XLOWd3OsnWWY7P0ApvGMaYbLkkUW5Se/qN3MjIv0HCvJLqkcGR/dVQSqeAuTzNZPUMn9Vcow6Lkh1i09jVu+r5ignlLMznaxLHvJJNa2uKjDYSSe8mx7Zo4QxYPDoRYiNSR7zDSPxJrEZc+O6UviaLHjw1pFxVbcm2A16AjM+cD1OOmW2p26wdz9o/5tIVstLu7THW/lyM/lw4bX8eZuOibKGlh3hJ1xPcD3X1/iD0l1qnhuU/Jr8DDTrN4OPoWmemaq41AVIWZB2GOwj2G5c91VcDOljT584vqTZOMrY/ET2UcBLA5jmQo3A7xxB2MOYrXU5Fdsd4PdCOyuUJbSRMeUZ1XRWaUL7IkYDyBryWNS3u4J/HYO0kvNnhFGzsFUFmY6gASSeQGs1I5Qrju3sjlcU3y6jQzDzLMBGIxA+t9RNvV+83Fvl8szqWpK3/AE6/D6+o4xMTg78+v4N27hQSSABrJOoAc6TJb8kMG0jNY7P3ARm3Wlz/AC1LD72w+dX69LybFuo7e/IqzzaY+e/sTgc/MDKdHrShP8RSo+9s+NFmmZEFu47+wQzapPb8l3jMHDiI9GRVkRteuxHIg/mKqQsnVLeLaZYlCM1s+ZiMsdGKElsNKU9yQaQ7gw1jxvTjH1uceVsd/iuovs06Le8HsZPHZj4+L9zpjjGwb4aj8KaV6tjT89vcpTw7l5fQq5Mj4ldRw8w/5b/pVpZlD6TX1InTYvJhHkbEsbDDzH/lv+lDzKPOa+p52Fj/AGv6Fpgsx8fL+50BxkYL8NZ+FVbNWxoee/sTwwrZdF9TV5H6MUFmxMpf3I+yO4sdZ8LUrv1ub5VLb4vmXKtOj1m9zdZPyfFAgSJFRRuUfE8TzNJrLZ2Pik92MIVxgtkthW9LH/3af4S/iatLof8AZfuKNR/uIs+h7/ef+X/rqvrvih8yXTf3DHdAQQRcHaDwrPb7PcabboxWWejfDyktC7QE+qBpJfktwR4G1N8bWLq1tLmULdPrm91yZTJ0WyX14lAOUZJ8iwq5LXVtyh9yBabLzkjV5vZmYbCEOAZJPbe2r7IGpfnzpXlajdetm9l6L/cuU4ddXxPx0i4/qcDIAdctoh3N6X+UNXWl09rkx36LmGbPhqa9RQ5JwPXzxQ/xHVT3E9o+VzWryreyplP4COqPHNL1PoVVA1CsJuaZBXPCz3Y/VdALnpcybdYsQB6JMb9za1PmCP6hT3RL+Gcq3580K9Rr5Ka9jK5g5W+jYxCTZJPq25aXonwa3gTTPVaO1o3XVcynh29nYvToO8VjzQHhjcHHKujIiuvB1DDyNdRnKD3i9jmUIyWzRStmVgCb/R18CwHkDVr+oZO3jZB+kq/xLTJ2SYINUMSR8dFQCe87TVey+yx7zbfuSwqhDwo7JHABJNgASSdw31Glu9kdt7CUzyzqfGSFVJWBT2V9u3rtx5Dd31rtP0+NMFOXi/HwEWVkuyWy6f8AeZT5OyTPPfqYnkttKjUO8nVV27Jqq8ctitCqc/CtyMo5KngIE0Tx32aQ1HuI1GinJqt8D3Z7OmcOqLvMrOt8HIqOScOxsy+xf114cSN/fVDUdPjfBzjyl+Sxi5TraT8I6UYEXGw7KyezXUep78z9UHoUAFABQAUAFACV6SsTp4+QewqJ420j+Ktdo9fDjpvzbYhz5cVrRqOiCC0M8ntSBfuoD/rpZrc97Yx9EXNNj3W/iMEUkGRNABQBBoAUnSplXrMQsCnswi7f4ja/guj5mtPomPwwdj8/wJdQt4p8K8j99FGTNPEPOR2YlsPtv+ig/eFea1fw1qvzZ7p1W8uLyQ2azI5CgAoAr8uZOXEwSQtsdbX4Hap8CAfCpaLXVYpryI7a1ZBx9RA4nDtG7RuLMjFWHAg2NbquasgpLozNyTi2mN/o+zl+lQ9XIfrogA19rrsD8zuPPvrJalhOizePhfQd4eQrY7PqjXClpdJo2AigDNdIuLMeAmttfRj8HYBv8t6vabX2mTFP3+hUzZcNLE9knBdfNFCDbrHVb8ATrPgLmtdkWdlVKa8kJK48diXqP3AYJIUWONQqKLAD+9Z51hZzlOTlI0cIKC2RGUcDHPG0UihlYWIPzHAjbeva7ZVyUo9QnBSWzEDlPBmGaSIm/VuyX4gEgHxFq3VFna1Rn6ozdkeCbXoxz9H+LMmAhJ1lQUvyVio+AFY/UK1DJkkPsSXFUmaKqRZCgAoAKACgDwxmJWNGkc2VAWJ5AXNewg5yUV5nM5KKbZ894/FmWWSVtsjs55aRvbw2eFbympVVRivJGZsnxycvUdOYOTjBgYlI7TAyN/WSw8lKjwrH6hd2uRJr2+g/xK+CpI0VUiyFAEGhgV+XsqLhoJJm9Uah7THUq+JIqbHpd1qhHzIrrFXByYgsTO0js7G7OxY8yTetxCEa61GPRGclJybY8MzMj/RcKkZHbPbk+21tXgLDwrGZ2R29zl5eXsP8Wns61H5l9VQshQAUAFACu6VMg6LjFoOy9lltua1lbxFl8BWi0XL60y91/Ao1Cnb/AFF8zD5Ox0kEiyxNouhuD8wRvB2EU6vpjdBxmhfXNwlxJ9B2ZrZyxY2PSUhZFtpxk61PEcVO41jcvDnjS2fTyY/x8iNsd/P0LwGqpYJNAGa6QcGZcBMALlQsg7kYM3wBq9ptiryYt+31KuZDipYm8m4wwzRyqLmNle3Gxvbx2Vr76u1rlH1WwhrnwSUvQfeSspx4iNZYmDK3mDwYbiOFYa6qdU3Ca2aNJXZGyO8WRlfKcWGiaWVgqr5sdyqN5NFNM7pKMFzYW2RrjxSEJlHFmWWSVtRkdnPK5Jt4VuaK+zrjD0Rm5y4pOXzHVmHgjDgYVYWYguRw0yWA8iKx2fYrMiUkP8SDhUkzQVTLIUAFABQBF68AXHSjnCLDCRnWbNMRuG1U7ztPcONP9Hw25dtLounuKs+/l2cfmY7NLIxxeJSK3YHakPBF2jx1DxptqGT2FLkur5Io41Xa2JeXmPdBYWrFmiSP1QehQBBoAUHSRnF9Im6iM3ihJuRsaTYT3DWO+9anSMPs49rLq+nsI87I7SXCuiPLo5yD9IxAlcfVwEMfek2qvh6R7hxrrV8vs6+BdZfg8waOOe76Iclqyg9JoAKACgAoA5soYNJo3ikF0cFSOR/OuoWOuSlHqjmcFKLi/MRGcOR3wk7Qvu1o3tIdjfkeYNbbDyo5FakvmZy+l1SaZy5Px0kEiyRMUddhHxBG8cjUt1MLYuE1ucwslB8URs5qZ9RYm0c1optljqVz7pOw+6dffWVzNMsofFHnH8DqjNhPuy5M2ANKy6QygjXQeCbz1zQfCu0sSlsOxvqF+rv6re7wPh36vTtRjauCx7SX3EmViSr3lHoZrCY2SI6UUjoeKsVv3220zsqrsW0kmU4zlHoyMXjJJTpSyO54uxa3dfZRXTVX4Y7Hspzk+89zU5kZnviXWaVSsCkHWLdaRsA93id+zuV6lqUa4uuvm39i3iYkrHxS6IcSissPCaACgAoAgmvAMhnpnkmFUxRENORs2iPm3Pgv5U0wNOlkS4pco/n2KWVlxrWy6ii7cj+s7u3eWYn4kmtW+CqHokJOcpfF/cdGZObowcNmsZZLGQ8OCA8B871js/M/U27rwroPsWjsoc+ppBVItE0AQTQBiekTOr6Ohw8TfXONZH7tDv8AtHd4nhTbTMF3S7SfhX3F+Zk8C4I9WKzJ+CeeRIoxd3NgPmTyAuT3Vp7rY01uUuiE8ISskooe+b2R0wsCQp6utj7Tn0mP97AKxGRkSusc5GjpqVcFFFnUJKFABQAUAFAEUAUOeGbi42HR1LIuuN+B4H3TsNW8LLljWcXk+pWyaFdHbzEji8M8TtHIpV0NmB3GtnVbGyClEQSg4y2fU8qkfM5NPkDPjFYayk9dGPVcm4HBX2jxvSvK0qq3vR7rLdOZZDk+aGDkfP3Bz2DP1Ln1ZNQvyfYfhSHI0vIq8t18BnVm1T5b7P4mmRwwuCCDvGsGqDTT5ltNMpMdmdgZSS0CgnaUun4SKt15+RWtozZBPFqn1ROBzPwMJDJAhI2FruR3aRNeWZ+RYtpTZ5DEqjzUS8AqmWCa9PQvQAXrzcCvyrlvD4ZbzSKnAE6z3KNZqerHtte0FuRWXQrXeYus5OkWSS6YUGJdnWH0z9kbE79Z7qe4mjJPit5v0FeRqDfKBiIIXlcKgZ3c6gNZYn+9tO5TrqhvLkkUEpTlt6jazIzNGF+tms05Gq2sRg7hxbifAc8rqGovIfBHw/kdYuIqlxS6/g2VqVF4mvQIvQBls9c7UwaaCWadh2V3KPbflwG+mGBgSyZf+vmVMrKVS2XUTksryuWYs8jnWdpZifnWujCFUNlySETbnLn1Y38ws1foidZIB18g1+4u3QHPif0rJ6jnPInwx8KHeJjdmuKXU1tLNi6TXoBQAUAFABQAUAQRQBlc9M0Vxi6aWWdR2W3MPYflwO6mGDnSxpbftfVFTKxVct11E7isM8TtHIpR1Nip2g/3vrX1WQsjxQfIQyi4vaSIgi0mC6SrfYWNhfgTu8dXMUWTUFu0/kCjvyPbHZOmhNpY2S+wkaj3MNTeBrivIqt8D3/J1KuUOq2IwWPmh1xSvHv7DFQe8A2NFlFdnKcUwhZOHhZf4XP/AB6bZFf7aA/FbVRno+PLya9mWI51q6v6lrD0ozj0oI27mZfyNVXoUfKbJ1qMvNfc6U6VG34UeE3/AMdRvQn5T+3/ACdf1J/4/ch+lRt2EHjMfl1derQvWf2/5D+pP/H7nLiOk/EEdiGJeZLN+lSR0KG/OTZw9Sl6FJlDPTHTXBnKA7owE+I7Xxq5XpeNB78O/uV55lsvPYoWYs1ySzHebkk/M1fUYwXJbL6Ffm36s02QcxcViCC69TH7TjtEe6m3ztSzK1amvlDm/h/Jbpw7J+LkhoZvZs4fBraJbufSkbWzeO4chqrN5OXbkPeb5enkNqceFS5L5lzaquxYC9ABpV6Bhs8c/EhvFhiHl2F9qxn/AFNy2Dfwpvg6XK18dnKP5F+TmqPdh1FZJI8rkks7udZ2szH5mtNGMKobLkkJ25Te/VjTzEzL6i084BmI7K7RED83+WwVmNR1F3dyHh/I4xMRQ70upuQKUjAmgAoAKACgAoAKACgAoAgivAKDOnNWHGr2uzIPQkG0cj7S8vKruJm2Y0uXTzRWvxo2r4iey5kSfCSaEy29lhrVxxU/ltrWYuZXkR3g+fp5oR3UyqfM7c3s65sKNA2lhO2J9Ytv0Sb6Pds5VDl6dXd3o8peqJKcqVfJ816M2WT8JkfKHoxiKU7UBMTDuAOi3hek1k87E5N7r6ovwjjXrpz+hOJ6LoT+znkXkwVvlY11DXLV4op/Y8lpsf2yZWS9F049HERnvVl+V6sx12HnBkT02XqczdGWM3PAf6n/AO2pFrlL/azl6dZ6oE6MsYdrwD+pj/poeuU+UWeLTbPVHXB0WzX7eIjA36KMfmRUUtdX7Yki02XnIt8F0Y4ZdckksnK4QfDX8aqWa1fLwpL7k0dOrXi3Zp8l5Aw2H/Ywoh9q12+8bt8aW25Ntvjk2XIUVw5RRZ2qElJoAi9AFVlzOLDYRbyyAHcg1se5Rr8TqqxRi23PaC+ZDbfCtd5ivzmz6nxQKR3hiO4HtMPeYbByHxrSYek1096zvP8AAovzZWco8kZ3JuTpcQ4jhQux3DYBxY7FHM0wvyK6Y7zexVrrlY9oobeaGZceEtI9pJ7eluTkg/PbWUztRnkPhXKPp/I7x8ONXefNmsApcXCaACgAoAKACgAoAKACgAoAKACgDlx+BjmQxyoHU7QRfy4HnXVc5Vy3i9mczhGa2khbZx9G8iXfCEuu3q2PaH2WOpu46++tDiayn3bvqKr9Pa51/Qwk8LRsVdWR12hgVI8DrFO4zhZHiT3X1FrjKEtmtjQ5Gz5xmHsNMSoPVk1m3Jx2vO9UMjSaLOaXC/h/BaqzLYfFGzyZ0l4Z9UyPEeNtNfNdfwpPdot8ecOf5L9eoVvqtjT4HL+Fm/Z4iJjw0xf7p10vsxra/FFr5FuF9cukkWQqAlJoAKACgDgx2WcPD+0niTkzqD3WvepYUWWeGLfyI5Wwj4nsZrKXSPhI7iPTmPujRH3mtq7gaYU6PkT5y7q+JVsz6o9OZjssdIOLmusdoF9zW1ubn8gKb4+jUw5y7zKFufZPlHkjKks7ayzux5szH5k0y2hXHlskvkU95Se3U2ObvR7PNZ57wx+z67DuPoeOvlSnL1mEOVXN+vkX6cCUvHyQzskZHhwyaEKBRv3ljxY7Sazl187pcU2Nq6o1raKO8VCSE16AUAFABQAUAFABQAUAFABQAUAFABQAGgCvyrkaDErozRq43EjWO5hrFS05FlL3g9iOdUJraSMNlboxG3DTW9yQXHg41jxB76c0a3KPK2O/xX8C63Tl1g/qZHKOaWNhvpQMwHrJ2x/l1jxFNadSxrP3be/IpTxLY9Y/QpHFjY6iNoO0eFXU4yXIgaa6nvBjZU9CSRfsuw+RridFUvFFfRHqskujO1c5MYNmKm++aheBjP8AYiT9RaukmSc5cb/xU33zR+gxl+xB+pt/yZxz5Rmf05pG+07H4E1LHGqj4Yr6Ijdsn1Zy3F+ZqXuryOebLfJ2bWMn/Z4d7H1mGgPNrVUtz8evxSXsuZPDGsl0j/BrMk9GLnXiZgo9iMXP321DyNKr9bXSqPzf8FyrTv8AN/JG5yNm7hsKPqYgDvY9pj3sddJr8u659+QxrohWu6i2FVyYmgAoAKACgAoAKACgAoAKACgAoAKACgAoAKACgAoAKACgDmxWCjk1SRo44Mob511GyUX3XscyhGXVFTNmdgG24aMfZBX8JFWY5+Qv3sheLS/2o426Psnn903hJJ/3VN/Vcr/L7IjeBT6fcB0fZPH7pv8AqSfrXv8AVcr/AC+yD9BT6fc6ocy8AuzDoftXb8RqGWoZL/eztYlK/ai1weTYYrCOKNLeyir8hVads5+Jtk0a4R6JHZXB2FABQAUAFABQAUAFABQAUAFABQAUAFABQAUAFABQAUAFABQAUAFAEGgEQKGesmvDkDQBBr1HSJr08JrwAoAKACgAoAKACgAoAKACgAoAKAP/2Q==;" vertex="1" parent="1">
          <mxGeometry x="1023.43" y="278.71" width="42.57" height="42.57" as="geometry" />
        </mxCell>
        <mxCell id="oIqmAePt7HCqJZuFYAqL-35" value="Back-Options" style="rounded=0;whiteSpace=wrap;html=1;" vertex="1" parent="1">
          <mxGeometry x="678.14" y="402.5" width="160" height="80" as="geometry" />
        </mxCell>
        <mxCell id="oIqmAePt7HCqJZuFYAqL-36" value="" style="shape=image;verticalLabelPosition=bottom;labelBackgroundColor=default;verticalAlign=top;aspect=fixed;imageAspect=0;image=data:image/png,iVBORw0KGgoAAAANSUhEUgAAAOEAAADhCAMAAAAJbSJIAAAAclBMVEX///9ssz5qsjtnsTZlsDG726rY6817u1Pw9+uezIJpsjlksDHc7dL8/vt3uU3s9eZ/vVn1+vLk8d2y153g79f0+vHL5L2RxnKMw2uayn2WyHil0IygzYV8u1SHwWTC37Kw1prJ47tytkbQ5sSq0pO626bNRxEoAAAJRUlEQVR4nO2dbXvyLAyGV2DqjX3Rrr5Mp87q/v9ffGqdE2pJoJbi8Rw5P7vJ1UISQohvbwRBEARBEARBEARBEARBEARBEARBEARBEARBEATxvyWJD+/PcSyS0CIAivOYial4hilns488tBAD+WckWPQ8TETbV9SYfES8B3lXjbx8f7m5mq16eX9/GsXnIrQknXzW2wv8RewnoUWpZL0LjCK+f6G3mKz6FxhF06/Quu4cph4EVhP1FFrYjUnap5G5I2fz0NJ+OQsvAquX+BNa2pXCzxusYGUWWtyFZOPDzFzh29DqLix9zdFaYhxa3tvbfCY9KpTr8NHbjx9PcUMcQwvMSm92pobtQkc2Xz5X4YXpR1iBsc9FWMOioHvFZO3PU9zg/0IqPPqeo7XEUTiBi52rmWGSOVsmuQ/nMT4cX6Hk6Xo1Y64zWxxCCcwdPQXfLSvTn4xcd5MsDbXd/3QbKV//DjQ5O0oU5zACR26egqV/GwXXYJ1FRQiByd5NobrZc91w8U0IhQdXM6N4btenE/EACQ3X1AUbq+bCcQlXHmP4hAaeutCfANupCv9pChnuJMX70ALzCB4UE7Jkahpcf4eqQibKcSmQaavYqYFArCFPf4o8PyiJYqNCvjvkWXbCIlwxcELjBI9HrK5mZXJ/ECaFNy+ZfHNkVgzqMeDUBRPnWyS5+PugQaEy+5YROFP5akiF75CZYVzxfMtbksOgUP1snMISl4Ppg1MXjKuBcnZzKgaFQt3fFmNo8g+ZAt8CA9EFVtMUVsi0oDofQ29xuBR4AQ1DF4i/Q91+FCXwvwdLgYNnaeJb//DptmJN67CRaBpJYAHwgc7boCS3+NT348kataWNRBMY7g6TAoc8BZvp2c1ki/vDfWPqbQGJw6TAf8wjYEx/xtnKJqYZ6380h/YdQyQ0IE/RMHbFTo0+jXGpZPqwY2ApstR/CvzLbGYaSbGR5sDNCvUQoeIbsGT827fAGPh2qSU2Y93wAworidreaDEGXiLznAK/28aWx6slp/NGCAYprCRqERlkT/mnX4VH81mafsCwaFbYgAqrV6N6/mQPOUWvCQ0oya2743/N1wArrIJO1YRALpd5TYF/Q9NHfYWPBxqIQn2HG8xjQKkLLeGXPaapMIX6AQy0PWOlvxQ4lCHTbEVLXIIq1HzNBNqfcW8p8BG0aUqVzVtbwhdVqM8+wO1WD8NTQgNcHNpzbRserlDb4YKJIL7xY2zeoaoLqdjwrC39iSuMuFJ3MQfPtYSXhAaY5NbixY+24dsoVF5N0vqJG34SGmCSWyqJsPbZbKEw4spGCj4W8ZHQKMDM+1QJLIvWsdkoVFP3MSTQR0IDOfJTnVn7BtJGoVzdp+kcPvnpv6YPTnKzUgloVq0m10ahdjixhlPgsueEBlKfx5SVP2nf+9go1DJvUMoyupwG9OsxgNRF/UDX948WhodgpfBg/ZU9e4y/vK7pgSqbtlH7yKwUqnHDEil6ZL2+xBPybeq6N9RJ2SlUnxR2TMz7jN2QNaHldQ2zy0ohU2Y7WhQoeqxaRAsLVAdsyCNZKZT7+0fQeg3Z43Fby3avoVBx1SaFwDn+/UOz+9pCFbIeQzeDeVQUWrxDLQpp95naHhFX2OPRfox9mcU6jKZK2GPwmZrXQb9UCzOeVYgtetXKm0JmNc1h+oxUPoPa0j4VorNUzbOdTJ76frJoLGpUvQ7moXqdpWiZpWrWjJsCxn6vvo52pjmhrmf0QpxunZ9jgtUCqzbQvFNmYv0+io+fzDjp1bWKlmiqruVpDKbvPnbLTYHkF8z/RrW32Hf2eyKMRcHaXgY6OoJRQ80EOJ65Mu0z9M7RCEpJIsWd7wmpJhkrnOt7m48V9aozBtuImBHKTDiigXe/u/wC+T62U7YyrmXcN7SsN/ZPer9Lg+0uIuXx5x0Vqr4iwcx3s0zlabA7atroXCuAr2gnLtikkePeD/SxPIY6w7rd99L2e5hB9nAvEbsrqu24u7xE7d7IHEub+CisMcabv9+pmjbU1LcwVY+esKC071xiDdIaQj+3dL87y1fqW0ECGk8FbnBeX19GzhcT9a0QspC9FSnCLkq/f9UsNsHgmuVAAgxvhabIJRL9xu7I6aLhVBszcqPKY7EwWN7d3HMfkdp7TaAegSFT3GPBN1jJ81CudLCWKLaa7UduVHkt2kdyJ42jhKWdz2DiWxOIhE+er+rBrrx52TPeWVhUyfQrTVjM5/nyDOLKm0US2QbrAMbErHFVGyyIGODKLFT3FT2eJSSHFFyNnJ0bETRmg71fYoNqP+shN+3c5ByZNDLON83oK0P8KPN/ERExdCx66A+Qn9NpS2GzFNHm4bOLPZZM8H+ZFIvHZPkYFE8Oq5Lz+/Rjkoto39IAcoEFe77rZ2uwK9wybevykC3P6zRiTF6aKpT7r0NbE09U4EBtQMCiusswyvaZlCRZfDotT6N83r65m6DhevNGjifQpjsy6lTjWqCtCfvM44Ogmz8mzu4Wbwld6royHapBhkXzK7F2XDCLLR7FDtgWy6KBGS8PLsMZ2TTPHLC1mU2vSybW1gPKttCdvD+BQ/bCRE+gL0j5ZTVVJz+pTcpj4BaD0BU65amzLfoes4/Urj/vwG0iLdu0MS7XR+DRz09fxqi1weCtPpE9jjIynn4e8xark2Sj7Uza5wEGvKteAxbu6zA+rcK09zibzJOa+WJSHKsgTjhkcvR06iAgKfCGyCrUnrJ0v15tNpvVfhwJwd2afvVapmdHh7alTFZKuZQdOpoFaWSau4+zM4Ga0XprH/zI8P13any1gH4kWFNo115YnQnRB6vGuWNXV4GeLnJZYCha7xnv17chwOtXfeHvQqUFWYfTbFfC9YWsce3v2YFwvT1rsBT484Tsz1rjvc9uyB67Vzz3Sh4kyQ3jt9914F7XV7AU+FMMlOSG8dl3XgbvOV+Dlkh3J/zvBtT4+/0HL/V5XVj6Wole6vM64eXnnqo5+jo/+NSl2BJn+LazAHA5WEeBQ3bzxPnu9ZfzrgLD5GaMfDhkd22Q8sUEViF42aO5YWIXPOB+JPtnfwiB6ONs+1I/fvhHvCmFzVEnIk+UX0F+KMCK/H1VsudIN4cXchJtTOLRMxSvOT0JgiAIgiAIgiAIgiAIgiAIgiAIgiAIgiAIgiAIoif+A4XTjeZDjBJVAAAAAElFTkSuQmCC;" vertex="1" parent="1">
          <mxGeometry x="798.14" y="442.5" width="40" height="40" as="geometry" />
        </mxCell>
        <mxCell id="oIqmAePt7HCqJZuFYAqL-37" value="&lt;font face=&quot;Courier New&quot; style=&quot;font-size: 36px;&quot;&gt;Proyecto de GestiÃ³n de Archivos&lt;/font&gt;" style="text;strokeColor=none;fillColor=none;align=left;verticalAlign=middle;spacingLeft=4;spacingRight=4;overflow=hidden;points=[[0,0.5],[1,0.5]];portConstraint=eastwest;rotatable=0;whiteSpace=wrap;html=1;" vertex="1" parent="1">
          <mxGeometry x="30" y="30" width="850" height="50" as="geometry" />
        </mxCell>
        <mxCell id="oIqmAePt7HCqJZuFYAqL-38" value="" style="endArrow=none;dashed=1;html=1;rounded=0;" edge="1" parent="1">
          <mxGeometry width="50" height="50" relative="1" as="geometry">
            <mxPoint x="40" y="240" as="sourcePoint" />
            <mxPoint x="1490" y="240" as="targetPoint" />
          </mxGeometry>
        </mxCell>
        <mxCell id="oIqmAePt7HCqJZuFYAqL-39" value="" style="endArrow=classic;startArrow=classic;html=1;rounded=0;exitX=0.5;exitY=0;exitDx=0;exitDy=0;" edge="1" parent="1" source="oIqmAePt7HCqJZuFYAqL-21">
          <mxGeometry width="50" height="50" relative="1" as="geometry">
            <mxPoint x="150" y="260" as="sourcePoint" />
            <mxPoint x="200" y="210" as="targetPoint" />
          </mxGeometry>
        </mxCell>
        <mxCell id="oIqmAePt7HCqJZuFYAqL-40" value="" style="endArrow=classic;html=1;rounded=0;entryX=0.14;entryY=0.029;entryDx=0;entryDy=0;entryPerimeter=0;exitX=1;exitY=0.5;exitDx=0;exitDy=0;" edge="1" parent="1" source="oIqmAePt7HCqJZuFYAqL-2" target="oIqmAePt7HCqJZuFYAqL-24">
          <mxGeometry width="50" height="50" relative="1" as="geometry">
            <mxPoint x="270" y="160" as="sourcePoint" />
            <mxPoint x="630" y="167" as="targetPoint" />
            <Array as="points">
              <mxPoint x="424" y="160" />
            </Array>
          </mxGeometry>
        </mxCell>
        <mxCell id="oIqmAePt7HCqJZuFYAqL-41" value="Front-End&amp;nbsp;&lt;br&gt;Registration" style="rounded=0;whiteSpace=wrap;html=1;" vertex="1" parent="1">
          <mxGeometry x="440.57" y="120" width="160" height="80" as="geometry" />
        </mxCell>
        <mxCell id="oIqmAePt7HCqJZuFYAqL-42" value="" style="shape=image;verticalLabelPosition=bottom;labelBackgroundColor=default;verticalAlign=top;aspect=fixed;imageAspect=0;image=data:image/jpeg,/9j/4AAQSkZJRgABAQAAAQABAAD/2wCEAAkGBxATEBUQEhAVDxURFRAVFhAWEBUVFRgYFRIWFhUWFxUYHSggGBolHRUVITEhJSkrLi4uFx8zODMtNygtLisBCgoKDg0OGxAQGy0lICUuLTcvMC01LTIvLS0tLy0tMi03LS0tMi0vLy8tLS0tNy0tLzUtLS0tMi8vLS0uLS0tLf/AABEIAOIA3wMBEQACEQEDEQH/xAAbAAEAAgMBAQAAAAAAAAAAAAAAAwYCBAUBB//EADoQAAIBAgMEBwYFBAIDAAAAAAABAgMRBAUhEjFBUSJhcYGRsdEGEzJSocFCYrLh8CNTcoKSwhUkQ//EABoBAQADAQEBAAAAAAAAAAAAAAAEBQYDAgH/xAA1EQACAgECAwUHAwMFAQAAAAAAAQIDBBEhEjFBBRNRYbEiMnGBkaHRweHwFDNSFSMkQvE0/9oADAMBAAIRAxEAPwD7iAAAAAAAAAAAAAAAAAAAAAAAAAAAAAAAAAAAAAAAAAAAAAAAAAAAAAAAAAAAAAAAAAAAAAAAAAAAAAAAAAAAAAAAAAAAAAAAAAAAAAAAAAAAAAAAAAAAAAAAAAAAAAAAAAAAAAAAAAAAAAAAAAAAAAAAAAAAAAAAAAAAAAAAAAAAAAAAAAAAAAAAAAAAAAAAAAAAAAAAAAAAAAAAAAAAAAAAAAAAAeNgHNzbNo0Y7tqT3R+76iRRju1+RCzM2ONHxb5IrNfPcTJ395s9UUkvUs44lS6FBPtLJk/e0+BlQ9oMRHfNTXKUV5qzPksOqXTQ+19p5EOuvxO3gPaSnPSovdPnvj48O8hW4U47x39S1x+1q57Wey/sduLTV1qnxITWhapprVHoPoAI61aMU5SailvbdkfYxcnojzOcYLik9EcDHe08VpSjtfmlou5b39CfXgt7zehT39sRW1S183y+hyK2d4iX/wBHHqikv3JccWqPQrJ9o5Ev+2nw2M8Ln+Ig9Z+8XKS++8+TxKpdND1V2nkQe71XmWzLMwhWhtx0to48UyquplVLRmixcmGRDij814G2ciSAAAAAAAAAAAAAAAAAAADxsA16lQAo2PrurVlLfd2iurdFfzmX1UFXWkY3Jtd9zl4vb9CzYHK6dOKTgpS4yavr1X3Iqbcmc5bPRGkxsCqqCTSb6tmVfK6E99NRfOPRf0PkMm2PX6nq3s/HsW8dPhscXH5FOHSh/Ujyt0l3ce4sKcyM9pbP7FLldl2Ve1D2l9/3+RBleb1KLsntQ4wb07uTOt2PG34+JHxc6zHei3Xh/ORccDj6dWO1B9q4p8mintqlW9JGnx8iu+PFB/sa+aZrCitdZPdBb36I900Ste3LxOeXmV48fa3fRFRxuNqVpdJt69GC3LsXMt66oVLb6mZvybcmXtfJI6GByCT6VR7K+Vb+98CLbnJbQ38ywxuyJS9q56eS5nYoZfShupx7WrvxZBlfZLnJlxXh0V+7Bevqa+b5XCdNyhFRnFN6K17b00jtjZMoySk9mRM/ArnW5QWkl4dTkezeL2K8VfSp0X3/AAvx8ydl18VbfgVHZl3d3pdJbfgu5SmrAAAAAAAAAAAAAAAAAAABHUYBz8dO1Ob5Rk/ozpUtZpeaOORLhqlLwT9CrZJT2sRTX5r+Cb+xc5L0qkzK4EeLIgvP03Lw6ZRGwIp0wCPcAczNcojUvOFoT+ku3r6yZj5br9mW69Cszezo3e3DaX2f88SvUa1SjUurwktGn5NcUWcowtjvujPwstxrNVs0KdOpWqaXnKW9/d8kHKFMPBCMLcmzbdv+fQteVZRCkr/FPjP7LkiovyJWvwXgaXEwYY615y8fwdNUyOTiOrAAigAUiXQq6fgn+mX7GgXtQ+KMU/8Abt26P0Z9EM+bUAAAAAAAAAAAAAAAAAAAENYA52Yr+jU/wn5HWj+5H4ojZn/zz+DK77Ov/wBmn/t+lltl/wBpmb7Nf/Jj8/Rl5KQ1p40AQVYgHKzTHqlHnJ/DH7vqJGPQ7ZeXUhZuZHHhr1fJFZpU6lapZdKUtW35vki3lKFUPBIzMIW5Nui3bPaNWpRqXXRlF2afHqfNCUYWw8UxCdmNbqtmi75bjYVoKcexx4p8iltqdcuFmrxsiN8OOPz8jbORII6gBrcQCkY3WrP/ADn+pmgq9xfBGKyN7ZfF+p9DjuM+zaLkeg+gAAAAAAAAAAAAAAAAAENYA1K0NqMo84yXij1B6STOdseKEo+KZUMoqbNem/zxXjp9y8vWtcl5GRw5cN8H5r8H0AoTZHkmAaOYYuNODnLcvq+CR7rrdkuFHK+6NMHOXQpWIrTq1Np6uTslwXJdheQhGqGi5IyFts8izifNlky2lSoxt7yDk/iltrw7CqvlZbLXR6dDR4ddGNDTiWr5vVGGcYelWjtRnD3kVp049JfK9fA6Y1k63pJPT0OPaFNWRHihJcS81v5HEyrMJUam0tU9JR5r1RPvpVsdPoU2JlSx7OJcuqL3RqxnFSi7qSumUkouL0ZroTjOKlHkzyoeT0asnx5A+N6LUpOHW3VivnnH6yNBL2YPyRi6/wDcuXm/Vn0Qz5tQAAAAAAAAAAAAAAAAAAARVQDRr4mENZyUe1/Y9wrlP3Vqcrb66lrOSRTK0kptxem03F9V7ovop8KUvAx1jSsbhy12OrX9pq7+FRh3Xf19CLHBrXPVlhPte+XupI0a2a15b6su57PlY7Rx6lyiiJPNyJc5v09DVnUb3tvtbfmdVFLkiPKcpe89SaGCqvdTm/8AVnh3VrnJHaOLdLlB/RmX/ja39qXgef6mr/JHv+hyP8GP/HVv7UvAf1NX+SH9Dkf4MjqYSpFXdOSS47Lt4nqNsJbJo5zx7YLWUWvkYU60o/DKUeyTXke3FPmjnGco+62vgbVPN8Qt1WT7bS8zlLGqfOJIhn5EeU36+pO89quLjJRe0mr2aaurXOX9FWpJrUkvta5wcZJbo18nqQjXhKb2Yxbd7N8Hbd12OuQpSrajzIuHOEL4ym9Ei9UMRCavCSmuaaZSShKL0ktDXV2wsWsGn8CU8nsAAAAAAAAAAAAAAA8bANTH5jTpK85W5RWrfYjrVTOx6RRHyMmuhazfy6srOP8AaGrPSH9OPjLx4dxZVYUI7y3f2KHI7Vts2h7K+5zaOHqVHeMXNvfL1kyRKyFa3ehCrouvesU35/uzLG4KdK21bpJvR33cD5VdG3Xh6HrJxLMdpT6nTyXBUZ09qUdqSbTu3bmtCHl3WQnonsWfZuJRdXxSWrTMs5nCnHYhCMZT3tRV1H9/U84kZ2S4pN6L1PfaM6qId3XFJvwXJfuamRZf72d2ujCzfW+CJOXd3cdFzZB7NxO+s4pe6vv5Fs90UxqR7oAwlSAIpR0aeqejR9T0eqPjSa0ZU8ywbpVNng9Yvq9UXlFythr16mRzMZ49vD06fzyO1l0qdan04Rco6S6Ku+T7yvyOOmfst6PkXWE6cqr24pyXPb7nPzvC0qezsKzldvVtWXaScO2yzXieyIHaePTTw92tG/Q1sHltSrFyhbou1m7N6X0O1uRCuSUiJj4Vt8HKHQjnTq0pXalSlweq8Gt57UoWLbRo5ShbRLdOLOvl/tLOOlVe8XzLSXo/oRbcGL3hsWOP2vOO1q1Xj1/csuExcKkdqElJfVdTXArZ1yg9JIvqb4XR4oPUnPB1AAAAAAAAAABjKQByc6zZUo2Ws5bly62ScbHdr1fIgZ2aseOi3k+X5KpCNWtU41JS3v15Itm4VR8EZuMbcmzbeT/nyRYMBkEI61P6j5fhXdx7yttzZS2hsvuXuN2VXDez2n9v3/mx03StolZciE3qWqSS0RzPaDD7VHaW+Dv3PR/Z9xMwp8NmniVvatPHRxLnH06nKyLFqE5KTtGUW++OvlcmZlTnFNc1+pV9mZKpsak9mvQ1K9SVWpe13NpJfRI7wjGqGnREO2yeRa5dW9v0Rd8uwcaVNQXDVvm3vZS3WOybkzV41CorUF8/iRZpmcKMbvpSfww4v0R9oola9FyPGXlwx46vdvkis4jPsRJ6T2FyjFebuy0jh1RW61KCztPIm9np8DLDZ/Xi+k1UXJpJ9zR5nhVyW2x6q7Vvg/afEvP8osGFxMKsduHeuKfJlXbVKuXDI0OPkQvhxw/8Ic1wXvabS+KOse3l3nTGu7uevR8zjn43f1NLmuX4+ZWssxXu6ilwekl1fsWuRV3kNPoZ3CyHRapdOT+H7GWb4jbqyad1HorsXHxuecWvgrS6nrtC/vb21yWy+RZcqwrhRitza2n2vUq8mzjsbNFg091RGL5838zanFNbMkpJ8Gro4ptPVEmUYyWklqjj4/IIy6VJ7L+RvovsfAnU5zW0/qU+V2RGXtU7Pw6fscSjWq0Kl1eEo70+PU1xRYSjC2PiimhO3Gs22aLplOYxrQ2lpJaSjyfoU19Lqlo+RqMTLjkQ4lz6o3jiSwAAAAAAAeSYBrVZgFGxVWVWq3vc5WS77RXkX9cVXWl4GMuslfc5eL2/QueWZdGlBRWr/FLm/QpbrnbLVmqxcaOPDhXPq/E3lE5EkhqxANWok04vc00+8+ptPVHmUVJOL5MpeJouE3B/hdvRl/XNTipLqYu6p1WOD6Ha9lcFeTrNaQ0j2tavuXmQ863RcC6lr2Rj8Una+nL4ljq1CrNCUnNsQ51pN8G4rsWn87S8xoKFaRkM6123yfhsvkaZ3IgAOr7OV3Gts8Kiaa60rp+fiRM2ClXr4Fl2Va4X8PSRZpaFOagq2e4XYqbSWk9e/j695cYdvHDR80ZftTH7q3iXKXr1/JHk2E97WjHgulLsXrou865Fnd1tkfCo765R6c38EXtxKI2BFOmAQNWANPN8Aq1N6dOKbi/+r6iTjXuuXkyBn4ivr1XvLl+Cv5BinCvDlNqDX+W762LLKr4635FD2fc674+D2fz/AHL0UhrQAAAAAAAR1ADVkAUqpGVKrbjTlp3O6+xfxashr4oxc4yot06xfoXvA4uNWCnF6PhxT4plHZW65cLNdRfG6CnE2DwdiOogDSq6a8gtz43otWUzG19upKfN6dm5fQv6q+7gomMybndbKfj6Hc9lcb8VF9co/wDZffxIWdVymvmW/Y+RzpfxX6nYrMrS9KZmFJxqyXW2ux6ovqJ8VaZjsyt13yi/H13Nc6kYAHV9m6DliE+EE5PwsvMi5kuGprxLDsutzyE/DctFZFMaoq+f4ransLdDf/k9/h6lthVcMOJ9fQzXa2Rx2d2uUfUjyHF+7rxb3S6Mux7n42O2TXx1tEbs+/ur0+j2fzL0UZrjxoAgrRAOdmONVKDfF3UVzfojtRU7J6dOpEzMmNFbb5vkVvJMO514Lk1J9kdfRd5b5E1GtszeDU7L4rwev0L6URrwAAAAAAAYTQBqzQBy86yz3q24fHFbvmXLtJmLk92+GXL0KvtHB79ccPeX3/c4GBxtWhNuOnCUHuduDXMsrKoWx3KGjItxp6x+aZbMtzylVsr+7n8rfk+JVXYs69+aNHjdo1XbPZ+DN+qyMTzh5/iNmk1xn0fX6ErDr4rF5Ff2nd3dDS5vb8/Y42SYFVajUvhUXftei9e4sMq51xTXMo+z8VX2NS5Jf+fn5Gt06NXlKnLy+zXmdfZth5Mj+3j2+cX/AD6lvpVlUgpx3SXhzRR2QcJOLNfTbG2CnHqaGZ5cqiutJLc/sztj5DqfkRc7BWQtVtJfzQ4FXAVYuzpy7UrrxRaxvrlyaM7Zh31vSUX8t/QkwuVVqjsoOK+aS2V9TzPJrhzf0PVOBfa9o6eb2LblmXxoQ2Vq3rKXN+hU33O2WrNLiYkceHCufVkGbYtU4OXHdFdbFFXeTURmZCoqc+vT4lWwGGdWqo83eT6uL/nMuLrFVDX6GYxqZZFyj48/1M83wvu60orRPWPY/wCNdx8x7O8rTfM9Z1Hc3OK5c18GXHKMV7yjCfG1n2rR/wA6yovr4LGjS4d3fUxl16/FG3KRxJRw8zz2nC8Yf1JdXwrtfHuJlOHOe8tkVmV2pVVtD2n9vr+CtVJ1K1TjOUtEl5JcEWcYwqjtsjPznbk2b7tlwyPK1RhrrOXxPl+VdRU5N/ey25GkwcNY8N/efP8AB0yMTwAAAAAAAeMAiqQAIGrAGlj8up1dZLZlwmt/fzR3pyJ1cuXgQ8rBqyN3s/FfzcruNyirT1ttx+aOvit6LSrKrs66Mz2R2fdTvpqvFHmFzatDRT2l8stV6o+2Y1c+a+h8oz76toy1Xg9zzMswdXZvHZ2U9E73b4nyjHVWuj5n3MzZZPDqtNDqeztalGDvOKlJ7m7Oy0W/v8SJmxnKWyeiLLsmymFbTklJsz9osFtRVaOrirStxjwfcMK7hfdy+R97VxuOPfQ6c/h4/I0/Z3HbE/dSfRm9Hyl++7wO2ZTxx4lzXoROy8vu593Lk/s/3LPKiVJpT2NEAmjGwBHVmAUzOcb7ypp8MdI9fNl1i093DfmzJ9oZXf27e6uX5OzkuDVKntz6Mp2bvpZcF9yDlWuyfDHki57Ox1RVxz2b+yNP2krUp7DjOMpRumk76b19fMkYUZx1UlsQe1rKrOFwkm14GtlmczowlBRUru6bei0s9OPA7XYytkm2RcXPljwcUtdfsQYzMq1XSU3Z/hWi8Fv7z3XRXXyRxvzLrtpy28FyJ8DklWpq17uPNrXuj6nO3LhDZbskY/Zl1u8vZXn+C05bltOkuitXvk97/nIq7b52v2jQY2JXjrSC38epvnIkgAAAAAAAAAA8aAMJQAIJUwDB3QBo4rAUp/FBX+ZaP6bztXkWQ5Mi3YVF28o7+K2ZVK8UpyUdUm0uejsXcG3FNmTtio2OMeSbNqtlFeP4Nr/Fp/TecY5dT6kqfZuTH/rr8DWcJx3qUO5o7KUJcmmRXCyvmmvqiI9HI6UM9xK095e3OMX9bEZ4lL6E+PaWSv8At9l+CRe0WI5x/wCCPn9FUe/9VyfFfQP2ixHzR/4If0VXgP8AVcnxX0Netm1eSac9Ho0oxXkj3HFqi9UjlZ2hkTTi5bP4Gjc7kImjRqT3RlPrs39Tw5whzaR2VVtr2Tf1ZOsqrbLk47KSb1avor7jl/VVapJkj/TsjhcnHRLxIsvoxnVjCV7SdtN+7Q6XScIOUeaOOLXGy6MJ8mXHB5ZSh8MEn829+LKWy6c/eZq6cSmn3I/Pr9TejA5EgzSAPQAAAAAAAAAAAAAAeNAEVWIBp1tE3yTfgj7FatI8zlwxbKdgIbVWC5zj53ZfWvhrb8jHY0eO6KfVou0qZQGzI5QANTG4OFSLi0k+Erapnaq6VctSLk4ld0HFrfxKrUpyhPZktYvc9U/VF1GSnHVPmZOcJU2cMluv59CxYLD4arDaVKKfGOujKu6y+qWjkaLGoxMiHHGC814EOZ08PSjf3cXJ/CtfF67j3jyutl7z06nPNrxcaGvAuJ8l+pxsFhZVZqEeO98EuLLC2xVx4mUePRK+xQj/AOFww2BjCKjGK042V31tlJO2U3q2a6rHrqioxXImlTOZ2I1C+nMJ6HxrVaFLovYqr8k19JfsaCXtQfmjFwfd2ryfoz6IkZ82p6AAAAAAAAAAAAAAAAAAARVWAc/Hv+lUf5J/pZ0p/uR+KOGU9KJvyfoVnII3xNPtf6WXGV/akZjs5f8AJh/OjLzslGa4wnTANWcADn5tlqqxutJx3PmuTJWNkd09HyK/PwlkR4o+8vv5FcwmJnSndaNaSi+PUy0trjbHRmdx77MazVfNHk5VK1T5pSdkl5LkkfYxhTDwSPk5WZNuvNsuWUZZGjC2+T1lLr5LqRT33u2WvToafDxI48NOr5v+dDf2TgTDCogDW4gFJx6tVqf5z/Uy/p3hH4IxeStLp/F+p9CpvRdiKF8zZxeqRkfD6AAAAAAAAAAAAAAAAAAQ1gDSxcL05rnGS+jPdT0mn5o45EeKqS8n6FVyOdsRTf5reKa+5dZK1qkZXAlpkQfn6l9KI2B4wCGrEA5OZZjGkucnuj93yRIox5Wvy8SFl5sMdb7y6IrE5Tq1L22pSe5It0o1Q05JGYlKzIt15yfgZ4PFTo1NpKzV04teKfI+WVxtho+R6pusxrOJc1zT9C6ZZmVOtG8XZrfB716rrKe6iVT0ZqMXLryI6x59UbpxJRhUANTiAUjEvaqSt+Kcrd8tDQQXDBa+Birnx2y06t+p9EirJLkUDNolotD0+H0AAAAAAAAAAAAAAAAAAiqoA1lvAKXi6TpVXFaOErxfVe8X5F/XJWVp+JjL63Rc4+D2/QvGXY6FWCnF68Y8U+KZS21OuWjNXjZEL4KUfmvAyxOMpwV5zUe1/bieYVyntFanuy6utazkkV3MvaK/RpK352vJepPpwetn0KbK7X19mn6v9F+Tj4XC1K0uinJ8ZPcutsmWWQqjuVdNFuTP2d31b/Vlny/Lo0lprJ75fZckVF+RK178vA02JhQx47bvqzzM8shWV/hmt0ufVLmeqMmVW3NHjMwIZC15S8fyVmrSq0Z63hJbpJ7+tPii2jKFsdt0ZudduNZvszvZb7TL4ays/wC5Fad8eHcQbcF86/oW+N2uvduXzX4O3DFU5q8JxkuppkGUJR2ktC4rursWsGmczNsdGnB69JpqK49vYjrj0uya8CNnZUaK3v7T5FfyPDe8rwXCL2n2R187LvLTJnwVtmdwKe9viui3fyL4UZrwAAAAAAAAAAAAAAAAAAAYTQBqzQBzc4y1VkpKynHc+DXJkrGye6ej5Fdn4KyFxR2kvv5Fbq4OrB6wknzSfmi1jbXJbNGdnjXVveLX88Ue0sBWm9Kcn1tW+rPkr6482j7DEvsfswf8+J18D7ON61Zf6R+8vQh253SC+bLTH7H63P5L8/j6ljw+GjCOzGKilwSK+UnJ6yZd11xrjwwWiMp0zyeyGUACGvSjOOzOKkuT+3I9QnKD1iznbVC2PDNao4eM9n3vpSv+WW/uZY1Zy5TX0KS/seS3qfyf5OVVwFWL1pyXWlf6olxvrlykisniXwftQf0/Bnh8trTdo05drVl4sTvrit2fa8O+x6Ri/nt6lvyXK1Rjv2pS+KX2XUVORe7X5GkwsNY8PFvmzokcmgAAAAAAAAAAAAAAAAAAAMAinAAhdMAKmAZxpAE0YgGQAAMJRAIpUgDB0wBGmATwgASAAAAAAAAAAAAAAAAAAAAAAAAAHmyALAHoAAAAAAAAPLACwB6AAAAAAAAAAAAAAAAAAAAAAAAAAAAAAAAAAAAAAAAAAAAAAAAAAAAAAAAAAAAAAAAAAAAAAAAAAAAAAAAAAAAAAAAAAAAAAAAAAAAAAAAAAAAAAAAAAAAAAAAAAAAAAAAAAAAAAAAAAAAAAAAAAAAAAAAAAAAAAAAAAAAAAAAAAAAAAAAAAAAAAD//2Q==;" vertex="1" parent="1">
          <mxGeometry x="558.1400000000001" y="157" width="42.43" height="43" as="geometry" />
        </mxCell>
        <mxCell id="oIqmAePt7HCqJZuFYAqL-44" value="" style="endArrow=classic;html=1;rounded=0;entryX=0.5;entryY=0;entryDx=0;entryDy=0;" edge="1" parent="1" target="oIqmAePt7HCqJZuFYAqL-24">
          <mxGeometry width="50" height="50" relative="1" as="geometry">
            <mxPoint x="600" y="160" as="sourcePoint" />
            <mxPoint x="699" y="270" as="targetPoint" />
            <Array as="points">
              <mxPoint x="699" y="160" />
            </Array>
          </mxGeometry>
        </mxCell>
        <mxCell id="oIqmAePt7HCqJZuFYAqL-45" value="" style="endArrow=classic;html=1;rounded=0;exitX=0.5;exitY=1;exitDx=0;exitDy=0;" edge="1" parent="1" source="oIqmAePt7HCqJZuFYAqL-18">
          <mxGeometry width="50" height="50" relative="1" as="geometry">
            <mxPoint x="1000" y="250" as="sourcePoint" />
            <mxPoint x="1000" y="275" as="targetPoint" />
          </mxGeometry>
        </mxCell>
        <mxCell id="oIqmAePt7HCqJZuFYAqL-46" style="edgeStyle=orthogonalEdgeStyle;rounded=0;orthogonalLoop=1;jettySize=auto;html=1;entryX=0.05;entryY=1.052;entryDx=0;entryDy=0;entryPerimeter=0;" edge="1" parent="1" source="oIqmAePt7HCqJZuFYAqL-21" target="oIqmAePt7HCqJZuFYAqL-24">
          <mxGeometry relative="1" as="geometry" />
        </mxCell>
        <mxCell id="oIqmAePt7HCqJZuFYAqL-49" value="" style="endArrow=classic;startArrow=classic;html=1;rounded=0;entryX=0.75;entryY=1;entryDx=0;entryDy=0;exitX=0.5;exitY=0;exitDx=0;exitDy=0;" edge="1" parent="1" source="oIqmAePt7HCqJZuFYAqL-15">
          <mxGeometry width="50" height="50" relative="1" as="geometry">
            <mxPoint x="523.14" y="697.66" as="sourcePoint" />
            <mxPoint x="441.14" y="577.66" as="targetPoint" />
            <Array as="points" />
          </mxGeometry>
        </mxCell>
        <mxCell id="oIqmAePt7HCqJZuFYAqL-51" value="" style="endArrow=classic;html=1;rounded=0;exitX=0;exitY=0.5;exitDx=0;exitDy=0;entryX=0.5;entryY=1;entryDx=0;entryDy=0;" edge="1" parent="1" source="oIqmAePt7HCqJZuFYAqL-5" target="oIqmAePt7HCqJZuFYAqL-23">
          <mxGeometry width="50" height="50" relative="1" as="geometry">
            <mxPoint x="670" y="480" as="sourcePoint" />
            <mxPoint x="720" y="430" as="targetPoint" />
            <Array as="points">
              <mxPoint x="200" y="800" />
              <mxPoint x="199" y="560" />
            </Array>
          </mxGeometry>
        </mxCell>
        <mxCell id="oIqmAePt7HCqJZuFYAqL-52" value="" style="endArrow=classic;html=1;rounded=0;entryX=0.577;entryY=1.052;entryDx=0;entryDy=0;exitX=0.5;exitY=0;exitDx=0;exitDy=0;entryPerimeter=0;" edge="1" parent="1" source="oIqmAePt7HCqJZuFYAqL-35" target="oIqmAePt7HCqJZuFYAqL-24">
          <mxGeometry width="50" height="50" relative="1" as="geometry">
            <mxPoint x="710" y="420" as="sourcePoint" />
            <mxPoint x="760" y="370" as="targetPoint" />
          </mxGeometry>
        </mxCell>
        <mxCell id="oIqmAePt7HCqJZuFYAqL-56" value="" style="shape=image;verticalLabelPosition=bottom;labelBackgroundColor=default;verticalAlign=top;aspect=fixed;imageAspect=0;image=data:image/png,iVBORw0KGgoAAAANSUhEUgAAAN0AAADkCAMAAAArb9FNAAAAwFBMVEX///8zZ5EAAAAuZI8hXosqYo4kX4wdXIorY44XWon39/fx8fH7+/vt7e3m5ubb29vh4eGamppsbGzV1dXDw8OioqLx9PfH096wsLAjIyORkZFMTEx8fHzt8fXk6u9zc3NBQUHJycmHh4dXV1eSkpLU3eYXFxc6OjozMzO5ublkZGRbW1uasMSQqL5VfqG2xdRliagoKCh5l7Kpu8xbgaN1lLA+b5e/zNkPDw+itccATIFJdZqwv86FoLlXf6KUqr+B2pDlAAAaYElEQVR4nNVdeUPiPBMHe1EsyH3IjbKKyCEoyKOs3/9bvZTM5GjTNin6yv7+WhdaMpl7MkkymYvD9c2odT+udB5f/ry/X129/2k/3A3G5Wm1+NsjOw/X1Vb34SoGL916Nf/bo5QjX7yptcrl+yPK9XqrdlMqciMttbrtOMIYhuWq991jK1Rb9fHTUVza7T/tl5fH4ax7X5/eFJSmslArz15kI20PB+VpqTAd/FGjDFGZfhsLr2v3nch5fX94Kk+LMb+VH3Uf9YauSODoG0ir3g4Vfuq9M54WZI/XKj9BGUH7/vos0kpjRV044aXSEs1aYawpcDDqTrfcqlVLxWLBR7FUGh214k42lEEpNW3TToqRdWuo8iV9tr1XyqNSpJTnS9PbkEl9SkdfK9W8+7hrHYW0IKHtcdYd35aPZvN23J0FlfHhdqTi0LzqfYDCilQlYjF9Dw5tNq7Xqmgj89el6mha7j5JLeHVVacr/v3SbVXDSlIa1cHiMI6roNASbcGtHm0l8enO7Shaf4uj+iDWBR/Nd6z2V+tVvdH5KJR5NXzXsZ9lcWwqrqVar8gN0KymP3Q1jO74UaryvsBxYtjS8JrFViWoq2N9nTih0Z80l5+bvY/Ncjfp92Tfunni2KcmACNu3vVF5qbMGdpb/YCi0d/t14ttznEc0waYjuNa28V60wzReDNjv1ZWeH2LfruTQh18FFpEZAYSvnn5xgn5CEFqHP5zbcvISmBYtmN+HHYN8YkRs2uzROm8p5yehj7L95vLzfP8cJjPn/fLXbMfNcbMdWv4Epgbb7I8rBZbw3Zc17Sz28Vqvd9Nwi/oHeycjDgk0TFf9yILmZV4SXApt1RLRaFq7Oar7VFYjtJi+SDi4mYXb8+7fvwrfUyeX03HtCyDcsUwfF645uKwDD7fWztS5tFHbfd1yU8LZ+FjxY1yriWM7evDdSwrSlxcRzJEDv151rWjxmtYprs9NAOTsXDiyDs+5dhznoGUKVcxFprqHBfdNPZbV64I4hDN1X4ie2fz1ZXOi/C446xFApdm0kOWu+boY6YwrFCBr7SZVPYO0dMe/Dnbcd6WAas2+XDVHrdc65l/1ntzkx85MAtz/SAVO4Zr1E0q097cSZpCETnT+eB0vvGmSNsJtvvGy3cy+44TumHff4rn3kOQc82srUXbCc4rnZylFWP9pKN1Vhx9vYWZ+IS5YA/Q0FYWlqFhpV7qoDPxdICv9IXrRNkKI+fw2nRIMC5Z374w9lGbGE6KSgGb2nhNnjnJj30g5xuLFIzP+tK2Z4PaKSi9u6LCRj1fKGqHAKqOYrHV0zgcGwpKP6splQzOBzO+k2zyMKwtlU70DMMAcVPy33eUuFSDc9Gu95OcSBwMZ07H1ftIJs+wqTtB3RuI1P0RlM77SEWc+YXEqbqRqBd9UHZ4CwUhcpf4dbScguGsi3L5mkosjQ94vJE9jziffXS8mVcFBXapbUG/x0eSpM7wCH99Jdsq6U/ghKfjfOBlh3TkodceM+JaQpA2SWHKjzCf4W3rdNYy+DrmW/7qCGc1ZDcfBUuzTSVXxhYeX6abnBCsDxpoKekemhawLDSZrQqs26STSwfe3v8WzvnIUVOfV5lwB76dh4ASqRuQEIz84aUbXW6FWvINSgcwssx9JpNnbPMC86oCsWAwn9NR54ALXqbjfMSAKXkThcjJehNEEaqcNV4NvXTGHN+cT/V0JBh5KrPmwgwTD/BA/qjwYUrKuUehn3+b1hEYWzQt82Tu4RR3OXZ55N+Q9f1NxTsLtK6XJvSORQ5DBBXDaeV5YaxyYkoEs5/OnKNMHFIFObHAiVOZOfAKJc6QlHkp3aeSLIzBet/k6gTQmLqZ+HbMnrhwhdTL7oH9qQTThDho/v2sO8LdAXnrpNfnQPFIBXfG1I54h146m2ITefd+gnVZZrIySVNvLMj37qg/v+HVbpeKOmtNXvr57TaFgCYfibK5JUWdMaEpgxH0yzlWAYOwj3MTnyjYmDC8JYzPIP7jllJH6Oyeo3a5zDn2VgU4f40E6mxSc4ICi4cFFRKGNdI5u8NP2pQTjCzUERNCfIdQV6faRv4xOmP2TZjYVONWBJXNeOl3BeoKaDJLZxgVl8xryqRX9UcgXmjGDjFIXYk3mal8OQYTXz8nmFnObr7GMc8JUEfisD9nmEws5v+YxSRwPjPJIiJalTxEnFAvWqUZIPjaH4nCeBhgWFYx6XGOeIR7tJnE3XXOmH6TPLv8IVdOYX8pMI8ETdSbEyZC7Xab4kdR7RKDwLNhNpI0DytXFaTuloXT6RJrjMvTVdK0fgmSheh4DONM4sPbyERSHkvlzKGgkjL+1gK4nuiJRDkibU9DkbpeGuEye2e4Sj3YUA+OdFwYNV2hug24QCxd3QC83TcXVKSAgLYRJZrgnKDafosKSKjrp6AOhSGVM9GFCXnsKkLIHPI5JHX186kDafF+3qgcYcDaQpQawDoNNG/UzqfOJKsTjZ/zdpZ16ms64T8y/KgiAPgMCMRuROrS6B2YTMHFGjnSaOU45jlrsD4sx1jNl81+r9Fo9PqTZj/O5WEsOqaxc5e3mSksA0R2NFLxG4c+3p53zf4RzeVhodzOIxmts51LGuUyUcsBaANIHew9E/B3aRY4PP7nLHd72In9Rv39NqXUmttlVBOhPA+yIFa7otHlGI2nT53+CDD28eMww8weZL1i3l7eQpfwZmcveRdgIqUOTGbhisZfJBKDsop+nIlW7PUokR+7qKnu6TevGJa0qS6WOtFk+ksHJIqekYf0cwSsj27dVdxoMitN8gxD2gmNkEsm5EiQ3fkV2paQ32lLkEUi23w8bUf81dNph2+Ia0yan5sjls1JL4Y6A4xKhZpMYGPq3NyOUI7epLlc8p3BnhZ1tLh+JOSQPfoWk7R/u/+RWZS6c1swKqcKLUQtpA1no60e9meYssl+Zfq+zvd5r3SYyWscDHSZOrPMulbO8vuVgWzCU2mqDLW5Ao2hacRZimZ4LMxlRsTkYDichzNc2mOoIfa4TO2tXMN2F4fn/XxFhuY2otkAn9VolEn5SPod9OuZzo4nrbHZYr9qzg+ejrHKMZAC8uR2TgY0xJm/tmHtISPvnz6yBPcqPiVGKjenPx55d65LHC2Bn54+WCZyzVzt+vnGZLk2bAOWLtQtMgqEv5jMrMs6xyiQGQhM7qBbkVRYBkxKU7gEh9pKb26xCbVol17+yzThD2WthoT4GPay95CM3IjJt0CMPBapZNA7gEt4043FsESc2Qltxi5n0D9NiwiXagqCDDrOBhZKfGH0n0b+yPItUDvw5bDaCkpI/tAuRgN1XqC/m1dHL2t+Ro9JAowQ/ESArh+Q5RF0QBL7gHMCq1vQHF06y2iC3gVrjLQu7guYhQZeUTJQHE/fNv/689eHBn74OZn1wxBaUDuU05RGEwxAPzgrNmtA9D2Bh6KmAmBQg3zbcO2PrAvzAhIvYwJYgLygdriEfg9SpAnw5uG813kjFHl+hAlxleIqUeidTKDd6GlyBUWjHX7EaD7BRGsaTZhnSa3Qsp4n/cmX7X8CaqhYUYycMZpvSRwCKuuAhdAn1Hmzort+CkUjqaO0HQd8O+qEmlkRJZMHdQjhUaKPhP2pNMAVeo12mnk0WAAvPjOMGVX0OzNh6mIcgkP8AYTNT0gcRp3p1paxmSOJK+Rbat2R0e/EYnR4kOgYIbfjtjq1OT3UbWBEcU8IcqxAbSkWxl/yzrADAfGTLBXiEumQT3lOIDtjKyA8euRhGSqBOnD6ioE0BKbh0MKUe9cstcpFQtyQEXeWWUGNSmh0wUlX02pY/Q7PBfi0sLvD6KEuhGEnjASzohetYLKSQB2txyu9FBxIuPXGiXLmGKF1+OyHQDArmsvfitQpqicAjWbopZGZudnnKWlneJAUD7qk9ap+aAESWnLRpKm5BPx2yMRCO0qo2w4fgF0j3D6SDBaRoOqnlwThe2O7SHyQrykurtsRihdFHSYhnUCgwpNM/tCrHClKZjZHzKDiGiYmUEGPFyWZ4HDAYl4JxKGDL8knLBaKNhO5oTh12JweNOCOvN6HGVZdJpiYNYCD16JO0d+h2is3tXjSmY7wCMjqR5lgorxCbSVRhXioGkOw5ar+JqKfFXPl4Fs8XgTfA8RBtg79tVpbZVTjTDfKD0e8FiZtI/IarEfAa6EDuQ278hOEvTJa1QeI2hPddGSUEQGbhPyBLEgeRWOJCmxK6KAOKEiT6oNWZ3pcfsfD0Qo0WbomuhCaAfH/iU4JWPQQJA53i8Iqnk5RE2LzxKxblzoMHMWAGW2YYBpwi+wslPwgujzZOm2kUVWjCOrUpR7LwAIhSLPAUXCluOFVctrQNK3iYQnu26lDcyU+YcH8c+qINgXy1kqYOAw/ieLldaiDUSf5MfQI6oUNKC2LegL/yYdiaFPe+VwggEde8TR2Jah6aVvTm7OkRngkLAKoipDGvWRkGPCKp+PxyGQmVugtxe9xMGBo/JbXsCKg3webUs/IAIpH6hEaK23RBcYAVL/HUQKB/yc3GnDnrMkPB4ABtPxMPbA45HgET3kMrKEj4Xta+Z04cH4XR8idY+4zjrYpPh75UFN5EKqBGH5Pa30Qg2OOeejO6fig5RwWQyJP3OrySqmc48FcJjZUg9PXW9uVMI+2xxjC72OGKolTCGp8jpfovgKjTgxVIIjWrAVjFML2UWM6iYUOqEDDSk/0cVueYHNUe0lhQSNxVRVMpmYdn64CUoEO6DkKai0i92EgOR7sOle1bYrUoVHRXYNB5lH/FrBO2JHUich9GOjeGeF1itQl6Cmqh+7mRap5aJOROlLaQlsVPnQkhCofyajuTEBrkcAT3LOg3aiF52mhBxZ5h6wDT96NJk7YpK3sE3CBK/5byAL9ViYsKuCGV0HvMIGHikM4beVBqppQx1XcfqxWVsEwPsVWIZRp0GyLL8Eh6+CkplkccRiMafkEacIVAuZq2rRlqbWF4zHQSJ7+DTMbPOdNjmvBJ6gaACI5n3FmBZUljWBSeohq85EYpj7QjtnJxIOUH4bkD8VoHqQj1k2jXU/aLC4HErH3ZRM2k/hFMTSYyLqkI6PLvF1VDCuwuhPr/gl/8+la22mvpv8TQKpvQqGZDLUuMghDwCxA2UUt4M1F1MQ5YMvrJmXjPrai+fEYVB6OcTBuxlNlHS6gg+1RXNCATusYVsNKaurthzQe2xo4l0cjBgVP9HXDROK4wx8yyo1BuJU+0kHKyz86oJmQyfTAhLpEVZl1+FWItPVEM3IyULD0++URNB6zoWjUdw3I9THCVGAdnsQIrSyKIS8mIREbpTG6OOeICzS6z2BgNjayc6TOOnqYUwI3RNBoQv51HMc5Jx6h5uVBDBYWNqXCmtZdRgVsW54PxTKBA6Hgs1SxbPJh5GZOJbhNfpR9F6UdD7jmexxiIIimokNHi59ZSGQTQ410p0EhsPeA4OCCofKgQhtVKwoCRJMkearNHbBWn8kbYWbjLJ+5cZRnXsPGbfV4TK3qBV3c9qeM8slpNJrom8EH0NydezoJ34n8hSeBYg0zsE4egzavpap1cRe3y0yCG0GxXH72MQkm3W/UM5FSPKNW/Y4JcOikJq28TmnSkyADBzGD0ObPPwPCxp84oLCjN5AX16WAPLesN+X06MpMfsVbTsx9vuHYSbozoY8bMMAbCOsi+evrwnXMFRfkGdh8obygQA/bO8ZLOWYesQ7+HVvtzbk4UDzYGxy5d10rP8F23rt6VP2I23iY0TB1NiOvMTdxExdI7PeczCg6PVhxvLrL34ym5UEncDtTV66M/O41nayFI+90Y4R/dwpaum86I87kN4veXSVA7uHveEOUV3fCriA5/c36w/kP/uubzoCg0XSGVp/jIK2zTAVLpBwe8rwLoOE6zplHmxM49De8eMIIpMpHPgK7orpewt2LEEJ/2dw9r9xzjygx3MUGzeFTJEltpoDS2HpMPgNbpJaW5T4SbxrqfcVd9JMMh98WPZJcqDgctEZ54UOZbEKAA6G0UgzFzs6txdwA1VM5cD0K5kZ8WbHVvXs4Muq9/dB5GrdqRX56YbuMNESDfBdiU4XCppHDQMLP7oetyNWKdWrjaTZl7/PyeU8qNCSgbMs+AnsEiw4KTYd0eygWqGb1G7m/SVfSZB0CqgCvLf0MFBMGmJjEUjeLHpaowawSvtUs5RE6Oc4gK8XMrRjqoAMXBrdL0DyaIeSDtzlSFZxQP6yzp577CZT8xufKfVOgrx5DHXoT+DOeeQ6m5pngPZm4it3fui696EercxdA958/u/4Gdvsr6oSLCRq3WQx16BTAo8fOt7nGh4L3p6LFOl1SklM7/1IOPG7hCwZiu697SsgJjcluv97+hwcXQKbzmJECFSh5vlmIErwBFX0pqJphg3FLYVfc0CmP/jV69uLtMJ8f1qtF1vGjIZdd1TKM8QgZ6jBA86JrkewU9XGAOHqbFx6vjpVB7S3ttK4W7KIxcqe7+Eg9wHKphtCxRJXKsGQBQzxEuGEji/JRDxD3gD6Pu6REPsZkKCyBGu4r27+PmV/0il5X4G1U4xi9umkq0vaHVgM+GduhTK6veIasX1gYhrvgnD29jiu6yonMg4BF7hWooxsJpFXYBYJ8HAfU6R9nGL84f1TBFR/IDIJWLYZ5uD1WFmTQO3iKlLL2U52fsR5fI4MN4WdQFxqDZTvW3w1/SFCRhtfDGOJoEzXwwQtfe2LicQB5UsF+GU8DZdMGH5k4YFX0T4BF6j6zR8toWblcjlzraW1X+6Z4QSq7z/VP/N3noJt/wLCECkisUPRw0rTwpXNC+Y8ubOiXISzqUvu7/df6bfW2nj9vmuH7e4ucy026JBguHsMOnsAlRqwM4GeSsua6DX+xKT2KPIXNtOaSt0swZrS1E2+tx9IFro3txYMIUSTGctO72wqFTYtOdIqToTaS9wfh8VdfdxTulMb0HueBI88yUJVbsoBnMreEG2lz3AE++qtB4tlJUhRvOdrUFhbQsFDW7PAaT/MDWeGnq0I27vU/37KBq0bNBaci+rcpOZNMLIp1sQ6heNk5WiDaPNdbuUejZdJb/IgvoN9vNJ9fs44ZCLUM7rK3VNTxxwgF4BWn4xeBtOAdyjHA+7VZGtp/flt/Uk7kXzjWbl4tSWHPcD/Eqdc/rB4OVSkPy7Xi9enmai9/XbiZ1rud0I3xLxqXxefxIfk6i3eSCKxeTFaOHRi5YbkfQaXRpw5acCAIab88vrSDeXL8OKOA7SDSq9G9oWh1Mv3NKmv6Dtcy/OPpHHs75/gGHkj7Bgxc/ZlFUMRwr3tbPI39B6GPim3ZR/3m5mu9Wq3eDnvxKvliyvNpaKjyEEET5ZsubRnORT4GQm4W9ERd3Cxgmvb0Hdq/G0vaQNFQBsFy7gEX3VQFI5wo7nnfd6akDpx5PkgQxeM4JWkieVd3LT+azN/Ug1JyF992QOQ7JXWwS+vmSoJ2pTxKIZA8urL3hkQjHEUD8qi7aakjlokEhk9Ps7tOZ/ZU6Zano8if1EKwrMCBE9ChJE3I5GuM9WmpI8aJ6HlidJwCoyBRiJq41tSelaelAixsXpemt0IVMCV1kPWOuXd8M7zBlQRP/kyGP3l/eXh4ePkT+v+U1EG16TSNf36EuqNShxaqcS2rFSIjAumow0L0SQwi6q/fgNKYj38GLDMoJEcRHHW6kRj20Z2C5eGPUXfETWs86wxn43rAs1eV6CPf1c0RcAMjkZefpC4axXJYzxDDFlkdij5QNw7QC02K//G7YX6UwNYglJBcvVf8lVjvRHo+FXXg7ojZVu3E/Bl41en9oHI3fHjoPFXGrRG6pxdGnW7lAfqViO0Kx/KXgNPSXrp72mz+aPnYLXa/hlNIk+60dOHyKfVG0/8nTs6KRNqx273CwCUS/gLJS8MpFCBuRLPSju6OGKzILde/ihN1xP9rrpJA77FwNtGlYcao01y/g1ItLDPF74/8LZxCYJJB61LHZ3dX35PRfTcGTKz0TtLDI/ogxVRYH/gFdDnqNPtxyAvY3cIXiPu0vMOOABKmS9vafh8nwSKFQb2tatgh9vDLQXQsWswV6x0dC6eEkzD8QgMx0vFBjo7Vu+IddjSAQ5DV+y8ANS5I1KIOHEL1kp05yc4gfdFq8hPyH9VdhP9vlLjUU68BlSSF7Dr2S8SpKgJdfzpHyKBDoJfvXiROCzhwWIHO1mxc3SKNrU/RP/C78C06HKqks3sZT0AnrIs5t+h3MWSCpVOuNYUM4YyFrJ/FEysb6ZQehIKY8u7d/zu6zKDrpK854QLX3yQgFvVUSQKazO4Fl/t81FgYrRFoYncfabhRWZ7/HZRYoKkRikGV3btwtSO7+iBYUT9mEnqoqpec3J3gJ2hD8k/lrfWodiQOu8xKLUGXxYm6p3NCpfYy62EEU+YSlGsPIJhk6e6nFpW/BUXO6oU7yKXAzuvpxQsm2dQHYbCiaOJ2ByKYl1nKRHRZLCa5HU2CHLQDkFXXX1pTVkWVE02lNAFbaseXXHSg4FK8ngLzcKdK/uKd3Qljzqx/JS5zOWv+sQuOwgBVrvqQfI8JJOWQ2l086+CIBWBefEXacJ/xoeE/oXUZWOkYwh/LGPJM1gZ/+y8YzBOKggZ9RpBnOFm2M2Z68dkBA2mkwx6WphX2C4bt/F2yqiVUHC6zFyAIMtgh/tlYu/zuDMNy7L97ft8ILLhe6MpPCCSmYis5/fnWdGwfjmss5jtxRx0UoNsXWoEOARY7+KWcfvNzv99/NvuNwHevsW8waZ/g5QAacW+Tv0l7sS87ehaAmwqSevWm7X+QOLax6E9Mpn3NtkG2/x2xPIFK3JOcK4UW1wd/scsikWB7N+5qgW0g16N74RSTiw+dJRhz4++UpzfFQqFQvKnVB8FNkP+YVAJitqZwdF9yCSwWo6itj0zh/lnajvBiN0491v9NmWQoSrfeHHEn2yv17yHfCh6EdDUrV/+VmFIBXrU+rgwfHx86lXF99ANJ3P8AzQY0ygb/GcgAAAAASUVORK5CYII=;" vertex="1" parent="1">
          <mxGeometry x="384.16999999999996" y="472.5" width="29.08" height="30" as="geometry" />
        </mxCell>
        <mxCell id="oIqmAePt7HCqJZuFYAqL-57" value="" style="shape=image;verticalLabelPosition=bottom;labelBackgroundColor=default;verticalAlign=top;aspect=fixed;imageAspect=0;image=data:image/png,iVBORw0KGgoAAAANSUhEUgAAAN0AAADkCAMAAAArb9FNAAAAwFBMVEX///8zZ5EAAAAuZI8hXosqYo4kX4wdXIorY44XWon39/fx8fH7+/vt7e3m5ubb29vh4eGamppsbGzV1dXDw8OioqLx9PfH096wsLAjIyORkZFMTEx8fHzt8fXk6u9zc3NBQUHJycmHh4dXV1eSkpLU3eYXFxc6OjozMzO5ublkZGRbW1uasMSQqL5VfqG2xdRliagoKCh5l7Kpu8xbgaN1lLA+b5e/zNkPDw+itccATIFJdZqwv86FoLlXf6KUqr+B2pDlAAAaYElEQVR4nNVdeUPiPBMHe1EsyH3IjbKKyCEoyKOs3/9bvZTM5GjTNin6yv7+WhdaMpl7MkkymYvD9c2odT+udB5f/ry/X129/2k/3A3G5Wm1+NsjOw/X1Vb34SoGL916Nf/bo5QjX7yptcrl+yPK9XqrdlMqciMttbrtOMIYhuWq991jK1Rb9fHTUVza7T/tl5fH4ax7X5/eFJSmslArz15kI20PB+VpqTAd/FGjDFGZfhsLr2v3nch5fX94Kk+LMb+VH3Uf9YauSODoG0ir3g4Vfuq9M54WZI/XKj9BGUH7/vos0kpjRV044aXSEs1aYawpcDDqTrfcqlVLxWLBR7FUGh214k42lEEpNW3TToqRdWuo8iV9tr1XyqNSpJTnS9PbkEl9SkdfK9W8+7hrHYW0IKHtcdYd35aPZvN23J0FlfHhdqTi0LzqfYDCilQlYjF9Dw5tNq7Xqmgj89el6mha7j5JLeHVVacr/v3SbVXDSlIa1cHiMI6roNASbcGtHm0l8enO7Shaf4uj+iDWBR/Nd6z2V+tVvdH5KJR5NXzXsZ9lcWwqrqVar8gN0KymP3Q1jO74UaryvsBxYtjS8JrFViWoq2N9nTih0Z80l5+bvY/Ncjfp92Tfunni2KcmACNu3vVF5qbMGdpb/YCi0d/t14ttznEc0waYjuNa28V60wzReDNjv1ZWeH2LfruTQh18FFpEZAYSvnn5xgn5CEFqHP5zbcvISmBYtmN+HHYN8YkRs2uzROm8p5yehj7L95vLzfP8cJjPn/fLXbMfNcbMdWv4Epgbb7I8rBZbw3Zc17Sz28Vqvd9Nwi/oHeycjDgk0TFf9yILmZV4SXApt1RLRaFq7Oar7VFYjtJi+SDi4mYXb8+7fvwrfUyeX03HtCyDcsUwfF645uKwDD7fWztS5tFHbfd1yU8LZ+FjxY1yriWM7evDdSwrSlxcRzJEDv151rWjxmtYprs9NAOTsXDiyDs+5dhznoGUKVcxFprqHBfdNPZbV64I4hDN1X4ie2fz1ZXOi/C446xFApdm0kOWu+boY6YwrFCBr7SZVPYO0dMe/Dnbcd6WAas2+XDVHrdc65l/1ntzkx85MAtz/SAVO4Zr1E0q097cSZpCETnT+eB0vvGmSNsJtvvGy3cy+44TumHff4rn3kOQc82srUXbCc4rnZylFWP9pKN1Vhx9vYWZ+IS5YA/Q0FYWlqFhpV7qoDPxdICv9IXrRNkKI+fw2nRIMC5Z374w9lGbGE6KSgGb2nhNnjnJj30g5xuLFIzP+tK2Z4PaKSi9u6LCRj1fKGqHAKqOYrHV0zgcGwpKP6splQzOBzO+k2zyMKwtlU70DMMAcVPy33eUuFSDc9Gu95OcSBwMZ07H1ftIJs+wqTtB3RuI1P0RlM77SEWc+YXEqbqRqBd9UHZ4CwUhcpf4dbScguGsi3L5mkosjQ94vJE9jziffXS8mVcFBXapbUG/x0eSpM7wCH99Jdsq6U/ghKfjfOBlh3TkodceM+JaQpA2SWHKjzCf4W3rdNYy+DrmW/7qCGc1ZDcfBUuzTSVXxhYeX6abnBCsDxpoKekemhawLDSZrQqs26STSwfe3v8WzvnIUVOfV5lwB76dh4ASqRuQEIz84aUbXW6FWvINSgcwssx9JpNnbPMC86oCsWAwn9NR54ALXqbjfMSAKXkThcjJehNEEaqcNV4NvXTGHN+cT/V0JBh5KrPmwgwTD/BA/qjwYUrKuUehn3+b1hEYWzQt82Tu4RR3OXZ55N+Q9f1NxTsLtK6XJvSORQ5DBBXDaeV5YaxyYkoEs5/OnKNMHFIFObHAiVOZOfAKJc6QlHkp3aeSLIzBet/k6gTQmLqZ+HbMnrhwhdTL7oH9qQTThDho/v2sO8LdAXnrpNfnQPFIBXfG1I54h146m2ITefd+gnVZZrIySVNvLMj37qg/v+HVbpeKOmtNXvr57TaFgCYfibK5JUWdMaEpgxH0yzlWAYOwj3MTnyjYmDC8JYzPIP7jllJH6Oyeo3a5zDn2VgU4f40E6mxSc4ICi4cFFRKGNdI5u8NP2pQTjCzUERNCfIdQV6faRv4xOmP2TZjYVONWBJXNeOl3BeoKaDJLZxgVl8xryqRX9UcgXmjGDjFIXYk3mal8OQYTXz8nmFnObr7GMc8JUEfisD9nmEws5v+YxSRwPjPJIiJalTxEnFAvWqUZIPjaH4nCeBhgWFYx6XGOeIR7tJnE3XXOmH6TPLv8IVdOYX8pMI8ETdSbEyZC7Xab4kdR7RKDwLNhNpI0DytXFaTuloXT6RJrjMvTVdK0fgmSheh4DONM4sPbyERSHkvlzKGgkjL+1gK4nuiJRDkibU9DkbpeGuEye2e4Sj3YUA+OdFwYNV2hug24QCxd3QC83TcXVKSAgLYRJZrgnKDafosKSKjrp6AOhSGVM9GFCXnsKkLIHPI5JHX186kDafF+3qgcYcDaQpQawDoNNG/UzqfOJKsTjZ/zdpZ16ms64T8y/KgiAPgMCMRuROrS6B2YTMHFGjnSaOU45jlrsD4sx1jNl81+r9Fo9PqTZj/O5WEsOqaxc5e3mSksA0R2NFLxG4c+3p53zf4RzeVhodzOIxmts51LGuUyUcsBaANIHew9E/B3aRY4PP7nLHd72In9Rv39NqXUmttlVBOhPA+yIFa7otHlGI2nT53+CDD28eMww8weZL1i3l7eQpfwZmcveRdgIqUOTGbhisZfJBKDsop+nIlW7PUokR+7qKnu6TevGJa0qS6WOtFk+ksHJIqekYf0cwSsj27dVdxoMitN8gxD2gmNkEsm5EiQ3fkV2paQ32lLkEUi23w8bUf81dNph2+Ia0yan5sjls1JL4Y6A4xKhZpMYGPq3NyOUI7epLlc8p3BnhZ1tLh+JOSQPfoWk7R/u/+RWZS6c1swKqcKLUQtpA1no60e9meYssl+Zfq+zvd5r3SYyWscDHSZOrPMulbO8vuVgWzCU2mqDLW5Ao2hacRZimZ4LMxlRsTkYDichzNc2mOoIfa4TO2tXMN2F4fn/XxFhuY2otkAn9VolEn5SPod9OuZzo4nrbHZYr9qzg+ejrHKMZAC8uR2TgY0xJm/tmHtISPvnz6yBPcqPiVGKjenPx55d65LHC2Bn54+WCZyzVzt+vnGZLk2bAOWLtQtMgqEv5jMrMs6xyiQGQhM7qBbkVRYBkxKU7gEh9pKb26xCbVol17+yzThD2WthoT4GPay95CM3IjJt0CMPBapZNA7gEt4043FsESc2Qltxi5n0D9NiwiXagqCDDrOBhZKfGH0n0b+yPItUDvw5bDaCkpI/tAuRgN1XqC/m1dHL2t+Ro9JAowQ/ESArh+Q5RF0QBL7gHMCq1vQHF06y2iC3gVrjLQu7guYhQZeUTJQHE/fNv/689eHBn74OZn1wxBaUDuU05RGEwxAPzgrNmtA9D2Bh6KmAmBQg3zbcO2PrAvzAhIvYwJYgLygdriEfg9SpAnw5uG813kjFHl+hAlxleIqUeidTKDd6GlyBUWjHX7EaD7BRGsaTZhnSa3Qsp4n/cmX7X8CaqhYUYycMZpvSRwCKuuAhdAn1Hmzort+CkUjqaO0HQd8O+qEmlkRJZMHdQjhUaKPhP2pNMAVeo12mnk0WAAvPjOMGVX0OzNh6mIcgkP8AYTNT0gcRp3p1paxmSOJK+Rbat2R0e/EYnR4kOgYIbfjtjq1OT3UbWBEcU8IcqxAbSkWxl/yzrADAfGTLBXiEumQT3lOIDtjKyA8euRhGSqBOnD6ioE0BKbh0MKUe9cstcpFQtyQEXeWWUGNSmh0wUlX02pY/Q7PBfi0sLvD6KEuhGEnjASzohetYLKSQB2txyu9FBxIuPXGiXLmGKF1+OyHQDArmsvfitQpqicAjWbopZGZudnnKWlneJAUD7qk9ap+aAESWnLRpKm5BPx2yMRCO0qo2w4fgF0j3D6SDBaRoOqnlwThe2O7SHyQrykurtsRihdFHSYhnUCgwpNM/tCrHClKZjZHzKDiGiYmUEGPFyWZ4HDAYl4JxKGDL8knLBaKNhO5oTh12JweNOCOvN6HGVZdJpiYNYCD16JO0d+h2is3tXjSmY7wCMjqR5lgorxCbSVRhXioGkOw5ar+JqKfFXPl4Fs8XgTfA8RBtg79tVpbZVTjTDfKD0e8FiZtI/IarEfAa6EDuQ278hOEvTJa1QeI2hPddGSUEQGbhPyBLEgeRWOJCmxK6KAOKEiT6oNWZ3pcfsfD0Qo0WbomuhCaAfH/iU4JWPQQJA53i8Iqnk5RE2LzxKxblzoMHMWAGW2YYBpwi+wslPwgujzZOm2kUVWjCOrUpR7LwAIhSLPAUXCluOFVctrQNK3iYQnu26lDcyU+YcH8c+qINgXy1kqYOAw/ieLldaiDUSf5MfQI6oUNKC2LegL/yYdiaFPe+VwggEde8TR2Jah6aVvTm7OkRngkLAKoipDGvWRkGPCKp+PxyGQmVugtxe9xMGBo/JbXsCKg3webUs/IAIpH6hEaK23RBcYAVL/HUQKB/yc3GnDnrMkPB4ABtPxMPbA45HgET3kMrKEj4Xta+Z04cH4XR8idY+4zjrYpPh75UFN5EKqBGH5Pa30Qg2OOeejO6fig5RwWQyJP3OrySqmc48FcJjZUg9PXW9uVMI+2xxjC72OGKolTCGp8jpfovgKjTgxVIIjWrAVjFML2UWM6iYUOqEDDSk/0cVueYHNUe0lhQSNxVRVMpmYdn64CUoEO6DkKai0i92EgOR7sOle1bYrUoVHRXYNB5lH/FrBO2JHUich9GOjeGeF1itQl6Cmqh+7mRap5aJOROlLaQlsVPnQkhCofyajuTEBrkcAT3LOg3aiF52mhBxZ5h6wDT96NJk7YpK3sE3CBK/5byAL9ViYsKuCGV0HvMIGHikM4beVBqppQx1XcfqxWVsEwPsVWIZRp0GyLL8Eh6+CkplkccRiMafkEacIVAuZq2rRlqbWF4zHQSJ7+DTMbPOdNjmvBJ6gaACI5n3FmBZUljWBSeohq85EYpj7QjtnJxIOUH4bkD8VoHqQj1k2jXU/aLC4HErH3ZRM2k/hFMTSYyLqkI6PLvF1VDCuwuhPr/gl/8+la22mvpv8TQKpvQqGZDLUuMghDwCxA2UUt4M1F1MQ5YMvrJmXjPrai+fEYVB6OcTBuxlNlHS6gg+1RXNCATusYVsNKaurthzQe2xo4l0cjBgVP9HXDROK4wx8yyo1BuJU+0kHKyz86oJmQyfTAhLpEVZl1+FWItPVEM3IyULD0++URNB6zoWjUdw3I9THCVGAdnsQIrSyKIS8mIREbpTG6OOeICzS6z2BgNjayc6TOOnqYUwI3RNBoQv51HMc5Jx6h5uVBDBYWNqXCmtZdRgVsW54PxTKBA6Hgs1SxbPJh5GZOJbhNfpR9F6UdD7jmexxiIIimokNHi59ZSGQTQ410p0EhsPeA4OCCofKgQhtVKwoCRJMkearNHbBWn8kbYWbjLJ+5cZRnXsPGbfV4TK3qBV3c9qeM8slpNJrom8EH0NydezoJ34n8hSeBYg0zsE4egzavpap1cRe3y0yCG0GxXH72MQkm3W/UM5FSPKNW/Y4JcOikJq28TmnSkyADBzGD0ObPPwPCxp84oLCjN5AX16WAPLesN+X06MpMfsVbTsx9vuHYSbozoY8bMMAbCOsi+evrwnXMFRfkGdh8obygQA/bO8ZLOWYesQ7+HVvtzbk4UDzYGxy5d10rP8F23rt6VP2I23iY0TB1NiOvMTdxExdI7PeczCg6PVhxvLrL34ym5UEncDtTV66M/O41nayFI+90Y4R/dwpaum86I87kN4veXSVA7uHveEOUV3fCriA5/c36w/kP/uubzoCg0XSGVp/jIK2zTAVLpBwe8rwLoOE6zplHmxM49De8eMIIpMpHPgK7orpewt2LEEJ/2dw9r9xzjygx3MUGzeFTJEltpoDS2HpMPgNbpJaW5T4SbxrqfcVd9JMMh98WPZJcqDgctEZ54UOZbEKAA6G0UgzFzs6txdwA1VM5cD0K5kZ8WbHVvXs4Muq9/dB5GrdqRX56YbuMNESDfBdiU4XCppHDQMLP7oetyNWKdWrjaTZl7/PyeU8qNCSgbMs+AnsEiw4KTYd0eygWqGb1G7m/SVfSZB0CqgCvLf0MFBMGmJjEUjeLHpaowawSvtUs5RE6Oc4gK8XMrRjqoAMXBrdL0DyaIeSDtzlSFZxQP6yzp577CZT8xufKfVOgrx5DHXoT+DOeeQ6m5pngPZm4it3fui696EercxdA958/u/4Gdvsr6oSLCRq3WQx16BTAo8fOt7nGh4L3p6LFOl1SklM7/1IOPG7hCwZiu697SsgJjcluv97+hwcXQKbzmJECFSh5vlmIErwBFX0pqJphg3FLYVfc0CmP/jV69uLtMJ8f1qtF1vGjIZdd1TKM8QgZ6jBA86JrkewU9XGAOHqbFx6vjpVB7S3ttK4W7KIxcqe7+Eg9wHKphtCxRJXKsGQBQzxEuGEji/JRDxD3gD6Pu6REPsZkKCyBGu4r27+PmV/0il5X4G1U4xi9umkq0vaHVgM+GduhTK6veIasX1gYhrvgnD29jiu6yonMg4BF7hWooxsJpFXYBYJ8HAfU6R9nGL84f1TBFR/IDIJWLYZ5uD1WFmTQO3iKlLL2U52fsR5fI4MN4WdQFxqDZTvW3w1/SFCRhtfDGOJoEzXwwQtfe2LicQB5UsF+GU8DZdMGH5k4YFX0T4BF6j6zR8toWblcjlzraW1X+6Z4QSq7z/VP/N3noJt/wLCECkisUPRw0rTwpXNC+Y8ubOiXISzqUvu7/df6bfW2nj9vmuH7e4ucy026JBguHsMOnsAlRqwM4GeSsua6DX+xKT2KPIXNtOaSt0swZrS1E2+tx9IFro3txYMIUSTGctO72wqFTYtOdIqToTaS9wfh8VdfdxTulMb0HueBI88yUJVbsoBnMreEG2lz3AE++qtB4tlJUhRvOdrUFhbQsFDW7PAaT/MDWeGnq0I27vU/37KBq0bNBaci+rcpOZNMLIp1sQ6heNk5WiDaPNdbuUejZdJb/IgvoN9vNJ9fs44ZCLUM7rK3VNTxxwgF4BWn4xeBtOAdyjHA+7VZGtp/flt/Uk7kXzjWbl4tSWHPcD/Eqdc/rB4OVSkPy7Xi9enmai9/XbiZ1rud0I3xLxqXxefxIfk6i3eSCKxeTFaOHRi5YbkfQaXRpw5acCAIab88vrSDeXL8OKOA7SDSq9G9oWh1Mv3NKmv6Dtcy/OPpHHs75/gGHkj7Bgxc/ZlFUMRwr3tbPI39B6GPim3ZR/3m5mu9Wq3eDnvxKvliyvNpaKjyEEET5ZsubRnORT4GQm4W9ERd3Cxgmvb0Hdq/G0vaQNFQBsFy7gEX3VQFI5wo7nnfd6akDpx5PkgQxeM4JWkieVd3LT+azN/Ug1JyF992QOQ7JXWwS+vmSoJ2pTxKIZA8urL3hkQjHEUD8qi7aakjlokEhk9Ps7tOZ/ZU6Zano8if1EKwrMCBE9ChJE3I5GuM9WmpI8aJ6HlidJwCoyBRiJq41tSelaelAixsXpemt0IVMCV1kPWOuXd8M7zBlQRP/kyGP3l/eXh4ePkT+v+U1EG16TSNf36EuqNShxaqcS2rFSIjAumow0L0SQwi6q/fgNKYj38GLDMoJEcRHHW6kRj20Z2C5eGPUXfETWs86wxn43rAs1eV6CPf1c0RcAMjkZefpC4axXJYzxDDFlkdij5QNw7QC02K//G7YX6UwNYglJBcvVf8lVjvRHo+FXXg7ojZVu3E/Bl41en9oHI3fHjoPFXGrRG6pxdGnW7lAfqViO0Kx/KXgNPSXrp72mz+aPnYLXa/hlNIk+60dOHyKfVG0/8nTs6KRNqx273CwCUS/gLJS8MpFCBuRLPSju6OGKzILde/ihN1xP9rrpJA77FwNtGlYcao01y/g1ItLDPF74/8LZxCYJJB61LHZ3dX35PRfTcGTKz0TtLDI/ogxVRYH/gFdDnqNPtxyAvY3cIXiPu0vMOOABKmS9vafh8nwSKFQb2tatgh9vDLQXQsWswV6x0dC6eEkzD8QgMx0vFBjo7Vu+IddjSAQ5DV+y8ANS5I1KIOHEL1kp05yc4gfdFq8hPyH9VdhP9vlLjUU68BlSSF7Dr2S8SpKgJdfzpHyKBDoJfvXiROCzhwWIHO1mxc3SKNrU/RP/C78C06HKqks3sZT0AnrIs5t+h3MWSCpVOuNYUM4YyFrJ/FEysb6ZQehIKY8u7d/zu6zKDrpK854QLX3yQgFvVUSQKazO4Fl/t81FgYrRFoYncfabhRWZ7/HZRYoKkRikGV3btwtSO7+iBYUT9mEnqoqpec3J3gJ2hD8k/lrfWodiQOu8xKLUGXxYm6p3NCpfYy62EEU+YSlGsPIJhk6e6nFpW/BUXO6oU7yKXAzuvpxQsm2dQHYbCiaOJ2ByKYl1nKRHRZLCa5HU2CHLQDkFXXX1pTVkWVE02lNAFbaseXXHSg4FK8ngLzcKdK/uKd3Qljzqx/JS5zOWv+sQuOwgBVrvqQfI8JJOWQ2l086+CIBWBefEXacJ/xoeE/oXUZWOkYwh/LGPJM1gZ/+y8YzBOKggZ9RpBnOFm2M2Z68dkBA2mkwx6WphX2C4bt/F2yqiVUHC6zFyAIMtgh/tlYu/zuDMNy7L97ft8ILLhe6MpPCCSmYis5/fnWdGwfjmss5jtxRx0UoNsXWoEOARY7+KWcfvNzv99/NvuNwHevsW8waZ/g5QAacW+Tv0l7sS87ehaAmwqSevWm7X+QOLax6E9Mpn3NtkG2/x2xPIFK3JOcK4UW1wd/scsikWB7N+5qgW0g16N74RSTiw+dJRhz4++UpzfFQqFQvKnVB8FNkP+YVAJitqZwdF9yCSwWo6itj0zh/lnajvBiN0491v9NmWQoSrfeHHEn2yv17yHfCh6EdDUrV/+VmFIBXrU+rgwfHx86lXF99ANJ3P8AzQY0ygb/GcgAAAAASUVORK5CYII=;" vertex="1" parent="1">
          <mxGeometry x="505.11" y="821" width="29.08" height="30" as="geometry" />
        </mxCell>
        <mxCell id="oIqmAePt7HCqJZuFYAqL-58" value="" style="shape=image;verticalLabelPosition=bottom;labelBackgroundColor=default;verticalAlign=top;aspect=fixed;imageAspect=0;image=data:image/png,iVBORw0KGgoAAAANSUhEUgAAAN0AAADkCAMAAAArb9FNAAAAwFBMVEX///8zZ5EAAAAuZI8hXosqYo4kX4wdXIorY44XWon39/fx8fH7+/vt7e3m5ubb29vh4eGamppsbGzV1dXDw8OioqLx9PfH096wsLAjIyORkZFMTEx8fHzt8fXk6u9zc3NBQUHJycmHh4dXV1eSkpLU3eYXFxc6OjozMzO5ublkZGRbW1uasMSQqL5VfqG2xdRliagoKCh5l7Kpu8xbgaN1lLA+b5e/zNkPDw+itccATIFJdZqwv86FoLlXf6KUqr+B2pDlAAAaYElEQVR4nNVdeUPiPBMHe1EsyH3IjbKKyCEoyKOs3/9bvZTM5GjTNin6yv7+WhdaMpl7MkkymYvD9c2odT+udB5f/ry/X129/2k/3A3G5Wm1+NsjOw/X1Vb34SoGL916Nf/bo5QjX7yptcrl+yPK9XqrdlMqciMttbrtOMIYhuWq991jK1Rb9fHTUVza7T/tl5fH4ax7X5/eFJSmslArz15kI20PB+VpqTAd/FGjDFGZfhsLr2v3nch5fX94Kk+LMb+VH3Uf9YauSODoG0ir3g4Vfuq9M54WZI/XKj9BGUH7/vos0kpjRV044aXSEs1aYawpcDDqTrfcqlVLxWLBR7FUGh214k42lEEpNW3TToqRdWuo8iV9tr1XyqNSpJTnS9PbkEl9SkdfK9W8+7hrHYW0IKHtcdYd35aPZvN23J0FlfHhdqTi0LzqfYDCilQlYjF9Dw5tNq7Xqmgj89el6mha7j5JLeHVVacr/v3SbVXDSlIa1cHiMI6roNASbcGtHm0l8enO7Shaf4uj+iDWBR/Nd6z2V+tVvdH5KJR5NXzXsZ9lcWwqrqVar8gN0KymP3Q1jO74UaryvsBxYtjS8JrFViWoq2N9nTih0Z80l5+bvY/Ncjfp92Tfunni2KcmACNu3vVF5qbMGdpb/YCi0d/t14ttznEc0waYjuNa28V60wzReDNjv1ZWeH2LfruTQh18FFpEZAYSvnn5xgn5CEFqHP5zbcvISmBYtmN+HHYN8YkRs2uzROm8p5yehj7L95vLzfP8cJjPn/fLXbMfNcbMdWv4Epgbb7I8rBZbw3Zc17Sz28Vqvd9Nwi/oHeycjDgk0TFf9yILmZV4SXApt1RLRaFq7Oar7VFYjtJi+SDi4mYXb8+7fvwrfUyeX03HtCyDcsUwfF645uKwDD7fWztS5tFHbfd1yU8LZ+FjxY1yriWM7evDdSwrSlxcRzJEDv151rWjxmtYprs9NAOTsXDiyDs+5dhznoGUKVcxFprqHBfdNPZbV64I4hDN1X4ie2fz1ZXOi/C446xFApdm0kOWu+boY6YwrFCBr7SZVPYO0dMe/Dnbcd6WAas2+XDVHrdc65l/1ntzkx85MAtz/SAVO4Zr1E0q097cSZpCETnT+eB0vvGmSNsJtvvGy3cy+44TumHff4rn3kOQc82srUXbCc4rnZylFWP9pKN1Vhx9vYWZ+IS5YA/Q0FYWlqFhpV7qoDPxdICv9IXrRNkKI+fw2nRIMC5Z374w9lGbGE6KSgGb2nhNnjnJj30g5xuLFIzP+tK2Z4PaKSi9u6LCRj1fKGqHAKqOYrHV0zgcGwpKP6splQzOBzO+k2zyMKwtlU70DMMAcVPy33eUuFSDc9Gu95OcSBwMZ07H1ftIJs+wqTtB3RuI1P0RlM77SEWc+YXEqbqRqBd9UHZ4CwUhcpf4dbScguGsi3L5mkosjQ94vJE9jziffXS8mVcFBXapbUG/x0eSpM7wCH99Jdsq6U/ghKfjfOBlh3TkodceM+JaQpA2SWHKjzCf4W3rdNYy+DrmW/7qCGc1ZDcfBUuzTSVXxhYeX6abnBCsDxpoKekemhawLDSZrQqs26STSwfe3v8WzvnIUVOfV5lwB76dh4ASqRuQEIz84aUbXW6FWvINSgcwssx9JpNnbPMC86oCsWAwn9NR54ALXqbjfMSAKXkThcjJehNEEaqcNV4NvXTGHN+cT/V0JBh5KrPmwgwTD/BA/qjwYUrKuUehn3+b1hEYWzQt82Tu4RR3OXZ55N+Q9f1NxTsLtK6XJvSORQ5DBBXDaeV5YaxyYkoEs5/OnKNMHFIFObHAiVOZOfAKJc6QlHkp3aeSLIzBet/k6gTQmLqZ+HbMnrhwhdTL7oH9qQTThDho/v2sO8LdAXnrpNfnQPFIBXfG1I54h146m2ITefd+gnVZZrIySVNvLMj37qg/v+HVbpeKOmtNXvr57TaFgCYfibK5JUWdMaEpgxH0yzlWAYOwj3MTnyjYmDC8JYzPIP7jllJH6Oyeo3a5zDn2VgU4f40E6mxSc4ICi4cFFRKGNdI5u8NP2pQTjCzUERNCfIdQV6faRv4xOmP2TZjYVONWBJXNeOl3BeoKaDJLZxgVl8xryqRX9UcgXmjGDjFIXYk3mal8OQYTXz8nmFnObr7GMc8JUEfisD9nmEws5v+YxSRwPjPJIiJalTxEnFAvWqUZIPjaH4nCeBhgWFYx6XGOeIR7tJnE3XXOmH6TPLv8IVdOYX8pMI8ETdSbEyZC7Xab4kdR7RKDwLNhNpI0DytXFaTuloXT6RJrjMvTVdK0fgmSheh4DONM4sPbyERSHkvlzKGgkjL+1gK4nuiJRDkibU9DkbpeGuEye2e4Sj3YUA+OdFwYNV2hug24QCxd3QC83TcXVKSAgLYRJZrgnKDafosKSKjrp6AOhSGVM9GFCXnsKkLIHPI5JHX186kDafF+3qgcYcDaQpQawDoNNG/UzqfOJKsTjZ/zdpZ16ms64T8y/KgiAPgMCMRuROrS6B2YTMHFGjnSaOU45jlrsD4sx1jNl81+r9Fo9PqTZj/O5WEsOqaxc5e3mSksA0R2NFLxG4c+3p53zf4RzeVhodzOIxmts51LGuUyUcsBaANIHew9E/B3aRY4PP7nLHd72In9Rv39NqXUmttlVBOhPA+yIFa7otHlGI2nT53+CDD28eMww8weZL1i3l7eQpfwZmcveRdgIqUOTGbhisZfJBKDsop+nIlW7PUokR+7qKnu6TevGJa0qS6WOtFk+ksHJIqekYf0cwSsj27dVdxoMitN8gxD2gmNkEsm5EiQ3fkV2paQ32lLkEUi23w8bUf81dNph2+Ia0yan5sjls1JL4Y6A4xKhZpMYGPq3NyOUI7epLlc8p3BnhZ1tLh+JOSQPfoWk7R/u/+RWZS6c1swKqcKLUQtpA1no60e9meYssl+Zfq+zvd5r3SYyWscDHSZOrPMulbO8vuVgWzCU2mqDLW5Ao2hacRZimZ4LMxlRsTkYDichzNc2mOoIfa4TO2tXMN2F4fn/XxFhuY2otkAn9VolEn5SPod9OuZzo4nrbHZYr9qzg+ejrHKMZAC8uR2TgY0xJm/tmHtISPvnz6yBPcqPiVGKjenPx55d65LHC2Bn54+WCZyzVzt+vnGZLk2bAOWLtQtMgqEv5jMrMs6xyiQGQhM7qBbkVRYBkxKU7gEh9pKb26xCbVol17+yzThD2WthoT4GPay95CM3IjJt0CMPBapZNA7gEt4043FsESc2Qltxi5n0D9NiwiXagqCDDrOBhZKfGH0n0b+yPItUDvw5bDaCkpI/tAuRgN1XqC/m1dHL2t+Ro9JAowQ/ESArh+Q5RF0QBL7gHMCq1vQHF06y2iC3gVrjLQu7guYhQZeUTJQHE/fNv/689eHBn74OZn1wxBaUDuU05RGEwxAPzgrNmtA9D2Bh6KmAmBQg3zbcO2PrAvzAhIvYwJYgLygdriEfg9SpAnw5uG813kjFHl+hAlxleIqUeidTKDd6GlyBUWjHX7EaD7BRGsaTZhnSa3Qsp4n/cmX7X8CaqhYUYycMZpvSRwCKuuAhdAn1Hmzort+CkUjqaO0HQd8O+qEmlkRJZMHdQjhUaKPhP2pNMAVeo12mnk0WAAvPjOMGVX0OzNh6mIcgkP8AYTNT0gcRp3p1paxmSOJK+Rbat2R0e/EYnR4kOgYIbfjtjq1OT3UbWBEcU8IcqxAbSkWxl/yzrADAfGTLBXiEumQT3lOIDtjKyA8euRhGSqBOnD6ioE0BKbh0MKUe9cstcpFQtyQEXeWWUGNSmh0wUlX02pY/Q7PBfi0sLvD6KEuhGEnjASzohetYLKSQB2txyu9FBxIuPXGiXLmGKF1+OyHQDArmsvfitQpqicAjWbopZGZudnnKWlneJAUD7qk9ap+aAESWnLRpKm5BPx2yMRCO0qo2w4fgF0j3D6SDBaRoOqnlwThe2O7SHyQrykurtsRihdFHSYhnUCgwpNM/tCrHClKZjZHzKDiGiYmUEGPFyWZ4HDAYl4JxKGDL8knLBaKNhO5oTh12JweNOCOvN6HGVZdJpiYNYCD16JO0d+h2is3tXjSmY7wCMjqR5lgorxCbSVRhXioGkOw5ar+JqKfFXPl4Fs8XgTfA8RBtg79tVpbZVTjTDfKD0e8FiZtI/IarEfAa6EDuQ278hOEvTJa1QeI2hPddGSUEQGbhPyBLEgeRWOJCmxK6KAOKEiT6oNWZ3pcfsfD0Qo0WbomuhCaAfH/iU4JWPQQJA53i8Iqnk5RE2LzxKxblzoMHMWAGW2YYBpwi+wslPwgujzZOm2kUVWjCOrUpR7LwAIhSLPAUXCluOFVctrQNK3iYQnu26lDcyU+YcH8c+qINgXy1kqYOAw/ieLldaiDUSf5MfQI6oUNKC2LegL/yYdiaFPe+VwggEde8TR2Jah6aVvTm7OkRngkLAKoipDGvWRkGPCKp+PxyGQmVugtxe9xMGBo/JbXsCKg3webUs/IAIpH6hEaK23RBcYAVL/HUQKB/yc3GnDnrMkPB4ABtPxMPbA45HgET3kMrKEj4Xta+Z04cH4XR8idY+4zjrYpPh75UFN5EKqBGH5Pa30Qg2OOeejO6fig5RwWQyJP3OrySqmc48FcJjZUg9PXW9uVMI+2xxjC72OGKolTCGp8jpfovgKjTgxVIIjWrAVjFML2UWM6iYUOqEDDSk/0cVueYHNUe0lhQSNxVRVMpmYdn64CUoEO6DkKai0i92EgOR7sOle1bYrUoVHRXYNB5lH/FrBO2JHUich9GOjeGeF1itQl6Cmqh+7mRap5aJOROlLaQlsVPnQkhCofyajuTEBrkcAT3LOg3aiF52mhBxZ5h6wDT96NJk7YpK3sE3CBK/5byAL9ViYsKuCGV0HvMIGHikM4beVBqppQx1XcfqxWVsEwPsVWIZRp0GyLL8Eh6+CkplkccRiMafkEacIVAuZq2rRlqbWF4zHQSJ7+DTMbPOdNjmvBJ6gaACI5n3FmBZUljWBSeohq85EYpj7QjtnJxIOUH4bkD8VoHqQj1k2jXU/aLC4HErH3ZRM2k/hFMTSYyLqkI6PLvF1VDCuwuhPr/gl/8+la22mvpv8TQKpvQqGZDLUuMghDwCxA2UUt4M1F1MQ5YMvrJmXjPrai+fEYVB6OcTBuxlNlHS6gg+1RXNCATusYVsNKaurthzQe2xo4l0cjBgVP9HXDROK4wx8yyo1BuJU+0kHKyz86oJmQyfTAhLpEVZl1+FWItPVEM3IyULD0++URNB6zoWjUdw3I9THCVGAdnsQIrSyKIS8mIREbpTG6OOeICzS6z2BgNjayc6TOOnqYUwI3RNBoQv51HMc5Jx6h5uVBDBYWNqXCmtZdRgVsW54PxTKBA6Hgs1SxbPJh5GZOJbhNfpR9F6UdD7jmexxiIIimokNHi59ZSGQTQ410p0EhsPeA4OCCofKgQhtVKwoCRJMkearNHbBWn8kbYWbjLJ+5cZRnXsPGbfV4TK3qBV3c9qeM8slpNJrom8EH0NydezoJ34n8hSeBYg0zsE4egzavpap1cRe3y0yCG0GxXH72MQkm3W/UM5FSPKNW/Y4JcOikJq28TmnSkyADBzGD0ObPPwPCxp84oLCjN5AX16WAPLesN+X06MpMfsVbTsx9vuHYSbozoY8bMMAbCOsi+evrwnXMFRfkGdh8obygQA/bO8ZLOWYesQ7+HVvtzbk4UDzYGxy5d10rP8F23rt6VP2I23iY0TB1NiOvMTdxExdI7PeczCg6PVhxvLrL34ym5UEncDtTV66M/O41nayFI+90Y4R/dwpaum86I87kN4veXSVA7uHveEOUV3fCriA5/c36w/kP/uubzoCg0XSGVp/jIK2zTAVLpBwe8rwLoOE6zplHmxM49De8eMIIpMpHPgK7orpewt2LEEJ/2dw9r9xzjygx3MUGzeFTJEltpoDS2HpMPgNbpJaW5T4SbxrqfcVd9JMMh98WPZJcqDgctEZ54UOZbEKAA6G0UgzFzs6txdwA1VM5cD0K5kZ8WbHVvXs4Muq9/dB5GrdqRX56YbuMNESDfBdiU4XCppHDQMLP7oetyNWKdWrjaTZl7/PyeU8qNCSgbMs+AnsEiw4KTYd0eygWqGb1G7m/SVfSZB0CqgCvLf0MFBMGmJjEUjeLHpaowawSvtUs5RE6Oc4gK8XMrRjqoAMXBrdL0DyaIeSDtzlSFZxQP6yzp577CZT8xufKfVOgrx5DHXoT+DOeeQ6m5pngPZm4it3fui696EercxdA958/u/4Gdvsr6oSLCRq3WQx16BTAo8fOt7nGh4L3p6LFOl1SklM7/1IOPG7hCwZiu697SsgJjcluv97+hwcXQKbzmJECFSh5vlmIErwBFX0pqJphg3FLYVfc0CmP/jV69uLtMJ8f1qtF1vGjIZdd1TKM8QgZ6jBA86JrkewU9XGAOHqbFx6vjpVB7S3ttK4W7KIxcqe7+Eg9wHKphtCxRJXKsGQBQzxEuGEji/JRDxD3gD6Pu6REPsZkKCyBGu4r27+PmV/0il5X4G1U4xi9umkq0vaHVgM+GduhTK6veIasX1gYhrvgnD29jiu6yonMg4BF7hWooxsJpFXYBYJ8HAfU6R9nGL84f1TBFR/IDIJWLYZ5uD1WFmTQO3iKlLL2U52fsR5fI4MN4WdQFxqDZTvW3w1/SFCRhtfDGOJoEzXwwQtfe2LicQB5UsF+GU8DZdMGH5k4YFX0T4BF6j6zR8toWblcjlzraW1X+6Z4QSq7z/VP/N3noJt/wLCECkisUPRw0rTwpXNC+Y8ubOiXISzqUvu7/df6bfW2nj9vmuH7e4ucy026JBguHsMOnsAlRqwM4GeSsua6DX+xKT2KPIXNtOaSt0swZrS1E2+tx9IFro3txYMIUSTGctO72wqFTYtOdIqToTaS9wfh8VdfdxTulMb0HueBI88yUJVbsoBnMreEG2lz3AE++qtB4tlJUhRvOdrUFhbQsFDW7PAaT/MDWeGnq0I27vU/37KBq0bNBaci+rcpOZNMLIp1sQ6heNk5WiDaPNdbuUejZdJb/IgvoN9vNJ9fs44ZCLUM7rK3VNTxxwgF4BWn4xeBtOAdyjHA+7VZGtp/flt/Uk7kXzjWbl4tSWHPcD/Eqdc/rB4OVSkPy7Xi9enmai9/XbiZ1rud0I3xLxqXxefxIfk6i3eSCKxeTFaOHRi5YbkfQaXRpw5acCAIab88vrSDeXL8OKOA7SDSq9G9oWh1Mv3NKmv6Dtcy/OPpHHs75/gGHkj7Bgxc/ZlFUMRwr3tbPI39B6GPim3ZR/3m5mu9Wq3eDnvxKvliyvNpaKjyEEET5ZsubRnORT4GQm4W9ERd3Cxgmvb0Hdq/G0vaQNFQBsFy7gEX3VQFI5wo7nnfd6akDpx5PkgQxeM4JWkieVd3LT+azN/Ug1JyF992QOQ7JXWwS+vmSoJ2pTxKIZA8urL3hkQjHEUD8qi7aakjlokEhk9Ps7tOZ/ZU6Zano8if1EKwrMCBE9ChJE3I5GuM9WmpI8aJ6HlidJwCoyBRiJq41tSelaelAixsXpemt0IVMCV1kPWOuXd8M7zBlQRP/kyGP3l/eXh4ePkT+v+U1EG16TSNf36EuqNShxaqcS2rFSIjAumow0L0SQwi6q/fgNKYj38GLDMoJEcRHHW6kRj20Z2C5eGPUXfETWs86wxn43rAs1eV6CPf1c0RcAMjkZefpC4axXJYzxDDFlkdij5QNw7QC02K//G7YX6UwNYglJBcvVf8lVjvRHo+FXXg7ojZVu3E/Bl41en9oHI3fHjoPFXGrRG6pxdGnW7lAfqViO0Kx/KXgNPSXrp72mz+aPnYLXa/hlNIk+60dOHyKfVG0/8nTs6KRNqx273CwCUS/gLJS8MpFCBuRLPSju6OGKzILde/ihN1xP9rrpJA77FwNtGlYcao01y/g1ItLDPF74/8LZxCYJJB61LHZ3dX35PRfTcGTKz0TtLDI/ogxVRYH/gFdDnqNPtxyAvY3cIXiPu0vMOOABKmS9vafh8nwSKFQb2tatgh9vDLQXQsWswV6x0dC6eEkzD8QgMx0vFBjo7Vu+IddjSAQ5DV+y8ANS5I1KIOHEL1kp05yc4gfdFq8hPyH9VdhP9vlLjUU68BlSSF7Dr2S8SpKgJdfzpHyKBDoJfvXiROCzhwWIHO1mxc3SKNrU/RP/C78C06HKqks3sZT0AnrIs5t+h3MWSCpVOuNYUM4YyFrJ/FEysb6ZQehIKY8u7d/zu6zKDrpK854QLX3yQgFvVUSQKazO4Fl/t81FgYrRFoYncfabhRWZ7/HZRYoKkRikGV3btwtSO7+iBYUT9mEnqoqpec3J3gJ2hD8k/lrfWodiQOu8xKLUGXxYm6p3NCpfYy62EEU+YSlGsPIJhk6e6nFpW/BUXO6oU7yKXAzuvpxQsm2dQHYbCiaOJ2ByKYl1nKRHRZLCa5HU2CHLQDkFXXX1pTVkWVE02lNAFbaseXXHSg4FK8ngLzcKdK/uKd3Qljzqx/JS5zOWv+sQuOwgBVrvqQfI8JJOWQ2l086+CIBWBefEXacJ/xoeE/oXUZWOkYwh/LGPJM1gZ/+y8YzBOKggZ9RpBnOFm2M2Z68dkBA2mkwx6WphX2C4bt/F2yqiVUHC6zFyAIMtgh/tlYu/zuDMNy7L97ft8ILLhe6MpPCCSmYis5/fnWdGwfjmss5jtxRx0UoNsXWoEOARY7+KWcfvNzv99/NvuNwHevsW8waZ/g5QAacW+Tv0l7sS87ehaAmwqSevWm7X+QOLax6E9Mpn3NtkG2/x2xPIFK3JOcK4UW1wd/scsikWB7N+5qgW0g16N74RSTiw+dJRhz4++UpzfFQqFQvKnVB8FNkP+YVAJitqZwdF9yCSwWo6itj0zh/lnajvBiN0491v9NmWQoSrfeHHEn2yv17yHfCh6EdDUrV/+VmFIBXrU+rgwfHx86lXF99ANJ3P8AzQY0ygb/GcgAAAAASUVORK5CYII=;" vertex="1" parent="1">
          <mxGeometry x="660" y="470.5" width="29.08" height="30" as="geometry" />
        </mxCell>
        <mxCell id="oIqmAePt7HCqJZuFYAqL-60" value="" style="endArrow=classic;html=1;rounded=0;entryX=0.843;entryY=0.981;entryDx=0;entryDy=0;entryPerimeter=0;exitX=0.25;exitY=0;exitDx=0;exitDy=0;" edge="1" parent="1" source="oIqmAePt7HCqJZuFYAqL-9" target="oIqmAePt7HCqJZuFYAqL-24">
          <mxGeometry width="50" height="50" relative="1" as="geometry">
            <mxPoint x="1120" y="520" as="sourcePoint" />
            <mxPoint x="960" y="329" as="targetPoint" />
            <Array as="points">
              <mxPoint x="1120" y="440" />
              <mxPoint x="960" y="440" />
              <mxPoint x="960" y="400" />
            </Array>
          </mxGeometry>
        </mxCell>
        <mxCell id="oIqmAePt7HCqJZuFYAqL-61" value="" style="endArrow=classic;html=1;rounded=0;entryX=0.892;entryY=1.076;entryDx=0;entryDy=0;entryPerimeter=0;exitX=0.25;exitY=0;exitDx=0;exitDy=0;" edge="1" parent="1" source="oIqmAePt7HCqJZuFYAqL-11" target="oIqmAePt7HCqJZuFYAqL-24">
          <mxGeometry width="50" height="50" relative="1" as="geometry">
            <mxPoint x="1360" y="510" as="sourcePoint" />
            <mxPoint x="1260" y="380" as="targetPoint" />
            <Array as="points">
              <mxPoint x="1360" y="400" />
              <mxPoint x="998" y="400" />
            </Array>
          </mxGeometry>
        </mxCell>
        <mxCell id="oIqmAePt7HCqJZuFYAqL-62" value="" style="endArrow=none;dashed=1;html=1;rounded=0;" edge="1" parent="1">
          <mxGeometry width="50" height="50" relative="1" as="geometry">
            <mxPoint x="40" y="880" as="sourcePoint" />
            <mxPoint x="1490" y="880" as="targetPoint" />
          </mxGeometry>
        </mxCell>
        <mxCell id="oIqmAePt7HCqJZuFYAqL-63" value="&lt;font face=&quot;Courier New&quot; style=&quot;font-size: 18px;&quot;&gt;Migrar los archivos de Alfresco al Api de Archivos&lt;/font&gt;" style="text;strokeColor=none;fillColor=none;align=left;verticalAlign=middle;spacingLeft=4;spacingRight=4;overflow=hidden;points=[[0,0.5],[1,0.5]];portConstraint=eastwest;rotatable=0;whiteSpace=wrap;html=1;" vertex="1" parent="1">
          <mxGeometry x="40" y="910" width="610" height="30" as="geometry" />
        </mxCell>
        <mxCell id="oIqmAePt7HCqJZuFYAqL-64" value="" style="shape=image;verticalLabelPosition=bottom;labelBackgroundColor=default;verticalAlign=top;aspect=fixed;imageAspect=0;image=data:image/jpeg,/9j/4AAQSkZJRgABAQAAAQABAAD/2wCEAAkGBwgHBhUIBwgWFRUXFx8YFhgXGR0fHxkdIhsgHh0gHiUdIigsHiUxHRsfLT0lMSwrLi8uHSA/PTMsPSstLisBCgoKDg0OGhAPGzUlICU3Mjc3NzcvNzc3MzcvMDcyLzI3MDA1LTI3OCs3MTcrNzc3Nzc3NzI3Ny03Ny4uMi41MP/AABEIAMIBAwMBIgACEQEDEQH/xAAbAAEAAgMBAQAAAAAAAAAAAAAABQYDBAcCAf/EADgQAAIBAwIDBgQEAwkAAAAAAAABAgMEEQUSBiExExRBUWFxIoGRoTJCUrEHFdEXIzOCsrTB4fD/xAAbAQEAAgMBAQAAAAAAAAAAAAAAAgUDBAYBB//EACURAQACAQQBBAIDAAAAAAAAAAABAgMEESFBBRIiMVEToRSBkf/aAAwDAQACEQMRAD8A7iAAAAAAAAAAAAAAAAAAAAAAAAAAAAAAAAAAAAAAAAAAAAAAAAAAAAAAAAAAAAAAAAAAAAAAAAAAAAAAAAAAAAAAAAAAAAAAAAAAAAAAAAAAAAAAAAAAAAAAAAAAAAAAAAAAAAAAAAAAAAAAAAAAAAAAAAAAAAAAAAAAAAAAAAAAAAAAAAAAAAAAAAAAAAAAEHxDxDS0jFOEN9RrKjnGF5snjx2yW9NY3lDJkrjrNrTwm28GKN1bzqdnCvFvyUlk5xqfGlW4j3O+o7YS/FKk2pL5PO5emV7kVeJafLe5prlKEo/mTWYuPuixx+LvPF52npW5PKVjnHG8Ow5PpRdC4rvK+jxrVIKTjN05Zzl4SaefZ8+XgW3S9Rpajb9pTWGuTT8GU+TLSmotprT76rbHE3w1zRHtlugAyPAAAAAAAAAAAAAAAAAAAAAAAAAAAAAAAAAAAeZNRWWzl/FGraVPWZzl2tTOOcNsY4Sxybzu6ehfeKJVI6DVdLrt8PLPP7ZOaLTY3lDtK8owgnjfLz8ljLk8eCRaeOripFs2W20Rx87KjyeS0zGOsb9tS+taOoWrvdLqOWz8cJLE4p9G8NprPivsfL2lVutIs6VCDlKUZxSXV4qzSX0NuxsbGzu41rPWJKa5L+6fPzT80/IusrTT7ayjKjSe9KS2xeJYb3zjHOWs7s464wjJqPOafFG+G0X9PMffxMbS1MGi/Lv6vbHfffSH0rRp2+nRtI1E8Scpy8HNpLEfNJRSz4vJP8P0O43DdWssTxGPq+b/AGIePE+mpbYUJ+mcJfZGG4vql7JVIy5L8Cj0X/Z8yvrM862dZn5tM/Ef5+odL/NxY9PGDDzEcOhLoUDjieo61q8tM0a5nB2tB15uDa3VH/hweOvJN46cy717qnZ2Mrq6liMIOU35JLLKhwFf2MdOqapqN/SjWuqjqzjKpDMY5xCL5+EV9ztYndBZeG9VhrehUtRp/ngm15S6SXykmit6dqvctZ1arcXX4JRdOM5csqjuxFN+fgjzwLdW9hrt3w/QrxlT3dvQcZJrZLG6Kx5Nr6s0lYWd9qOsyvbWFRwalDfFPbLsHzWej9QN/gSnaOwpaxe63OdxUp5qKdf4U5NctmcRw8Jcv3LlK4owrKjKrFSfSLay/ZeJy2/sbWy/hjbahZWFNVpOg3JRSc3vUkpNLLzJIkOJNHtuF9GWpKruvatRU3d1HzhKeVOSzyglDdjyWPIC/wBS9tKVXsal1BS/S5JP6ZM+SgWlt/DejZd3r3lpVbXx1KlSEpyfi3JvKefJkS7u4r6Bf6BoV67mFJ05UZQlvk6Mmt9NNZ3bUmvF4fyA6G+ItEV13X+b0N+cbe1hnPtkk8lH0244B1XTlp9KFvDK29nOMYVE/wDNh7vVN8/E061jqNPufBdTU3KMlOdarHKk6EX8EE+fX8Lfkl7AXyF7aTrdjC6g5fpUln6ZNgrVzwJw5Vse7UtKp03jEakFicX4NS6t582QNzHXK9Oz4T1K8xUqb3cVacm3KjB8llpNOSaT9V45YF7je2kq3YRuoOX6dyz9MmR1qaqdm6iz5Z5/+5FfqcC8Mzsu7R0enHlylFYmvVT65+Zq8FVK1Z19K1Wo6tS0rKCqNvMoY3U3L1w2BbgAAAAAAAAAAAAAAAAAB4qQjUg4TjlNYa8znXEmmRjf92t57YU4pRi/DPxN/V/ZHSCF1zRe/wA+3oNKWMPPR+RX+Tx5smCa4fnffb7YM+L11UZKGi2quILdVnlQb6RS6yx555L2fkY6larDQaVeNR7lWk3Lxzhf0JTX9BvFQpVKscKKlGXjj4tyfL3a+RgjToStHZ101B4w11i1nEl59XleKZz97/itXHk43j9zHf8AfDSmloma/HDXdK01eHeKknSqdJNRzGT82spp+qJzhLSbWFy83DqbcSXw4in82/8Ag19O4X1ClS5OLUnlPOOWOXJrK9i26PpcdNo7c5k+cmbmj0+e+ePyU9sdz39ds+HFO8WtHKv/AMQ687ujQ4ctZ4nd1FGWOqpR+Kb/AG+5Krg/htLH8it/nTj/AEJaVtQlXVeVGLmlhSwspeSfVGY6RuqBxZpVlwrc23EWkWcKUaVXZXVOKipU5/C28dcP9z7YyjK91uUXyaj/ALdl6r0aVxSdKvTUovqpJNP3TPFOztaakqdvFbliWIpbljHPlz5cgOdam1/ZRZvP5rf/AFos/H2m3Oo6GpWNJTqUakK0YP8APtfOPrmLfLxJ52drKgrd28dixiO1YWOmFjCM4FPteJ+C69n3irWt6bx8UKkYxnF+KcWs59skbS1zU6On1uIdO0qCtlVgqcez2zlQXKrU+HD681nok+RealhZ1avbVbWDl+pxTf1wbGFjGAKzf3XB2s6f3vUK1rUg1ndNwyvr8Sfp1KVocL3TKdHiW3o1KltSq1qSWG591k1skk+bSln5Y8Do74a0J3PeXo1DfnO7soZz74JRRUY7YoCtXXHfDlKx7zR1OFRtfDTpvNST8Eormn79CBrU9dsKVnxRqdKVSpT3q4pxit0KVR5WEksuCxnx6+TZfIWNpCt20LWCl+pRWfrg2AK5U464ZhZ95jrFOXLlGLzNvy29c+mDDwNZ3ajcaxqNB06l1V7RQfWEEsU1L1x+5YY2NnGt28bWCl+pRWfrg2AAAAAAAAAAAAAAAAAAAAAADzKKksSXI1ael2NOp2kLWKfsbgIWx0tO9o3eTES+JH0Am9AAAAAAAAAAAAAAAAAAAAAAAAAAAAAAAAAAAAAAAAAAAAAAAAAAAAAAAAAAAAAAAAAAAAAAAAAAAAAAAAAAAAAAAAAAAAAAAAAAAAAAAAAAAAAAAAAAAAAAAAAAAAAAAAAAAAAAAAAAAAAAAAAAAAAAAAAAAAAAAAAAAAAAAAAAAAAAAAAAAAAAAAAAAAAAAAAAAAAAAAAAAAAAAAAAAAAAAAAAAAAAAAAAAAAAAAAAAAAAAAAAAAAAAAAAAAAAAAf/2Q==;" vertex="1" parent="1">
          <mxGeometry x="80" y="940" width="293.72" height="220" as="geometry" />
        </mxCell>
        <mxCell id="oIqmAePt7HCqJZuFYAqL-15" value="Back-Registration" style="rounded=0;whiteSpace=wrap;html=1;" vertex="1" parent="1">
          <mxGeometry x="397.14" y="562.66" width="160" height="80" as="geometry" />
        </mxCell>
        <mxCell id="oIqmAePt7HCqJZuFYAqL-17" value="" style="shape=image;verticalLabelPosition=bottom;labelBackgroundColor=default;verticalAlign=top;aspect=fixed;imageAspect=0;image=data:image/png,iVBORw0KGgoAAAANSUhEUgAAAOEAAADhCAMAAAAJbSJIAAAAqFBMVEX/ZgD/////YQD/oG7/ZAL9ZgD+XwD//fz/1cH+UAD/7eP+Zg//ya3/gkv8mGP7ZQP+WgD/5df+bh3/onj+1sT6ZwP/+fb/9fD+wKD/8ur+3cz+4dH/2sX4XAD3aAL9aQD/qoL/iVL/f0r8dSP9r4j8lF3+ik3+tpH+gkP+xqj+VQD+dDb+zrb9jVj9u5j+biX/z7r5bxf9fjf/fT7+pHj+djH8hkT/lWI2z3EiAAAGyklEQVR4nO3dfV/aOhQH8BDOCVzLOIUtIDha3Ji6Da+6zev7f2c3Keq90KcgRZN6fp/9pTP2S5IibXoiOm2PeOsDOHpYGH5YGH7eo7A3my/PPxTny/lqfjLZo/nJybp7/uFLcWPDwWjanKQsOWFv/TXSRABSwnbMFwTAeLxyJ86+RWMBqYLiJOOLs0Y1RdkVTi+tTKOxAIqtmC+brwvC4Ylb2735FSAgoRZFQQSCqN9r3LSdHeHkkmSSgOWA2BUSggTSFHdnTm3Pr5ROzOtCUCgERCSpB0dQ/T/bwt53qVLz2pohabow14eI9ptEC6eBenIdE6A2oeI+fBypo+PInrItnH4lnVL2m+0hbB8RWRylZHqRXKbP6Y8kkZISXdyFwg4H28HD48iesi2cR5AgEYpcB26E9stmXqXqtH72zLo/tLY/kJvQz31oXkuE+OdxT6jbwgdth47VFR2UmZlZzGFd1c/EOUjzP1OxGQ9FQtug+Tc+PRYuy7bQTBksO6Atalx/Ou3/ZV6L2qZsa91j4bJsC7MBWjRCt47IvAaqOSGo407EbSFs3gdrhdCgUKiHY+Gy7AhFwTv9TuzJptFR+rrC7LRQ3YfZN0MW1gxR86ZBTffhq85DyM7hNUQMWehyRML1XOrWGgsPDQtZWB4W+isE+3bSbqH9+MHCDgs9F4p3IJRtFwoWdkIXtn+UstCGhSxsKixkYXlYyMKmwkIWloeFLGwqLxFS66/TtF+I0PZR+g6E7+A6DQttWMjCpsJCFpaHhSxsKi8Q2uWX0GqhfU5CsJCFLGwuLGRheUIWChZmYSELmwoLWVgeI3Qj+icUqXATYvETzruR/gnN50N0EVLJY+q+C7MHeJ2EtY/BbeLdKM0ewnYTOs7DV36G1EUoIHUR1j7n56lw8xStg/BH4SPvYQhBOFyJWsfgdqbxUGhLu3yua3g2XNgSKS7C66MWVdhfiKQXCZzXFVW4VZpqngp/esmSv4/ne1Ef6gRNL3ary5uc3avU8Vyq4Wbtl9BW1QFUFydlg6s3ma1vTD8jOfUhEcLlbNJrIM0IzRFBQjLR42+3n/vzT5v0s9ze3q5v+4PujVaYSHKbh2ZQaLhbDg7Pej7Kj6wXzMM0ISBtuzKKonFUEAINKTk+rC7SrIgLFTW0d8ar3El+fyFpsqWfIFPCc5Grx7o9uKkcpG3xJO1GJFvY56kyzCExv3MRX8x7hwpt12BWxyY7qiehyD5XQVYuy/5RYF6AxO3jk/kp1CRK6oHtES3N67z4NTpU6HnMWX7abqEAOWq7EE5bLTTvT9F9q4X2GhK0W2j/Imm7EFTbhUKyMPiwMPywMPywMPywMPywMPywMPywMPywMPywMPywMPywMPywMPywMPz4JsRks9oEpQJ8XNKxG7TrHySV7au0E9+EAHbRBgAlCaHY3e1N22U5kGi7RxOWbI21G9+EQlKqjSSxW56Ni6IhNt2LCaSBCs0QTEgnC7z53R30P+XSX138HKf2kTnHxxv8E9pVmir+nV+w9V/W17TQKaRODfomRLufWyqvq7dymy6BpNt6VR+FWi++1S2r7l2mQIHOQyIHoCGexqGeS5HU73ktsNOZdFWYo1QQxEunrTo/q0DPpaCualf+Z5kOpVOD/gnjmlXxzxkopwa9E1L80Q3Y6cdODfomRN12oUB3YftHKQs3YeGrh4UszIWFrx4WsjAXFr56WMjCXPwTLtouxPhPy4XwDoStH6Xu8zDQ6zR7nGnCFAIsPjpeL12HOkrllcttC3uHLdBr3kTxykl45lhowzshkvzlcuNiMnSryuSdEIBIDR0KKX2PHQvA+SYUWiPpVS2x/0u6VfTxT0hGqKJl9V3gyem9CnXFkJmHRALofjAre9PoTUfDSJrODvRcakvaAKKEr5fzUVHOTv+JABNbT8qpQe+Ej7H1Jm0ZHrmVrLgPyL0OzF9heZmh/VryVWgDuFsuSmyKM+3Vis9CxDQv3DseCw3QbeVadTwWZvVzDo/XQiFEq0dpPu0XvigsDD8sDD8sDD8sDD8sDD8sDD8sDD8sDD8sDD8sDD/VQnv34K2P8MBApXDfmyA+Bitrsm9uZoXNrO7D7A5XI5fW3y7VQmyBsHLnAMTNHpVvfYwHpbIPU032ZnPYQkoqhMsICR03E/MvsNni525VIRxFQGA3MQrSiBLIdI88qxBOr6VdhBWo0Ay/xAAfqvYK6sy1Qgh0lCJCSqCSnaWcO8Le+g6k4xJA34IkiUQ0qNyzy07F7v2dVEpJKZUMKwDj+4dcmZucsNObDf50w8xycFK3d14bw8Lww8Lww8Lw8y/5ncGHyBQ3RgAAAABJRU5ErkJggg==;" vertex="1" parent="1">
          <mxGeometry x="523.1399999999999" y="598.66" width="35" height="35" as="geometry" />
        </mxCell>
      </root>
    </mxGraphModel>
  </diagram>
</mxfile>
